<svg width="24" height="24" viewBox="0 0 24 24" fill="none" xmlns="http://www.w3.org/2000/svg">
<path d="M12.5 1.56006C18.023 1.56006 22.5 6.03706 22.5 11.5601C22.5 17.0831 18.023 21.5601 12.5 21.5601C10.8822 21.5622 9.28829 21.1702 7.85601 20.4181L3.56601 21.5351C3.42266 21.5724 3.27205 21.5716 3.1291 21.5328C2.98615 21.494 2.85582 21.4185 2.75102 21.3138C2.64623 21.2091 2.57062 21.0789 2.53168 20.936C2.49273 20.7931 2.49181 20.6424 2.52901 20.4991L3.64501 16.2101C2.89085 14.7762 2.49782 13.1801 2.50001 11.5601C2.50001 6.03706 6.97701 1.56006 12.5 1.56006ZM13.752 12.5601H9.25001L9.14801 12.5671C8.9685 12.5918 8.804 12.6806 8.68492 12.8172C8.56584 12.9538 8.50024 13.1289 8.50024 13.3101C8.50024 13.4913 8.56584 13.6663 8.68492 13.8029C8.804 13.9395 8.9685 14.0284 9.14801 14.0531L9.25001 14.0601H13.752L13.853 14.0531C14.0325 14.0284 14.197 13.9395 14.3161 13.8029C14.4352 13.6663 14.5008 13.4913 14.5008 13.3101C14.5008 13.1289 14.4352 12.9538 14.3161 12.8172C14.197 12.6806 14.0325 12.5918 13.853 12.5671L13.752 12.5601ZM15.75 9.06006H9.25001L9.14801 9.06706C8.9685 9.09176 8.804 9.18061 8.68492 9.3172C8.56584 9.45378 8.50024 9.62886 8.50024 9.81006C8.50024 9.99126 8.56584 10.1663 8.68492 10.3029C8.804 10.4395 8.9685 10.5284 9.14801 10.5531L9.25001 10.5601H15.75L15.852 10.5531C16.0315 10.5284 16.196 10.4395 16.3151 10.3029C16.4342 10.1663 16.4998 9.99126 16.4998 9.81006C16.4998 9.62886 16.4342 9.45378 16.3151 9.3172C16.196 9.18061 16.0315 9.09176 15.852 9.06706L15.75 9.06006Z" fill="#E61114"/>
</svg>
