<svg width="24" height="24" viewBox="0 0 24 24" fill="none" xmlns="http://www.w3.org/2000/svg">
<path d="M17.6018 10.9321L13.0679 6.39705M4 18.4883V16.0854C4.00222 15.6891 4.15983 15.3084 4.43841 15.0276L15.018 4.44807C15.1584 4.30612 15.3255 4.19342 15.5097 4.11651C15.694 4.0396 15.8916 4 16.0913 4C16.2909 4 16.4886 4.0396 16.6728 4.11651C16.857 4.19342 17.0242 4.30612 17.1645 4.44807L19.5519 6.83546C19.6939 6.97584 19.8066 7.14298 19.8835 7.32721C19.9604 7.51144 20 7.7091 20 7.90874C20 8.10838 19.9604 8.30603 19.8835 8.49026C19.8066 8.67449 19.6939 8.84163 19.5519 8.98201L8.97236 19.5616C8.69104 19.841 8.31109 19.9984 7.91462 20H5.51169C5.31309 20.0003 5.11638 19.9614 4.93284 19.8855C4.74931 19.8097 4.58254 19.6983 4.44211 19.5579C4.30168 19.4175 4.19034 19.2507 4.11448 19.0672C4.03861 18.8836 3.99971 18.6869 4 18.4883Z" stroke="white" stroke-width="1.5" stroke-linecap="round" stroke-linejoin="round"/>
</svg>
