<svg width="28" height="28" viewBox="0 0 28 28" fill="none" xmlns="http://www.w3.org/2000/svg">
<mask id="mask0_1774_49590" style="mask-type:luminance" maskUnits="userSpaceOnUse" x="5" y="1" width="18" height="26">
<path d="M13.9999 25.6663C18.5102 25.6663 22.1666 22.01 22.1666 17.4997C22.1666 12.9893 18.5102 9.33301 13.9999 9.33301C9.48959 9.33301 5.83325 12.9893 5.83325 17.4997C5.83325 22.01 9.48959 25.6663 13.9999 25.6663Z" fill="white" stroke="white" stroke-width="1.33333"/>
<path d="M18.0832 10.4997V6.41634C18.0832 5.88011 17.9776 5.34913 17.7723 4.85372C17.5671 4.3583 17.2664 3.90816 16.8872 3.52899C16.508 3.14982 16.0579 2.84904 15.5625 2.64383C15.067 2.43863 14.5361 2.33301 13.9998 2.33301C13.4636 2.33301 12.9326 2.43863 12.4372 2.64383C11.9418 2.84904 11.4917 3.14982 11.1125 3.52899C10.7333 3.90816 10.4325 4.3583 10.2273 4.85372C10.0221 5.34913 9.9165 5.88011 9.9165 6.41634V10.4997" stroke="white" stroke-width="1.33333" stroke-linejoin="round"/>
<path d="M14 15.166V19.8327" stroke="black" stroke-width="1.33333" stroke-linecap="round" stroke-linejoin="round"/>
</mask>
<g mask="url(#mask0_1774_49590)">
<path d="M0 0H28V28H0V0Z" fill="white"/>
</g>
</svg>
