<svg width="20" height="21" viewBox="0 0 20 21" fill="none" xmlns="http://www.w3.org/2000/svg">
<path fill-rule="evenodd" clip-rule="evenodd" d="M0.847994 9.86367C3.38966 6.22037 6.68521 4.30994 9.98676 4.30994C13.8643 4.30994 17.2044 6.83601 19.1751 9.87963L19.176 9.88106C19.3064 10.0837 19.3757 10.3196 19.3757 10.5605C19.3757 10.801 19.3067 11.0365 19.1767 11.2389C17.2078 14.3217 13.8892 16.8099 9.98676 16.8099C6.04275 16.8099 2.78817 14.3269 0.824077 11.253C0.690619 11.0458 0.621399 10.8037 0.625144 10.5572C0.628899 10.3101 0.705813 10.0697 0.846168 9.8663L0.847994 9.86367ZM1.87501 10.5762L1.87673 10.5789C3.69084 13.4186 6.59844 15.5599 9.98676 15.5599C13.3371 15.5599 16.3074 13.4095 18.1237 10.5654L18.1249 10.5635L18.1257 10.5605L18.1256 10.5592L18.1249 10.5577C16.3018 7.74256 13.3072 5.55994 9.98676 5.55994C7.19996 5.55994 4.25021 7.1729 1.87501 10.5762Z" fill="#9F9F9F"/>
<path fill-rule="evenodd" clip-rule="evenodd" d="M10 8.05994C8.61929 8.05994 7.5 9.17922 7.5 10.5599C7.5 11.9406 8.61929 13.0599 10 13.0599C11.3807 13.0599 12.5 11.9406 12.5 10.5599C12.5 9.17922 11.3807 8.05994 10 8.05994ZM6.25 10.5599C6.25 8.48887 7.92893 6.80994 10 6.80994C12.0711 6.80994 13.75 8.48887 13.75 10.5599C13.75 12.631 12.0711 14.3099 10 14.3099C7.92893 14.3099 6.25 12.631 6.25 10.5599Z" fill="#9F9F9F"/>
</svg>
