<svg width="24" height="24" viewBox="0 0 24 24" fill="none" xmlns="http://www.w3.org/2000/svg">
<g clip-path="url(#clip0_1682_48644)">
<path d="M20.125 22H3.875C2.8375 22 2 21.1625 2 20.125V5.125C2 4.0875 2.8375 3.25 3.875 3.25H20.125C21.1625 3.25 22 4.0875 22 5.125V20.125C22 21.1625 21.1625 22 20.125 22ZM3.875 4.5C3.525 4.5 3.25 4.775 3.25 5.125V20.125C3.25 20.475 3.525 20.75 3.875 20.75H20.125C20.475 20.75 20.75 20.475 20.75 20.125V5.125C20.75 4.775 20.475 4.5 20.125 4.5H3.875Z" fill="#9F9F9F"/>
<path d="M7.625 7C7.275 7 7 6.725 7 6.375V2.625C7 2.275 7.275 2 7.625 2C7.975 2 8.25 2.275 8.25 2.625V6.375C8.25 6.725 7.975 7 7.625 7ZM16.375 7C16.025 7 15.75 6.725 15.75 6.375V2.625C15.75 2.275 16.025 2 16.375 2C16.725 2 17 2.275 17 2.625V6.375C17 6.725 16.725 7 16.375 7ZM21.375 9.5H2.625C2.275 9.5 2 9.225 2 8.875C2 8.525 2.275 8.25 2.625 8.25H21.375C21.725 8.25 22 8.525 22 8.875C22 9.225 21.725 9.5 21.375 9.5Z" fill="#9F9F9F"/>
</g>
<defs>
<clipPath id="clip0_1682_48644">
<rect width="20" height="20" fill="white" transform="translate(2 2)"/>
</clipPath>
</defs>
</svg>
