<svg width="24" height="24" viewBox="0 0 24 24" fill="none" xmlns="http://www.w3.org/2000/svg">
<path d="M14.5 2.00001C15.0829 1.99994 15.6552 2.15665 16.1567 2.45374C16.6583 2.75082 17.0707 3.17734 17.3507 3.68859C17.6308 4.19984 17.7682 4.777 17.7485 5.3596C17.7289 5.94221 17.5529 6.5088 17.239 7.00001H19.75C20.44 7.00001 21 7.56001 21 8.25001V11.75C21.0001 12.0382 20.9006 12.3175 20.7183 12.5407C20.5361 12.764 20.2823 12.9174 20 12.975V18.75C20.0001 19.5801 19.6824 20.3788 19.1123 20.9822C18.5422 21.5856 17.7628 21.948 16.934 21.995L16.75 22H7.25C6.41986 22.0001 5.62117 21.6825 5.01777 21.1123C4.41437 20.5422 4.052 19.7628 4.005 18.934L4 18.75V12.975C3.43 12.859 3 12.355 3 11.75V8.25001C3 7.56001 3.56 7.00001 4.25 7.00001H6.761C6.31242 6.30306 6.14707 5.46107 6.29875 4.64624C6.45044 3.83141 6.90771 3.10532 7.57704 2.61648C8.24636 2.12765 9.07716 1.913 9.8995 2.01645C10.7219 2.1199 11.4736 2.53363 12.001 3.17301C12.3055 2.80551 12.6873 2.50981 13.1193 2.30704C13.5513 2.10426 14.0228 1.99942 14.5 2.00001ZM11.25 12.999H5.5V18.75C5.50002 19.1892 5.66517 19.6123 5.96268 19.9354C6.26019 20.2585 6.6683 20.4579 7.106 20.494L7.25 20.5H11.25V12.999ZM18.5 12.999H12.75V20.5H16.75C17.1893 20.5 17.6126 20.3347 17.9357 20.037C18.2588 19.7392 18.4581 19.3309 18.494 18.893L18.5 18.75V12.999ZM11.25 8.50001H4.5V11.5L11.25 11.499V8.50001ZM19.5 11.5V8.50001H12.75V11.499L19.5 11.5ZM14.5 3.50001C14.0359 3.50001 13.5908 3.68438 13.2626 4.01257C12.9344 4.34076 12.75 4.78588 12.75 5.25001V6.99901H14.524L14.644 6.99401C15.094 6.95665 15.5121 6.74682 15.811 6.40838C16.1098 6.06994 16.2663 5.62908 16.2477 5.17794C16.2291 4.72681 16.0369 4.30032 15.7112 3.98762C15.3855 3.67492 14.9515 3.50021 14.5 3.50001ZM9.5 3.50001C9.04848 3.50021 8.61452 3.67492 8.28881 3.98762C7.96311 4.30032 7.77086 4.72681 7.75227 5.17794C7.73368 5.62908 7.89017 6.06994 8.18904 6.40838C8.48792 6.74682 8.90603 6.95665 9.356 6.99401L9.476 6.99901H11.25V5.25001L11.244 5.10601C11.2079 4.66831 11.0085 4.26019 10.6854 3.96269C10.3623 3.66518 9.93919 3.50002 9.5 3.50001Z" fill="#5DAAAA"/>
</svg>
