<svg width="36" height="36" viewBox="0 0 36 36" fill="none" xmlns="http://www.w3.org/2000/svg">
<path d="M14.9422 25.8075L21.2329 25.7188L21.1997 27.6739C21.1658 29.3298 19.7505 30.6821 18.0045 30.7008C16.2584 30.7196 14.8751 29.4185 14.9089 27.7626L14.9422 25.8075Z" fill="#FBE46C"/>
<path d="M4.5 18H6M18 4.5V6M30 18H31.5M8.4 8.4L9.45 9.45M27.6 8.4L26.55 9.45M14.55 25.5H21.45M13.5 24C12.2407 23.0555 11.3105 21.7388 10.8411 20.2363C10.3718 18.7337 10.3871 17.1216 10.8849 15.6283C11.3827 14.135 12.3377 12.8361 13.6147 11.9157C14.8917 10.9953 16.4259 10.5 18 10.5C19.5741 10.5 21.1083 10.9953 22.3853 11.9157C23.6623 12.8361 24.6173 14.135 25.1151 15.6283C25.6129 17.1216 25.6282 18.7337 25.1589 20.2363C24.6895 21.7388 23.7593 23.0555 22.5 24C21.9144 24.5797 21.4734 25.2892 21.2128 26.0709C20.9522 26.8527 20.8793 27.6848 21 28.5C21 29.2956 20.6839 30.0587 20.1213 30.6213C19.5587 31.1839 18.7956 31.5 18 31.5C17.2044 31.5 16.4413 31.1839 15.8787 30.6213C15.3161 30.0587 15 29.2956 15 28.5C15.1207 27.6848 15.0478 26.8527 14.7872 26.0709C14.5266 25.2892 14.0856 24.5797 13.5 24Z" stroke="#323232" stroke-width="2.2" stroke-linecap="round" stroke-linejoin="round"/>
</svg>
