<svg xmlns="http://www.w3.org/2000/svg" width="456.75" height="433.88" viewBox="0 0 456.75 433.88">
  <defs>
    <style>
      .cls-1 {
        fill: #fff8e9;
        fill-rule: evenodd;
      }
    </style>
  </defs>
  <path id="形狀_665" data-name="形狀 665" class="cls-1" d="M1434.08,1810.1c14.91,1.89,30.09,2.57,44.66,5.87,66.57,15.05,128.11,42.24,178.39,87.33,72.4,64.93,89.01,148.78,71.15,240.07-3.82,19.51-14.99,38.7-26.64,55.46-29.37,42.26-78.94,55.65-127.61,36.8-25.79-9.98-47.8-25.39-63.57-47.81-12.48-17.75-24.33-36.14-34.36-55.3-16.71-31.92-41.1-55.26-73.88-70.78-15.35-7.27-31.38-13.8-45.19-23.32-18.7-12.9-38.45-26.05-52.67-43.13-45.84-55.09-29.72-128.44,33.84-162.98C1367.97,1816.13,1400.32,1810.75,1434.08,1810.1Z" transform="translate(-1278.16 -1810.09)"/>
</svg>
