<?xml version="1.0" encoding="utf-8"?>
<!-- Generator: Adobe Illustrator 27.0.1, SVG Export Plug-In . SVG Version: 6.00 Build 0)  -->
<svg version="1.1" id="Calque_2" xmlns="http://www.w3.org/2000/svg" xmlns:xlink="http://www.w3.org/1999/xlink" x="0px" y="0px"
	 viewBox="0 0 20 20" style="enable-background:new 0 0 20 20;" xml:space="preserve">
<style type="text/css">
	.st0{fill:#FFFFFF;}
</style>
<path class="st0" d="M18.8,9.6c-0.2-0.2-4-4.8-8.8-4.8c-4.9,0-8.7,4.5-8.8,4.7C1,9.8,1,10.1,1.2,10.4c0.2,0.2,4,5,8.8,5
	c4.9,0,8.7-4.6,8.8-4.8C19.1,10.2,19.1,9.8,18.8,9.6z M10.6,6.2c0.9,0,1.7,0.8,1.7,1.7s-0.8,1.7-1.7,1.7S8.9,8.8,8.9,7.9
	S9.7,6.2,10.6,6.2z M10,13.9c-3.4,0-6.3-2.8-7.3-4c0.7-0.7,2.2-2.1,4.1-3C6.3,7.5,6.1,8.3,6.1,9.1c0,2.2,1.7,3.9,3.9,3.9
	s3.9-1.7,3.9-3.9c0-0.8-0.2-1.5-0.6-2.1c1.9,0.9,3.4,2.3,4.1,3.1C16.3,11.1,13.4,13.9,10,13.9z"/>
</svg>
