<svg xmlns="http://www.w3.org/2000/svg" width="361.031" height="372" viewBox="0 0 361.031 372">
  <defs>
    <style>
      .cls-1 {
        fill: #fff2f5;
        fill-rule: evenodd;
      }
    </style>
  </defs>
  <path id="形狀_666" data-name="形狀 666" class="cls-1" d="M548.857,2131.31c-1.346,66.15-20.433,105.12-68.6,126.58-5.158,2.29-10.067,5.31-15.41,7.01-37.639,11.99-72.794,28.43-107.5,47.7-42.753,23.74-88.117,20.13-127.09-11.63-39.986-32.59-49.155-76.04-37.7-124.5,2.292-9.69,6.579-19.08,10.968-28.12,13.423-27.66,20.325-56.59,21.608-87.33,1.82-43.58,19.811-77.5,62.577-95.39,44.331-18.55,83.815-9.25,120.7,18.91,25.877,19.76,51.647,39.77,78.653,57.95C524.94,2067.98,551.263,2099.13,548.857,2131.31Z" transform="translate(-187.969 -1956)"/>
</svg>
