<svg width="100" height="100" viewBox="0 0 100 100" fill="none" xmlns="http://www.w3.org/2000/svg">
<mask id="mask0_3126_5772" style="mask-type:alpha" maskUnits="userSpaceOnUse" x="0" y="0" width="100" height="100">
<rect width="100" height="100" fill="#D9D9D9"/>
</mask>
<g mask="url(#mask0_3126_5772)">
<path fill-rule="evenodd" clip-rule="evenodd" d="M18.75 27.0833C18.75 21.3304 23.4137 16.6667 29.1667 16.6667H66.6667C72.4196 16.6667 77.0833 21.3304 77.0833 27.0833V51.8382C77.0833 52.9888 76.1506 53.9216 75 53.9216C73.8494 53.9216 72.9167 52.9888 72.9167 51.8382V27.0833C72.9167 23.6315 70.1185 20.8333 66.6667 20.8333H29.1667C25.7149 20.8333 22.9167 23.6315 22.9167 27.0833V72.9167C22.9167 76.3684 25.7149 79.1667 29.1667 79.1667H49.7222C50.8728 79.1667 51.8056 80.0994 51.8056 81.25C51.8056 82.4006 50.8728 83.3333 49.7222 83.3333H29.1667C23.4137 83.3333 18.75 78.6696 18.75 72.9167V27.0833ZM60.4167 22.9167C61.5673 22.9167 62.5 23.8494 62.5 25V29.1667C62.5 30.3172 63.4327 31.25 64.5833 31.25H68.75C69.9006 31.25 70.8333 32.1827 70.8333 33.3333C70.8333 34.4839 69.9006 35.4167 68.75 35.4167H64.5833C61.1316 35.4167 58.3333 32.6184 58.3333 29.1667V25C58.3333 23.8494 59.2661 22.9167 60.4167 22.9167ZM35.4167 45.8333C36.5673 45.8333 37.5 44.9006 37.5 43.75C37.5 42.5994 36.5673 41.6667 35.4167 41.6667C34.2661 41.6667 33.3333 42.5994 33.3333 43.75C33.3333 44.9006 34.2661 45.8333 35.4167 45.8333ZM62.5 43.75C62.5 44.9006 61.5673 45.8333 60.4167 45.8333C59.2661 45.8333 58.3333 44.9006 58.3333 43.75C58.3333 42.5994 59.2661 41.6667 60.4167 41.6667C61.5673 41.6667 62.5 42.5994 62.5 43.75ZM79.1667 70.8333C79.1667 76.5863 74.503 81.25 68.75 81.25C62.997 81.25 58.3333 76.5863 58.3333 70.8333C58.3333 65.0804 62.997 60.4167 68.75 60.4167C74.503 60.4167 79.1667 65.0804 79.1667 70.8333ZM83.3333 70.8333C83.3333 78.8875 76.8042 85.4167 68.75 85.4167C60.6959 85.4167 54.1667 78.8875 54.1667 70.8333C54.1667 62.7792 60.6959 56.25 68.75 56.25C76.8042 56.25 83.3333 62.7792 83.3333 70.8333ZM68.75 62.5C69.9006 62.5 70.8333 63.4327 70.8333 64.5833V68.75H75C76.1506 68.75 77.0833 69.6827 77.0833 70.8333C77.0833 71.9839 76.1506 72.9167 75 72.9167H70.8333V77.0833C70.8333 78.2339 69.9006 79.1667 68.75 79.1667C67.5994 79.1667 66.6667 78.2339 66.6667 77.0833V72.9167H62.5C61.3494 72.9167 60.4167 71.9839 60.4167 70.8333C60.4167 69.6827 61.3494 68.75 62.5 68.75H66.6667V64.5833C66.6667 63.4327 67.5994 62.5 68.75 62.5ZM36.8007 50.5262C39.4393 52.8715 43.5788 54.1665 47.9167 54.1665C52.2546 54.1666 56.394 52.8717 59.0326 50.5265C59.8926 49.7621 61.2094 49.8396 61.9738 50.6995C62.7382 51.5595 62.6607 52.8763 61.8007 53.6407C58.1893 56.8507 52.9537 58.3333 47.9166 58.3332C42.8795 58.3331 37.644 56.8504 34.0326 53.6405C33.1726 52.8761 33.0951 51.5593 33.8595 50.6993C34.6239 49.8393 35.9407 49.7618 36.8007 50.5262Z" fill="#CCCCCC"/>
</g>
</svg>
