<svg width="100" height="100" viewBox="0 0 100 100" fill="none" xmlns="http://www.w3.org/2000/svg">
<path d="M50 0C77.6316 0 100 22.3684 100 50C100 77.6316 77.6316 100 50 100C22.3684 100 0 77.6316 0 50C0 22.3684 22.3684 0 50 0Z" fill="#EE8306"/>
<path d="M49.8953 74.6313C52.7372 74.6315 55.0525 76.9475 55.0525 79.7895C55.0525 82.6314 52.7372 84.9474 49.8953 84.9477C47.0532 84.9477 44.7371 82.6316 44.7371 79.7895C44.7371 76.9474 47.0532 74.6313 49.8953 74.6313ZM41.946 25.0522C42.3147 20.6314 46.157 17.3684 50.5779 17.7368C54.9463 18.0525 58.209 21.9474 57.8406 26.3159L54.6306 64.684C54.4201 67.1577 52.367 69.0522 49.8933 69.0522C47.4198 69.052 45.3675 67.1577 45.157 64.7368L41.946 26.3686C41.8934 25.9475 41.8934 25.4732 41.946 25.0522Z" fill="white"/>
</svg>
