<svg width="100" height="100" viewBox="0 0 100 100" fill="none" xmlns="http://www.w3.org/2000/svg">
<path d="M24.375 48C36.1798 48.0002 45.7498 57.5702 45.75 69.375C45.75 81.18 36.1799 90.7499 24.375 90.75C12.5699 90.75 2.99997 81.1801 2.99997 69.375C3.00015 57.5701 12.57 48 24.375 48ZM24.375 52.3946C14.997 52.3946 7.39468 59.9971 7.3945 69.375C7.3945 78.7531 14.9969 86.3555 24.375 86.3555C33.7529 86.3554 41.3554 78.753 41.3554 69.375C41.3553 59.9972 33.7528 52.3947 24.375 52.3946ZM23.9511 57C24.7923 57.0003 25.5064 57.6824 25.5068 58.5235V60.5576C26.3194 60.6658 27.0615 60.8336 27.7324 61.0596C28.0678 61.1678 28.6473 61.4447 29.2138 61.7315C30.0822 62.1711 30.7038 63.1115 30.3271 64.0088C29.9146 64.99 28.6527 65.1185 27.6425 64.7832C27.0126 64.5741 26.3875 64.3858 26.0449 64.2881C25.3553 64.0916 24.7218 63.9932 24.1455 63.9932C23.6073 63.9932 23.1913 64.1063 22.8984 64.3321C22.6151 64.558 22.4728 64.8583 22.4726 65.2315C22.4726 65.6345 22.6003 65.9449 22.8554 66.1612C23.12 66.3774 23.4988 66.5789 23.9902 66.7657L26.3427 67.6944C27.4483 68.1367 28.342 68.7807 29.0224 69.626C29.712 70.4712 30.0565 71.5476 30.0566 72.8545C30.0566 74.201 29.6127 75.3176 28.7246 76.2022C27.8458 77.0867 26.6829 77.6421 25.2373 77.8682V79.8946C25.2373 80.7398 24.6742 81.4254 23.8291 81.4258C22.9836 81.4258 22.1758 80.7401 22.1758 79.8946V77.8086C21.2309 77.6612 20.3516 77.4259 19.539 77.1016C19.4115 77.0486 19.2759 76.9879 19.1386 76.9239C18.2685 76.5183 17.9415 75.4705 18.3496 74.6016C18.7959 73.6525 19.9423 73.2806 20.8974 73.7139C21.1069 73.809 21.3077 73.8956 21.4804 73.961C22.3215 74.2657 23.0875 74.4228 23.7773 74.4326C24.3535 74.4424 24.807 74.319 25.1377 74.0635C25.4776 73.7981 25.6484 73.4393 25.6484 72.9873C25.6578 72.673 25.5583 72.3584 25.3506 72.044C25.1521 71.7295 24.769 71.4633 24.2021 71.2471L21.7646 70.3037C20.7534 69.9106 19.8881 69.3457 19.1699 68.6084C18.4519 67.8713 18.0928 66.903 18.0927 65.7041C18.0928 64.3282 18.5042 63.1875 19.3261 62.2832C20.1577 61.3693 21.2022 60.7935 22.459 60.5576V58.5235C22.4593 57.6822 23.1098 57 23.9511 57Z" fill="#ED5565"/>
<path d="M56.7369 74.9814L53.295 84.7006C53.2676 84.7791 53.2797 84.8527 53.3333 84.9183C53.3869 84.9848 53.4591 85.0186 53.5499 85.0186H70.4475C70.5372 85.0186 70.6105 84.9848 70.6641 84.9193C70.7177 84.8537 70.7308 84.7801 70.7035 84.7026L67.3546 74.9814H56.7369ZM70.4475 88H53.5499C52.4197 88 51.3465 87.5041 50.6802 86.6743C50.0139 85.8445 49.8236 84.7652 50.1693 83.7873L53.6144 74.0591C54.051 72.8278 55.3004 72 56.7248 72H67.3633C68.7998 72 70.0525 72.8368 70.4814 74.081L73.8346 83.8112C74.176 84.801 73.9834 85.8484 73.3073 86.6842C72.6312 87.52 71.5886 87.999 70.4464 87.999L70.4475 88Z" fill="#ED5565"/>
<path d="M67.3633 71.75C68.8936 71.75 70.2501 72.6433 70.7178 74L74.0713 83.7295C74.4417 84.8035 74.2305 85.9413 73.502 86.8418C72.8966 87.59 72.0208 88.0661 71.0449 88.2051L71.0947 88.25H53.5498C52.3494 88.25 51.2023 87.7239 50.4854 86.8311C49.7665 85.9358 49.5582 84.766 49.9336 83.7041L53.3789 73.9756L53.4785 73.7295C54.0248 72.5264 55.3018 71.7501 56.7246 71.75H67.3633ZM56.7246 72.25C55.3936 72.2501 54.2478 73.0226 53.8506 74.1426L50.4053 83.8711C50.0894 84.7648 50.2615 85.7534 50.875 86.5176C51.4905 87.2842 52.4901 87.75 53.5498 87.75H69.7998L69.7988 87.749H70.4463C71.5184 87.749 72.488 87.3003 73.1133 86.5273C73.737 85.7563 73.9109 84.7982 73.5986 83.8926L70.2451 74.1621C69.8549 73.0306 68.7059 72.25 67.3633 72.25H56.7246ZM67.5332 74.7314L67.5908 74.9004L70.9385 84.6191C70.9956 84.7811 70.9648 84.9458 70.8574 85.0771C70.7535 85.2043 70.6075 85.2686 70.4473 85.2686H53.5498C53.3878 85.2685 53.2424 85.2039 53.1387 85.0752V85.0742C53.0304 84.9405 53.0034 84.7766 53.0586 84.6182L53.0596 84.6172L56.501 74.8975L56.5606 74.7314H67.5332ZM53.5361 84.7676L53.5498 84.7686H70.4473C70.4538 84.7686 70.4584 84.7681 70.4609 84.7676V84.7666L67.1768 75.2314H56.9131L53.5361 84.7676Z" fill="#ED5565"/>
<path d="M82.4559 74.9814L79.1575 84.7006C79.1313 84.7791 79.1429 84.8527 79.1942 84.9183C79.2456 84.9848 79.3148 85.0186 79.4018 85.0186H95.5946C95.6806 85.0186 95.7508 84.9848 95.8022 84.9193C95.8536 84.8537 95.8661 84.7801 95.8399 84.7026L92.6307 74.9814H82.4559ZM95.5946 88H79.4018C78.3188 88 77.2903 87.5041 76.6518 86.6743C76.0134 85.8445 75.8309 84.7652 76.1622 83.7873L79.4637 74.0591C79.882 72.8278 81.0793 72 82.4443 72H92.6402C94.0167 72 95.2172 72.8368 95.6281 74.081L98.8415 83.8112C99.1686 84.801 98.9841 85.8484 98.3362 86.6842C97.6883 87.52 96.6891 87.999 95.5946 87.999V88Z" fill="#ED5565"/>
<path d="M92.6406 71.75C94.1176 71.7502 95.4183 72.6497 95.8652 74.0029L99.0791 83.7324C99.4327 84.8025 99.2318 85.9367 98.5342 86.8369C97.887 87.6717 96.9154 88.1725 95.8447 88.2402V88.25H79.4014C78.2442 88.2499 77.1417 87.7205 76.4541 86.8271C75.7654 85.9321 75.5673 84.7652 75.9258 83.707L79.2266 73.9785C79.6816 72.6393 80.9793 71.75 82.4443 71.75H92.6406ZM82.4443 72.25C81.1793 72.25 80.0819 73.0162 79.7002 74.1396L76.3994 83.8672C76.0954 84.7646 76.2616 85.757 76.8496 86.5215C77.4388 87.2873 78.393 87.7499 79.4014 87.75H95.3447L95.5947 87.749C96.6151 87.749 97.54 87.3034 98.1387 86.5312C98.7365 85.7601 98.905 84.799 98.6045 83.8896L95.3906 74.1592C95.0157 73.0244 93.9163 72.2502 92.6406 72.25H82.4443ZM92.8115 74.7314L96.0762 84.6221C96.1297 84.7803 96.1017 84.9421 95.999 85.0732C95.8989 85.2011 95.7552 85.2685 95.5947 85.2686H79.4014C79.2391 85.2684 79.0959 85.2006 78.9961 85.0713C78.8926 84.9379 78.8692 84.7759 78.9209 84.6211L82.2764 74.7314H92.8115ZM79.3984 84.7676C79.3993 84.7676 79.4003 84.7685 79.4014 84.7686H95.5947C95.5958 84.7686 95.5968 84.7676 95.5977 84.7676L92.4502 75.2314H82.6348L79.3984 84.7676Z" fill="#ED5565"/>
<path d="M69.4548 59.354L66.1565 70.2882C66.1303 70.3765 66.1418 70.4593 66.1932 70.533C66.2446 70.6079 66.3138 70.646 66.4008 70.646H82.5936C82.6795 70.646 82.7498 70.608 82.8011 70.5342C82.8525 70.4604 82.8651 70.3776 82.8389 70.2904L79.6297 59.354H69.4548ZM82.5936 74H66.4008C65.3178 74 64.2893 73.4421 63.6518 72.5086C63.0134 71.575 62.8309 70.3609 63.1622 69.2607L66.4637 58.3165C66.882 56.9313 68.0793 56 69.4443 56H79.6402C81.0167 56 82.2172 56.9414 82.6282 58.3411L85.8415 69.2876C86.1686 70.4011 85.9841 71.5795 85.3362 72.5198C84.6883 73.46 83.6891 73.9989 82.5946 73.9989L82.5936 74Z" fill="#ED5565"/>
<path d="M79.6406 55.75C81.137 55.7502 82.4286 56.7735 82.8681 58.2705L86.081 69.2168C86.429 70.4012 86.2332 71.6578 85.542 72.6611C84.8716 73.6339 83.8429 74.2096 82.706 74.2451L82.7021 74.25H66.4004C65.2307 74.2499 64.1268 73.6475 63.4453 72.6494C62.7634 71.6522 62.5702 70.3594 62.9228 69.1885L66.2246 58.2441C66.6721 56.7624 67.9601 55.75 69.4443 55.75H79.6406ZM69.4443 56.25C68.1986 56.25 67.0923 57.1002 66.7031 58.3887L63.4014 69.333C63.0915 70.3621 63.2635 71.4974 63.8584 72.3672C64.4516 73.2359 65.4043 73.7499 66.4004 73.75H82.4853L82.4863 73.749H82.5947C83.6028 73.749 84.5262 73.2537 85.1299 72.3779C85.7342 71.5009 85.9077 70.4009 85.6015 69.3584L82.3887 58.4111C82.0063 57.1092 80.8969 56.2502 79.6406 56.25H69.4443ZM79.8164 59.1045L79.8691 59.2832L83.0791 70.2197C83.1263 70.3778 83.1017 70.5391 83.0058 70.6768C82.9106 70.8135 82.7663 70.8954 82.5937 70.8955H66.4004C66.2259 70.8954 66.0821 70.8128 65.9873 70.6748C65.8907 70.535 65.8708 70.3724 65.917 70.2168L69.2695 59.1045H79.8164ZM66.3955 70.3584C66.3914 70.3721 66.3934 70.3792 66.3935 70.3799V70.3818L66.3984 70.3906L66.3994 70.3916C66.4005 70.3932 66.4015 70.3944 66.4023 70.3955H82.5928C82.5936 70.3945 82.5946 70.3932 82.5957 70.3916C82.6013 70.3835 82.6015 70.3792 82.6015 70.3789C82.6017 70.3777 82.6027 70.3727 82.5996 70.3623L82.5986 70.3604L79.4424 59.6045H69.6406L66.3955 70.3584Z" fill="#ED5565"/>
<path d="M18 50C18 51.1046 17.1046 52 16 52C14.8954 52 14 51.1046 14 50L14 8C14 6.89543 14.8954 6 16 6C17.1046 6 18 6.89543 18 8L18 50Z" fill="#ED5565"/>
<path d="M42 61C40.8954 61 40 60.1046 40 59C40 57.8954 40.8954 57 42 57H60C61.1046 57 62 57.8954 62 59C62 60.1046 61.1046 61 60 61H42Z" fill="#ED5565"/>
<path d="M79.4922 4L77.0615 14.9561C76.8222 16.0343 75.7541 16.7148 74.6758 16.4756C73.5976 16.2363 72.9172 15.1681 73.1562 14.0898L73.9092 10.6934L50.4853 27.5869L44.7734 19.0059L26.1143 31.5244C25.197 32.1398 23.9542 31.8948 23.3389 30.9775C22.7238 30.0604 22.9687 28.8185 23.8857 28.2031L45.8799 13.4482L51.5137 21.9131L70.8076 8H67.5C66.3954 8 65.5 7.10457 65.5 6C65.5 4.89544 66.3954 4 67.5 4H79.4922Z" fill="#ED5565"/>
<path d="M65.7519 48.4717C66.2885 49.4369 67.5062 49.7844 68.4717 49.248L79.708 43.0059L70.9619 33.6357C70.2083 32.8283 68.9432 32.7845 68.1357 33.5381C67.3283 34.2917 67.2845 35.5567 68.0381 36.3643L70.9199 39.4531L59.6816 37.4092L50.2646 42.3428L43.3437 30.4775L26.2266 37.6553C25.208 38.0824 24.7282 39.2548 25.1553 40.2734C25.5824 41.292 26.7548 41.7718 27.7734 41.3447L41.6562 35.5234L48.7353 47.6582L60.3184 41.5908L70.6396 43.4678L66.5283 45.7519C65.5631 46.2885 65.2156 47.5062 65.7519 48.4717Z" fill="#ED5565"/>
</svg>
