<svg width="16" height="16" viewBox="0 0 16 16" fill="none" xmlns="http://www.w3.org/2000/svg">
<path d="M5.65332 9.00781C6.40972 9.08461 7 9.72334 7 10.5V14.5C7 15.3284 6.32843 16 5.5 16H1.5C0.723336 16 0.0846097 15.4097 0.0078125 14.6533L0 14.5V10.5C6.4426e-08 9.67157 0.671573 9 1.5 9H5.5L5.65332 9.00781ZM14.6533 9.00781C15.4097 9.08461 16 9.72334 16 10.5V14.5C16 15.3284 15.3284 16 14.5 16H10.5C9.72334 16 9.08461 15.4097 9.00781 14.6533L9 14.5V10.5C9 9.67157 9.67157 9 10.5 9H14.5L14.6533 9.00781ZM1.5 10C1.22386 10 1 10.2239 1 10.5V14.5L1.00977 14.6006C1.05629 14.8286 1.25829 15 1.5 15H5.5C5.77614 15 6 14.7761 6 14.5V10.5C6 10.2583 5.82855 10.0563 5.60059 10.0098L5.5 10H1.5ZM10.5 10C10.2239 10 10 10.2239 10 10.5V14.5L10.0098 14.6006C10.0563 14.8286 10.2583 15 10.5 15H14.5C14.7761 15 15 14.7761 15 14.5V10.5C15 10.2583 14.8286 10.0563 14.6006 10.0098L14.5 10H10.5ZM5.65332 0.0078125C6.40972 0.0846097 7 0.723336 7 1.5V5.5C7 6.32843 6.32843 7 5.5 7H1.5C0.723336 7 0.0846097 6.40972 0.0078125 5.65332L0 5.5V1.5C6.4426e-08 0.671573 0.671573 1.61064e-08 1.5 0H5.5L5.65332 0.0078125ZM14.6533 0.0078125C15.4097 0.0846097 16 0.723336 16 1.5V5.5C16 6.32843 15.3284 7 14.5 7H10.5C9.72334 7 9.08461 6.40972 9.00781 5.65332L9 5.5V1.5C9 0.671573 9.67157 1.61064e-08 10.5 0H14.5L14.6533 0.0078125ZM1.5 1C1.22386 1 1 1.22386 1 1.5V5.5L1.00977 5.60059C1.05629 5.82855 1.25829 6 1.5 6H5.5C5.77614 6 6 5.77614 6 5.5V1.5C6 1.25829 5.82855 1.05629 5.60059 1.00977L5.5 1H1.5ZM10.5 1C10.2239 1 10 1.22386 10 1.5V5.5L10.0098 5.60059C10.0563 5.82855 10.2583 6 10.5 6H14.5C14.7761 6 15 5.77614 15 5.5V1.5C15 1.25829 14.8286 1.05629 14.6006 1.00977L14.5 1H10.5Z" fill="#555555"/>
</svg>
