<svg width="16" height="16" viewBox="0 0 16 16" fill="none" xmlns="http://www.w3.org/2000/svg">
<g clip-path="url(#clip0_149_14272)">
<path d="M8 1.5C6.16667 1.54 4.63667 2.17667 3.41 3.41C2.17667 4.63667 1.54 6.16667 1.5 8V9.25C1.46 9.71 1.21 9.96 0.75 10C0.29 9.96 0.04 9.71 0 9.25V8C0.02 6.5 0.383333 5.15667 1.09 3.97C1.80333 2.76333 2.76333 1.80333 3.97 1.09C5.15667 0.383333 6.5 0.02 8 0C9.5 0.02 10.8433 0.383333 12.03 1.09C13.2367 1.80333 14.1967 2.76333 14.91 3.97C15.6167 5.15667 15.98 6.5 16 8V12.5C15.98 13.2733 15.71 13.92 15.19 14.44C14.67 14.96 14.0233 15.23 13.25 15.25H9.81C9.52333 15.73 9.08667 15.98 8.5 16H7.5C7.08667 15.98 6.73333 15.8333 6.44 15.56C6.16667 15.2733 6.02 14.92 6 14.5C6.02 14.0867 6.16667 13.7333 6.44 13.44C6.73333 13.1667 7.08667 13.02 7.5 13H8.5C9.08667 13.02 9.52333 13.27 9.81 13.75H13.25C13.6033 13.75 13.8967 13.6267 14.13 13.38C14.3767 13.1467 14.5 12.8533 14.5 12.5V8C14.46 6.16667 13.8233 4.63667 12.59 3.41C11.3633 2.17667 9.83333 1.54 8 1.5ZM4.5 6.5H5C5.29333 6.5 5.53333 6.59333 5.72 6.78C5.90667 6.96667 6 7.20667 6 7.5V11C6 11.2933 5.90667 11.5333 5.72 11.72C5.53333 11.9067 5.29333 12 5 12H4.5C3.94 11.98 3.47 11.7833 3.09 11.41C2.71667 11.03 2.52 10.56 2.5 10V8.5C2.52 7.94 2.71667 7.47 3.09 7.09C3.47 6.71667 3.94 6.52 4.5 6.5ZM11.5 6.5C12.06 6.52 12.53 6.71667 12.91 7.09C13.2833 7.47 13.48 7.94 13.5 8.5V10C13.48 10.56 13.2833 11.03 12.91 11.41C12.53 11.7833 12.06 11.98 11.5 12H11C10.7067 12 10.4667 11.9067 10.28 11.72C10.0933 11.5333 10 11.2933 10 11V7.5C10 7.20667 10.0933 6.96667 10.28 6.78C10.4667 6.59333 10.7067 6.5 11 6.5H11.5Z" fill="white"/>
</g>
<defs>
<clipPath id="clip0_149_14272">
<rect width="16" height="16" fill="white"/>
</clipPath>
</defs>
</svg>
