<svg width="40" height="40" viewBox="0 0 40 40" fill="none" xmlns="http://www.w3.org/2000/svg">
<path d="M16.6233 26.6377H15.5625C15.1623 26.6377 14.8379 26.9621 14.8379 27.3623V28.8866C14.8379 29.2868 15.1623 29.6112 15.5625 29.6112H26.3797C26.7799 29.6112 27.1043 29.2868 27.1043 28.8866V27.3623C27.1043 26.9621 26.7799 26.6377 26.3797 26.6377H25.319" stroke="#007D7D" stroke-linecap="round" stroke-linejoin="round"/>
<path d="M20.9717 26.4272V18.0693" stroke="#007D7D" stroke-linecap="round" stroke-linejoin="round"/>
<path d="M23.962 23.438L20.9717 26.4277" stroke="#007D7D" stroke-linecap="round" stroke-linejoin="round"/>
<path d="M17.9814 23.438L20.9712 26.4277" stroke="#007D7D" stroke-linecap="round" stroke-linejoin="round"/>
<path d="M12.0984 25.942C12.0984 25.942 12.0447 25.942 12.0179 25.9367C10.0372 25.5448 8.65234 23.752 8.65234 21.5781C8.65234 19.5437 10.0265 17.7724 11.9964 17.2732C12.1574 17.2303 12.2648 17.0907 12.2648 16.9243C12.2648 14.7665 14.0093 13.0327 16.151 13.0327C16.4516 13.0327 16.7522 13.065 17.0367 13.1347C17.0689 13.1401 17.0903 13.1455 17.1172 13.1455C17.2406 13.1455 17.3534 13.0811 17.4178 12.9791C18.5826 11.1165 20.5954 10.0054 22.8016 10.0054C26.3067 10.0054 29.1623 12.8449 29.1623 16.3392C29.1623 16.5701 29.1462 16.8009 29.1247 17.037C29.1032 17.2034 29.1998 17.3537 29.3555 17.4128C31.0946 18.0569 32.2648 19.7316 32.2648 21.5781C32.2648 23.7574 30.9121 25.4697 28.8939 25.8508C28.8724 25.8508 28.8456 25.8508 28.8241 25.8508C28.6309 25.8508 28.4591 25.7112 28.4269 25.5234C28.384 25.3033 28.5289 25.0939 28.749 25.051C30.3754 24.7504 31.465 23.3494 31.465 21.5727C31.465 19.796 30.2358 18.3521 28.545 18.0086C28.4376 17.9871 28.3464 17.9227 28.2873 17.8368C28.2283 17.7456 28.2068 17.6329 28.2283 17.5309C28.3142 17.1337 28.3625 16.7365 28.3625 16.3392C28.3625 13.2904 25.8719 10.8105 22.8069 10.8105C20.6921 10.8105 18.7865 11.986 17.8365 13.8808C17.7667 14.015 17.6271 14.1009 17.4768 14.1009C17.4231 14.1009 17.3748 14.0902 17.3265 14.0687C16.9508 13.913 16.5536 13.8379 16.151 13.8379C14.4494 13.8379 13.0699 15.2174 13.0699 16.9082C13.0699 17.0961 13.0914 17.2893 13.1236 17.4826C13.1451 17.5953 13.1183 17.708 13.0485 17.7993C12.9787 17.8905 12.8767 17.9495 12.764 17.9603C10.8746 18.1374 9.45213 19.6887 9.45213 21.5781C9.45213 23.4675 10.5418 24.8309 12.1682 25.1476C12.3883 25.1906 12.5278 25.4053 12.4849 25.62C12.4473 25.8078 12.2809 25.9474 12.093 25.9474L12.0984 25.942Z" fill="#007D7D" stroke="#007D7D" stroke-width="0.2"/>
</svg>
