<svg width="1440" height="950" viewBox="0 0 1440 950" fill="none" xmlns="http://www.w3.org/2000/svg">
<g clip-path="url(#clip0_524_9330)">
<rect width="1440" height="950" fill="white"/>
<rect width="24" height="23" transform="matrix(1 0 0 -1 444 664)" fill="#E8F6F6"/>
<rect width="4" height="44" transform="matrix(1 0 0 -1 454 681)" fill="#E8F6F6"/>
<rect width="24" height="23" transform="matrix(1 0 0 -1 444 344)" fill="#E8F6F6"/>
<rect width="4" height="44" transform="matrix(1 0 0 -1 454 361)" fill="#E8F6F6"/>
<rect width="24" height="23" transform="matrix(1 0 0 -1 394 364)" fill="#E8F6F6"/>
<rect width="4" height="44" transform="matrix(1 0 0 -1 404 381)" fill="#E8F6F6"/>
<rect width="24" height="73" transform="matrix(1 0 0 -1 57 353)" fill="#E8F6F6"/>
<rect width="4" height="139" transform="matrix(1 0 0 -1 67 406)" fill="#E8F6F6"/>
<rect width="24" height="73" transform="matrix(1 0 0 -1 101 413)" fill="#E8F6F6"/>
<rect width="4" height="139" transform="matrix(1 0 0 -1 111 466)" fill="#E8F6F6"/>
<rect x="165" y="330" width="24" height="32" fill="#FFF0CE"/>
<rect x="175" y="324" width="4" height="62" fill="#FFF0CE"/>
<g clip-path="url(#clip1_524_9330)">
<rect width="24" height="73" transform="matrix(1 0 0 -1 497 322)" fill="#E8F6F6"/>
<rect width="4" height="139" transform="matrix(1 0 0 -1 507 395)" fill="#E8F6F6"/>
</g>
<rect x="539" y="311" width="24" height="32" fill="#FFF0CE"/>
<rect x="549" y="277" width="4" height="60" fill="#FFF0CE"/>
<rect x="206" y="356" width="24" height="32" fill="#FFF0CE"/>
<rect x="216" y="322" width="4" height="60" fill="#FFF0CE"/>
<rect x="581" y="323" width="24" height="32" fill="#E8F6F6"/>
<rect x="591" y="317" width="4" height="62" fill="#E8F6F6"/>
<rect x="227" y="700" width="24" height="73" fill="#E8F6F6"/>
<rect x="237" y="627" width="4" height="139" fill="#E8F6F6"/>
<rect x="271" y="721" width="24" height="32" fill="#FFF0CE"/>
<rect x="281" y="687" width="4" height="60" fill="#FFF0CE"/>
<rect x="315" y="683" width="24" height="32" fill="#E8F6F6"/>
<rect x="325" y="677" width="4" height="62" fill="#E8F6F6"/>
<rect width="24" height="23" transform="matrix(1 0 0 -1 1175 413)" fill="#E8F6F6"/>
<rect width="4" height="44" transform="matrix(1 0 0 -1 1185 430)" fill="#E8F6F6"/>
<rect width="24" height="23" transform="matrix(1 0 0 -1 1267 314)" fill="#E8F6F6"/>
<rect width="4" height="44" transform="matrix(1 0 0 -1 1277 331)" fill="#E8F6F6"/>
<rect width="24" height="23" transform="matrix(1 0 0 -1 1217 334)" fill="#E8F6F6"/>
<rect width="4" height="44" transform="matrix(1 0 0 -1 1227 351)" fill="#E8F6F6"/>
<rect width="24" height="73" transform="matrix(1 0 0 -1 880 323)" fill="#E8F6F6"/>
<rect width="4" height="139" transform="matrix(1 0 0 -1 890 376)" fill="#E8F6F6"/>
<rect width="24" height="73" transform="matrix(1 0 0 -1 924 383)" fill="#E8F6F6"/>
<rect width="4" height="139" transform="matrix(1 0 0 -1 934 436)" fill="#E8F6F6"/>
<rect x="988" y="300" width="24" height="32" fill="#FFF0CE"/>
<rect x="998" y="294" width="4" height="62" fill="#FFF0CE"/>
<g clip-path="url(#clip2_524_9330)">
<rect width="24" height="73" transform="matrix(1 0 0 -1 1320 292)" fill="#E8F6F6"/>
<rect width="4" height="139" transform="matrix(1 0 0 -1 1330 365)" fill="#E8F6F6"/>
</g>
<rect x="1362" y="281" width="24" height="32" fill="#FFF0CE"/>
<rect x="1372" y="247" width="4" height="60" fill="#FFF0CE"/>
<rect x="1029" y="326" width="24" height="32" fill="#FFF0CE"/>
<rect x="1039" y="292" width="4" height="60" fill="#FFF0CE"/>
<rect x="1404" y="293" width="24" height="32" fill="#E8F6F6"/>
<rect x="1414" y="287" width="4" height="62" fill="#E8F6F6"/>
<rect x="1082" y="404" width="24" height="73" fill="#E8F6F6"/>
<rect x="1092" y="331" width="4" height="139" fill="#E8F6F6"/>
<rect x="1118" y="483" width="24" height="32" fill="#E8F6F6"/>
<rect x="1128" y="477" width="4" height="62" fill="#E8F6F6"/>
<rect x="830" y="232" width="24" height="32" fill="#FFF0CE"/>
<rect x="840" y="198" width="4" height="60" fill="#FFF0CE"/>
<path opacity="0.2" d="M1014.54 700.271H670L842.272 528L1014.54 700.271Z" fill="url(#paint0_linear_524_9330)"/>
<path opacity="0.2" d="M694.015 724.015L-18 723.985L337.993 367.993L694.015 724.015Z" fill="url(#paint1_linear_524_9330)"/>
<path opacity="0.2" d="M342.009 800.516L-223 800.493L59.4927 518L342.009 800.516Z" fill="url(#paint2_linear_524_9330)"/>
<path d="M1615 670L1046.64 678.146L1334.89 389.891L1615 670Z" fill="url(#paint3_linear_524_9330)"/>
</g>
<defs>
<linearGradient id="paint0_linear_524_9330" x1="928.408" y1="614.136" x2="756.136" y2="786.407" gradientUnits="userSpaceOnUse">
<stop stop-color="#FFB100"/>
<stop offset="0.679699" stop-color="#FFF1D2"/>
</linearGradient>
<linearGradient id="paint1_linear_524_9330" x1="516.004" y1="546.004" x2="395.049" y2="666.959" gradientUnits="userSpaceOnUse">
<stop stop-color="#339797"/>
<stop offset="1" stop-color="#8ED4D7"/>
</linearGradient>
<linearGradient id="paint2_linear_524_9330" x1="200.751" y1="659.258" x2="104.769" y2="755.24" gradientUnits="userSpaceOnUse">
<stop stop-color="#339797"/>
<stop offset="1" stop-color="#8ED4D7"/>
</linearGradient>
<linearGradient id="paint3_linear_524_9330" x1="1474.95" y1="529.946" x2="1186.69" y2="818.201" gradientUnits="userSpaceOnUse">
<stop stop-color="#FFB100"/>
<stop offset="0.679699" stop-color="#FFF1D2"/>
</linearGradient>
<clipPath id="clip0_524_9330">
<rect width="1440" height="950" fill="white"/>
</clipPath>
<clipPath id="clip1_524_9330">
<rect width="24" height="90" fill="white" transform="matrix(1 0 0 -1 497 375)"/>
</clipPath>
<clipPath id="clip2_524_9330">
<rect width="24" height="90" fill="white" transform="matrix(1 0 0 -1 1320 345)"/>
</clipPath>
</defs>
</svg>
