<svg width="24" height="24" viewBox="0 0 24 24" fill="none" xmlns="http://www.w3.org/2000/svg">
<g clip-path="url(#clip0_750_2191)">
<path d="M16.0819 11.5744C16.2773 11.7977 16.375 12.049 16.375 12.3281C16.375 12.6073 16.2773 12.8585 16.0819 13.0819L9.80062 19.3631C9.57729 19.5585 9.32604 19.6562 9.04688 19.6562C8.76771 19.6562 8.51646 19.5585 8.29313 19.3631C8.09771 19.1398 8 18.8885 8 18.6094C8 18.3302 8.09771 18.079 8.29313 17.8556L13.8625 12.3281L8.29313 6.80062C8.09771 6.57729 8 6.32604 8 6.04688C8 5.76771 8.09771 5.51646 8.29313 5.29313C8.51646 5.09771 8.76771 5 9.04688 5C9.32604 5 9.57729 5.09771 9.80062 5.29313L16.0819 11.5744Z" fill="#007D7D"/>
</g>
<defs>
<clipPath id="clip0_750_2191">
<rect width="8.375" height="14.6562" fill="white" transform="translate(8 5)"/>
</clipPath>
</defs>
</svg>
