<svg width="24" height="24" viewBox="0 0 24 24" fill="none" xmlns="http://www.w3.org/2000/svg">
<path d="M10.4828 23.2589C7.94161 23.0119 5.36514 21.7766 4.09456 19.553C2.85926 17.3295 3.17691 14.506 4.05926 12.0707L4.80044 14.1883C4.87103 14.4001 4.97691 14.6472 5.15338 14.753C5.43573 14.9295 5.82397 14.7883 6.03573 14.506C6.2122 14.2236 6.2475 13.8707 6.2122 13.553C6.10632 12.1413 5.29455 10.8354 5.25926 9.42363C5.22397 7.8001 6.2475 6.31775 7.51808 5.29422C7.55338 5.85893 7.69455 6.45893 7.87102 6.98834C7.94161 7.2001 8.08279 7.41187 8.29455 7.44716C8.43573 7.44716 8.57691 7.37657 8.68279 7.27069C9.74161 6.38834 10.3769 5.11775 10.624 3.77657C10.7298 3.10598 10.7298 2.4001 10.5887 1.72951C10.5534 1.58834 10.271 0.882455 10.3416 0.776572C10.4475 0.564808 11.0475 1.02363 11.1887 1.09422C13.5181 2.57657 15.071 5.22363 15.1063 7.97657C15.1063 8.4001 15.1769 8.96481 15.6004 9.0354C15.8475 9.07069 16.0946 8.92951 16.2357 8.71775C16.3769 8.50599 16.3769 8.25893 16.4122 8.01187C18.071 9.49422 19.271 11.3295 20.0828 13.3766C20.5416 14.5766 20.8593 15.8825 20.6122 17.153C20.4004 18.3178 19.8357 19.3766 19.024 20.2589C17.6828 21.7766 15.8828 22.9766 13.871 23.1883C12.8122 23.2942 11.6828 23.3295 10.4828 23.2589Z" fill="#F95353"/>
<path d="M16.6949 21.6353C16.6243 21.8824 16.5184 22.1648 16.4126 22.4118C15.6361 22.8353 14.789 23.1177 13.9067 23.1883C13.2361 23.2589 12.5655 23.2942 11.8596 23.2942C11.4361 23.2942 10.9773 23.2942 10.5185 23.2589C9.70669 23.1883 8.89492 23.0118 8.11845 22.7295C7.69492 22.1295 7.41257 21.4236 7.30669 20.7177C7.05963 19.1648 7.51845 17.5765 8.4008 16.2706C8.54198 16.0589 8.85963 16.1295 8.93022 16.3765C9.17727 17.1883 9.70669 17.9295 10.3067 18.5648C10.4832 18.7412 10.7655 18.6353 10.8008 18.3883C10.8714 17.5412 11.0479 15.953 11.3655 15.1059C11.7537 14.0471 12.3537 13.0236 13.2361 12.2824C13.4126 12.1412 13.6596 12.2118 13.6949 12.4589C13.8714 13.5177 14.4008 14.5059 14.9302 15.4589C15.5655 16.5177 16.2714 17.5765 16.589 18.7765C16.9067 19.6589 16.942 20.6824 16.6949 21.6353Z" fill="white"/>
<path d="M16.6949 21.6353C16.6243 21.8824 16.5184 22.1648 16.4126 22.4118C15.6361 22.8353 14.789 23.1177 13.9067 23.1883C13.2361 23.2589 12.5655 23.2942 11.8596 23.2942C11.4361 23.2942 10.9773 23.2942 10.5185 23.2589C9.70669 23.1883 8.89492 23.0118 8.11845 22.7295C7.69492 22.1295 7.41257 21.4236 7.30669 20.7177C7.05963 19.1648 7.51845 17.5765 8.4008 16.2706C8.54198 16.0589 8.85963 16.1295 8.93022 16.3765C9.17727 17.1883 9.70669 17.9295 10.3067 18.5648C10.4832 18.7412 10.7655 18.6353 10.8008 18.3883C10.8714 17.5412 11.0479 15.953 11.3655 15.1059C11.7537 14.0471 12.3537 13.0236 13.2361 12.2824C13.4126 12.1412 13.6596 12.2118 13.6949 12.4589C13.8714 13.5177 14.4008 14.5059 14.9302 15.4589C15.5655 16.5177 16.2714 17.5765 16.589 18.7765C16.9067 19.6589 16.942 20.6824 16.6949 21.6353Z" fill="#FFD550"/>
<path d="M16.6949 21.6353C16.6243 21.8824 16.5184 22.1648 16.4126 22.4118C15.6361 22.8353 14.789 23.1177 13.9067 23.1883C13.2361 23.2589 12.5655 23.2942 11.8596 23.2942C11.4361 23.2942 10.9773 23.2942 10.5185 23.2589C9.70669 23.1883 8.89492 23.0118 8.11845 22.7295C7.69492 22.1295 7.41257 21.4236 7.30669 20.7177C7.05963 19.1648 7.51845 17.5765 8.4008 16.2706C8.54198 16.0589 8.85963 16.1295 8.93022 16.3765C9.17727 17.1883 9.70669 17.9295 10.3067 18.5648C10.4832 18.7412 10.7655 18.6353 10.8008 18.3883C10.8714 17.5412 11.0479 15.953 11.3655 15.1059C11.7537 14.0471 12.3537 13.0236 13.2361 12.2824C13.4126 12.1412 13.6596 12.2118 13.6949 12.4589C13.8714 13.5177 14.4008 14.5059 14.9302 15.4589C15.5655 16.5177 16.2714 17.5765 16.589 18.7765C16.9067 19.6589 16.942 20.6824 16.6949 21.6353Z" fill="#FFD550"/>
</svg>
