<svg width="24" height="24" viewBox="0 0 24 24" fill="none" xmlns="http://www.w3.org/2000/svg">
<path d="M7.98917 4.50325L15.2972 12.0003L7.98917 19.4973C7.85832 19.6312 7.78507 19.811 7.78507 19.9983C7.78507 20.1855 7.85832 20.3653 7.98917 20.4993C8.05271 20.5641 8.12856 20.6156 8.21227 20.6508C8.29598 20.686 8.38587 20.7041 8.47667 20.7041C8.56747 20.7041 8.65735 20.686 8.74106 20.6508C8.82477 20.6156 8.90062 20.5641 8.96417 20.4993L16.7402 12.5238C16.8767 12.3837 16.9531 12.1958 16.9531 12.0003C16.9531 11.8047 16.8767 11.6168 16.7402 11.4768L8.96567 3.50125C8.90207 3.43594 8.82604 3.38402 8.74205 3.34858C8.65806 3.31313 8.56783 3.29487 8.47667 3.29487C8.38551 3.29487 8.29527 3.31313 8.21128 3.34858C8.12729 3.38402 8.05126 3.43594 7.98767 3.50125C7.85682 3.63519 7.78357 3.81501 7.78357 4.00225C7.78357 4.1895 7.85682 4.36931 7.98767 4.50325L7.98917 4.50325Z" fill="#fff" stroke="#fff" stroke-width="0.6"/>
</svg>
