<svg width="20" height="20" viewBox="0 0 20 20" fill="none" xmlns="http://www.w3.org/2000/svg">
<path fill-rule="evenodd" clip-rule="evenodd" d="M17.5 3.75C17.5 3.41848 17.3683 3.10054 17.1339 2.86612C16.8995 2.6317 16.5815 2.5 16.25 2.5H3.75C3.41848 2.5 3.10054 2.6317 2.86612 2.86612C2.6317 3.10054 2.5 3.41848 2.5 3.75V5.48833C2.50009 5.93032 2.67575 6.35418 2.98833 6.66667L7.5 11.1783V17.365C7.49998 17.5213 7.5399 17.6749 7.61599 17.8114C7.69207 17.9479 7.80179 18.0627 7.93472 18.1449C8.06764 18.227 8.21937 18.2739 8.37548 18.2809C8.53159 18.2879 8.6869 18.2549 8.82667 18.185L11.9242 16.6367C12.0972 16.5502 12.2427 16.4172 12.3444 16.2526C12.4461 16.0881 12.5 15.8984 12.5 15.705V11.1783L17.0117 6.66667C17.3242 6.35418 17.4999 5.93032 17.5 5.48833V3.75ZM15.8333 4.16667V5.48833L11.2 10.1217C11.0838 10.2377 10.9916 10.3756 10.9287 10.5273C10.8658 10.679 10.8334 10.8416 10.8333 11.0058V15.3183L9.16667 16.1517V11.0058C9.16667 10.6742 9.035 10.3558 8.8 10.1225L4.16667 5.4875V4.16667H15.8333Z" fill="#007D7D"/>
</svg>
