<svg width="24" height="24" viewBox="0 0 24 24" fill="none" xmlns="http://www.w3.org/2000/svg">
<g clip-path="url(#clip0_1497_41775)">
<path fill-rule="evenodd" clip-rule="evenodd" d="M2.14286 12C2.14286 9.38572 3.18137 6.87852 5.02995 5.02995C6.87852 3.18137 9.38572 2.14286 12 2.14286C14.6143 2.14286 17.1215 3.18137 18.9701 5.02995C20.8186 6.87852 21.8571 9.38572 21.8571 12C21.8571 14.6143 20.8186 17.1215 18.9701 18.9701C17.1215 20.8186 14.6143 21.8571 12 21.8571C9.38572 21.8571 6.87852 20.8186 5.02995 18.9701C3.18137 17.1215 2.14286 14.6143 2.14286 12ZM12 0C8.8174 0 5.76515 1.26428 3.51472 3.51472C1.26428 5.76515 0 8.8174 0 12C0 15.1826 1.26428 18.2348 3.51472 20.4853C5.76515 22.7357 8.8174 24 12 24C15.1826 24 18.2348 22.7357 20.4853 20.4853C22.7357 18.2348 24 15.1826 24 12C24 8.8174 22.7357 5.76515 20.4853 3.51472C18.2348 1.26428 15.1826 0 12 0ZM8.14286 7.28571C8.59751 7.28571 9.03355 7.46633 9.35504 7.78782C9.67653 8.10931 9.85714 8.54534 9.85714 9C9.85714 9.45466 9.67653 9.89069 9.35504 10.2122C9.03355 10.5337 8.59751 10.7143 8.14286 10.7143C7.6882 10.7143 7.25217 10.5337 6.93067 10.2122C6.60918 9.89069 6.42857 9.45466 6.42857 9C6.42857 8.54534 6.60918 8.10931 6.93067 7.78782C7.25217 7.46633 7.6882 7.28571 8.14286 7.28571ZM14.1429 9C14.1429 9.45466 14.3235 9.89069 14.645 10.2122C14.9665 10.5337 15.4025 10.7143 15.8571 10.7143C16.3118 10.7143 16.7478 10.5337 17.0693 10.2122C17.3908 9.89069 17.5714 9.45466 17.5714 9C17.5714 8.54534 17.3908 8.10931 17.0693 7.78782C16.7478 7.46633 16.3118 7.28571 15.8571 7.28571C15.4025 7.28571 14.9665 7.46633 14.645 7.78782C14.3235 8.10931 14.1429 8.54534 14.1429 9ZM5.88171 12.4817C6.04358 12.4335 6.21335 12.4176 6.38135 12.4351C6.54934 12.4525 6.71225 12.5028 6.86078 12.5832C7.00931 12.6636 7.14055 12.7725 7.24699 12.9036C7.35343 13.0347 7.433 13.1855 7.48114 13.3474C7.77262 14.3193 8.36968 15.1713 9.1837 15.777C9.99773 16.3827 10.9853 16.7099 12 16.7099C13.0147 16.7099 14.0023 16.3827 14.8163 15.777C15.6303 15.1713 16.2274 14.3193 16.5189 13.3474C16.6162 13.0205 16.8393 12.7457 17.1393 12.5833C17.4392 12.421 17.7914 12.3844 18.1183 12.4817C18.4452 12.579 18.72 12.8022 18.8824 13.1021C19.0447 13.4021 19.0813 13.7542 18.984 14.0811C18.5348 15.5844 17.6125 16.9026 16.3543 17.8399C15.096 18.7771 13.569 19.2833 12 19.2833C10.431 19.2833 8.90397 18.7771 7.64572 17.8399C6.38747 16.9026 5.46521 15.5844 5.016 14.0811C4.96778 13.9193 4.95193 13.7495 4.96935 13.5815C4.98676 13.4135 5.0371 13.2506 5.1175 13.1021C5.19789 12.9535 5.30676 12.8223 5.43789 12.7159C5.56902 12.6094 5.71983 12.5299 5.88171 12.4817Z" fill="#047978"/>
</g>
<defs>
<clipPath id="clip0_1497_41775">
<rect width="24" height="24" fill="white"/>
</clipPath>
</defs>
</svg>
