<svg width="24" height="24" viewBox="0 0 24 24" fill="none" xmlns="http://www.w3.org/2000/svg">
<g clip-path="url(#clip0_1559_43880)">
<path fill-rule="evenodd" clip-rule="evenodd" d="M12 0C8.8174 0 5.76516 1.26428 3.51472 3.51472C1.26428 5.76516 0 8.8174 0 12C0 15.1826 1.26428 18.2348 3.51472 20.4853C5.76516 22.7357 8.8174 24 12 24C15.1826 24 18.2348 22.7357 20.4853 20.4853C22.7357 18.2348 24 15.1826 24 12C24 8.8174 22.7357 5.76516 20.4853 3.51472C18.2348 1.26428 15.1826 0 12 0Z" fill="#EAAB3E"/>
<path fill-rule="evenodd" clip-rule="evenodd" d="M8.14326 7.28564C8.59791 7.28564 9.03395 7.46626 9.35544 7.78775C9.67693 8.10924 9.85754 8.54527 9.85754 8.99993C9.85754 9.45459 9.67693 9.89062 9.35544 10.2121C9.03395 10.5336 8.59791 10.7142 8.14326 10.7142C7.6886 10.7142 7.25256 10.5336 6.93107 10.2121C6.60958 9.89062 6.42897 9.45459 6.42897 8.99993C6.42897 8.54527 6.60958 8.10924 6.93107 7.78775C7.25256 7.46626 7.6886 7.28564 8.14326 7.28564ZM14.1433 8.99993C14.1433 9.45459 14.3239 9.89062 14.6454 10.2121C14.9668 10.5336 15.4029 10.7142 15.8575 10.7142C16.3122 10.7142 16.7482 10.5336 17.0697 10.2121C17.3912 9.89062 17.5718 9.45459 17.5718 8.99993C17.5718 8.54527 17.3912 8.10924 17.0697 7.78775C16.7482 7.46626 16.3122 7.28564 15.8575 7.28564C15.4029 7.28564 14.9668 7.46626 14.6454 7.78775C14.3239 8.10924 14.1433 8.54527 14.1433 8.99993ZM5.88211 12.4816C6.04398 12.4334 6.21375 12.4176 6.38174 12.435C6.54974 12.4524 6.71265 12.5027 6.86118 12.5831C7.00971 12.6635 7.14095 12.7724 7.24739 12.9035C7.35383 13.0347 7.4334 13.1855 7.48154 13.3474C7.77302 14.3192 8.37008 15.1713 9.1841 15.777C9.99813 16.3827 10.9857 16.7098 12.0004 16.7098C13.0151 16.7098 14.0027 16.3827 14.8167 15.777C15.6307 15.1713 16.2278 14.3192 16.5193 13.3474C16.6166 13.0205 16.8397 12.7456 17.1397 12.5833C17.4396 12.4209 17.7918 12.3843 18.1187 12.4816C18.4456 12.5789 18.7204 12.8021 18.8828 13.1021C19.0451 13.402 19.0817 13.7542 18.9844 14.0811C18.5352 15.5843 17.6129 16.9026 16.3547 17.8398C15.0964 18.777 13.5694 19.2833 12.0004 19.2833C10.4314 19.2833 8.90437 18.777 7.64612 17.8398C6.38786 16.9026 5.4656 15.5843 5.0164 14.0811C4.96818 13.9192 4.95233 13.7494 4.96974 13.5814C4.98716 13.4135 5.0375 13.2505 5.1179 13.102C5.19829 12.9535 5.30716 12.8222 5.43829 12.7158C5.56941 12.6094 5.72023 12.5298 5.88211 12.4816Z" fill="white"/>
</g>
<defs>
<clipPath id="clip0_1559_43880">
<rect width="24" height="24" fill="white"/>
</clipPath>
</defs>
</svg>
