<svg width="24" height="24" viewBox="0 0 24 24" fill="none" xmlns="http://www.w3.org/2000/svg">
<g clip-path="url(#clip0_1806_52083)">
<path fill-rule="evenodd" clip-rule="evenodd" d="M7.55951 22.2188C8.13554 22.4938 8.76574 22.6367 9.40408 22.6371H18.5687C19.5906 22.637 20.5789 22.2719 21.3553 21.6073C22.1317 20.9428 22.6451 20.0228 22.8029 19.0131L23.8761 12.1508C23.9528 11.6615 23.9227 11.1615 23.7878 10.685C23.6528 10.2086 23.4162 9.76697 23.0943 9.39066C22.7724 9.01435 22.3728 8.71223 21.923 8.5051C21.4732 8.29796 20.9839 8.19073 20.4887 8.19077H14.8624V4.15191C14.8632 3.53489 14.6591 2.93506 14.2822 2.44654C13.9053 1.95803 13.3768 1.60848 12.7798 1.45274C12.1827 1.29701 11.5508 1.3439 10.9833 1.58607C10.4158 1.82823 9.94476 2.25197 9.64408 2.79077L6.08351 9.15077C5.86866 9.53472 5.75592 9.96737 5.75608 10.4073V19.7365C5.756 20.2221 5.89346 20.6979 6.15255 21.1087C6.41164 21.5195 6.78176 21.8485 7.22008 22.0576L7.55951 22.2188ZM1.78922 9.46449C1.56485 9.46426 1.34264 9.50826 1.13529 9.59396C0.927937 9.67967 0.739509 9.8054 0.580778 9.96397C0.422047 10.1225 0.296126 10.3108 0.210212 10.5181C0.124299 10.7254 0.080078 10.9475 0.0800781 11.1719V19.9353C0.0800781 20.3886 0.260148 20.8234 0.580675 21.1439C0.901201 21.4644 1.33593 21.6445 1.78922 21.6445H2.63951C2.86684 21.6445 3.08485 21.5542 3.2456 21.3934C3.40634 21.2327 3.49665 21.0147 3.49665 20.7873V10.3199C3.49665 10.0926 3.40634 9.87457 3.2456 9.71382C3.08485 9.55308 2.86684 9.46277 2.63951 9.46277L1.78922 9.46449Z" fill="#2A8CCD"/>
</g>
<defs>
<clipPath id="clip0_1806_52083">
<rect width="24" height="24" fill="white"/>
</clipPath>
</defs>
</svg>
