<svg width="1440" height="667" viewBox="0 0 1440 667" fill="none" xmlns="http://www.w3.org/2000/svg">
<path d="M201.5 522.358C121.5 537.158 31.5 511.191 -3.5 496.358L-80 397.358C-39.5 307.358 152 337.858 183.5 363.858C215 389.858 389.5 387.358 425 252.358C453.4 144.358 1123.83 171.691 1455.5 198.858V397.358C1423.5 333.858 1352.8 254.358 1326 444.358C1299.2 634.358 1138.83 609.191 1062 572.858C1025.33 538.691 919.5 473.758 789.5 487.358C627 504.358 648 666.358 491 666.358C334 666.358 301.5 503.858 201.5 522.358Z" fill="#FFF4F5"/>
<path d="M237.5 323.358C143.9 315.758 39.8333 482.858 -0.5 567.358L-12.5 142.358C134 185.358 249.797 152.531 326 99.3579C438.5 20.8579 640 -78.1421 899 99.3579C966.231 145.433 1080.2 80.04 1205 72.3579C1301.92 66.3917 1397.49 139.621 1456.5 129.858V268.858C1438.33 254.525 1392.67 230.358 1354.5 230.358C1298 230.358 1303 300.858 1205 268.858C1108.31 237.287 1065 323.358 975 361.858C885 400.358 783 334.358 676.5 323.358C570 312.358 563.5 436.358 484.5 454.858C405.5 473.358 354.5 332.858 237.5 323.358Z" fill="#EFF9F9"/>
</svg>
