<svg width="32" height="33" viewBox="0 0 32 33" fill="none" xmlns="http://www.w3.org/2000/svg">
<path d="M23.5425 24.8943C19.3769 29.0599 12.6231 29.0599 8.45753 24.8943C6.37474 22.8116 5.33334 20.0817 5.33333 17.3519C5.33333 14.622 6.37473 11.8922 8.45753 9.8094C8.45753 9.8094 9.33339 12.0185 12.0001 13.3518C12.0001 10.6852 12.6667 6.68516 15.9812 4.01855C18.6667 6.68522 21.4549 7.72182 23.5425 9.8094C25.6253 11.8922 26.6667 14.622 26.6667 17.3519C26.6667 20.0817 25.6253 22.8116 23.5425 24.8943Z" stroke="#E60012" stroke-width="2" stroke-linecap="round" stroke-linejoin="round"/>
<path d="M13.1716 21.5136C14.7337 23.0757 17.2663 23.0757 18.8284 21.5136C19.6095 20.7325 20 19.7089 20 18.6852C20 17.6615 19.6095 16.6378 18.8284 15.8567C18.0523 15.0806 17.0366 14.6901 16.0194 14.6852L14.6666 18.6851L12 18.6852C12 19.7089 12.3905 20.7325 13.1716 21.5136Z" stroke="#E60012" stroke-width="2" stroke-linecap="round" stroke-linejoin="round"/>
</svg>
