<svg width="20" height="21" viewBox="0 0 20 21" fill="none" xmlns="http://www.w3.org/2000/svg">
<path d="M10 14.9558L6.5417 17.0391C6.38892 17.1363 6.2292 17.178 6.06253 17.1641C5.89586 17.1502 5.75003 17.0947 5.62503 16.9975C5.50003 16.9002 5.40281 16.7788 5.33336 16.6333C5.26392 16.4877 5.25003 16.3244 5.2917 16.1433L6.20836 12.2058L3.14586 9.55996C3.00697 9.43496 2.92031 9.29246 2.88586 9.13246C2.85142 8.97246 2.8617 8.81635 2.9167 8.66412C2.9717 8.5119 3.05503 8.3869 3.1667 8.28912C3.27836 8.19135 3.43114 8.12885 3.62503 8.10162L7.6667 7.74746L9.2292 4.03912C9.29864 3.87246 9.40642 3.74746 9.55253 3.66412C9.69864 3.58079 9.84781 3.53912 10 3.53912C10.1523 3.53912 10.3014 3.58079 10.4475 3.66412C10.5936 3.74746 10.7014 3.87246 10.7709 4.03912L12.3334 7.74746L16.375 8.10162C16.5695 8.1294 16.7223 8.1919 16.8334 8.28912C16.9445 8.38635 17.0278 8.51135 17.0834 8.66412C17.1389 8.8169 17.1495 8.97329 17.115 9.13329C17.0806 9.29329 16.9936 9.43551 16.8542 9.55996L13.7917 12.2058L14.7084 16.1433C14.75 16.3238 14.7361 16.4872 14.6667 16.6333C14.5973 16.7794 14.5 16.9008 14.375 16.9975C14.25 17.0941 14.1042 17.1497 13.9375 17.1641C13.7709 17.1786 13.6111 17.1369 13.4584 17.0391L10 14.9558Z" fill="#9F9F9F"/>
</svg>
