<svg width="24" height="24" viewBox="0 0 24 24" fill="none" xmlns="http://www.w3.org/2000/svg">
<path d="M16.0108 4.50325L8.70283 12.0003L16.0108 19.4973C16.1417 19.6312 16.2149 19.811 16.2149 19.9983C16.2149 20.1855 16.1417 20.3653 16.0108 20.4993C15.9473 20.5641 15.8714 20.6156 15.7877 20.6508C15.704 20.686 15.6141 20.7041 15.5233 20.7041C15.4325 20.7041 15.3426 20.686 15.2589 20.6508C15.1752 20.6156 15.0994 20.5641 15.0358 20.4993L7.25983 12.5238C7.12331 12.3837 7.04691 12.1958 7.04691 12.0003C7.04691 11.8047 7.12331 11.6168 7.25983 11.4768L15.0343 3.50125C15.0979 3.43594 15.174 3.38402 15.258 3.34858C15.3419 3.31313 15.4322 3.29487 15.5233 3.29487C15.6145 3.29487 15.7047 3.31313 15.7887 3.34858C15.8727 3.38402 15.9487 3.43594 16.0123 3.50125C16.1432 3.63519 16.2164 3.81501 16.2164 4.00225C16.2164 4.1895 16.1432 4.36931 16.0123 4.50325L16.0108 4.50325Z" fill="#9F9F9F" stroke="#9F9F9F" stroke-width="0.4"/>
</svg>
