<svg width="36" height="36" viewBox="0 0 36 36" fill="none" xmlns="http://www.w3.org/2000/svg">
<path d="M17.8413 26.55L11.6163 30.3C11.3413 30.475 11.0538 30.55 10.7538 30.525C10.4538 30.5 10.1913 30.4 9.96631 30.225C9.74131 30.05 9.56631 29.8315 9.44131 29.5695C9.31631 29.3075 9.29131 29.0135 9.36631 28.6875L11.0163 21.6L5.50381 16.8375C5.25381 16.6125 5.09781 16.356 5.03581 16.068C4.97381 15.78 4.99231 15.499 5.09131 15.225C5.19031 14.951 5.34031 14.726 5.54131 14.55C5.74231 14.374 6.01731 14.2615 6.36631 14.2125L13.6413 13.575L16.4538 6.9C16.5788 6.6 16.7728 6.375 17.0358 6.225C17.2988 6.075 17.5673 6 17.8413 6C18.1153 6 18.3838 6.075 18.6468 6.225C18.9098 6.375 19.1038 6.6 19.2288 6.9L22.0413 13.575L29.3163 14.2125C29.6663 14.2625 29.9413 14.375 30.1413 14.55C30.3413 14.725 30.4913 14.95 30.5913 15.225C30.6913 15.5 30.7103 15.7815 30.6483 16.0695C30.5863 16.3575 30.4298 16.6135 30.1788 16.8375L24.6663 21.6L26.3163 28.6875C26.3913 29.0125 26.3663 29.3065 26.2413 29.5695C26.1163 29.8325 25.9413 30.051 25.7163 30.225C25.4913 30.399 25.2288 30.499 24.9288 30.525C24.6288 30.551 24.3413 30.476 24.0663 30.3L17.8413 26.55Z" fill="#FFD451"/>
</svg>
