<svg width="24" height="24" viewBox="0 0 24 24" fill="none" xmlns="http://www.w3.org/2000/svg">
<path d="M19.4967 16.7475L11.9997 9.43953L4.50275 16.7475C4.36881 16.8784 4.18899 16.9516 4.00175 16.9516C3.8145 16.9516 3.63469 16.8784 3.50075 16.7475C3.43589 16.684 3.38437 16.6081 3.34919 16.5244C3.31402 16.4407 3.2959 16.3508 3.2959 16.26C3.2959 16.1692 3.31402 16.0793 3.34919 15.9956C3.38437 15.9119 3.43589 15.8361 3.50075 15.7725L11.4762 7.99653C11.6163 7.86001 11.8042 7.7836 11.9997 7.7836C12.1953 7.7836 12.3832 7.86001 12.5232 7.99653L20.4987 15.771C20.5641 15.8346 20.616 15.9107 20.6514 15.9946C20.6869 16.0786 20.7051 16.1689 20.7051 16.26C20.7051 16.3512 20.6869 16.4414 20.6514 16.5254C20.616 16.6094 20.5641 16.6854 20.4987 16.749C20.3648 16.8799 20.185 16.9531 19.9977 16.9531C19.8105 16.9531 19.6307 16.8799 19.4967 16.749V16.7475Z" fill="white"/>
</svg>
