<?xml version="1.0" encoding="utf-8"?>
<!-- Generator: Adobe Illustrator 27.0.1, SVG Export Plug-In . SVG Version: 6.00 Build 0)  -->
<svg version="1.1" id="Layer_1" xmlns="http://www.w3.org/2000/svg" xmlns:xlink="http://www.w3.org/1999/xlink" x="0px" y="0px"
	 viewBox="0 0 22 22" style="enable-background:new 0 0 22 22;" xml:space="preserve">
<style type="text/css">
	.st0{fill-rule:evenodd;clip-rule:evenodd;fill:#8CADC6;}
</style>
<path class="st0" d="M20.4,21c-0.3,0-0.6-0.4-1-0.7l-1.8-1.8c-1.8,1.6-4.1,2.5-7.5,2.5c-4.2,0-8.4-3.8-9-8.7h2.5
	c0.6,3.5,3.7,5.3,6.5,5.3c2.7,0,4.4,0.2,5.7-0.9L14.1,15c-0.3-0.3-0.6-0.5-0.6-0.9c0-0.3,0.3-0.6,0.6-0.6h6.2c0.6,0,0.6,0.5,0.6,0.6
	v6.2C21,20.7,20.7,21,20.4,21z M10.1,3.5c-0.9,0-2.6,0.7-3.9,1.8L7.9,7c0.3,0.3,0.6,0.5,0.6,0.9c0,0.3-0.3,0.6-0.6,0.6H1.6
	C1,8.5,1,7.9,1,7.9V1.6C1,1.3,1.3,1,1.6,1s0.6,0.4,1,0.7l1.8,1.8C6.2,2,8.5,1,10.1,1c6,0,10.2,3.8,10.8,8.8h-2.5
	C17.8,6.2,14.7,3.5,10.1,3.5z"/>
</svg>
