<?xml version="1.0" encoding="utf-8"?>
<!-- Generator: Adobe Illustrator 27.0.1, SVG Export Plug-In . SVG Version: 6.00 Build 0)  -->
<svg version="1.1" id="Isolation_Mode" xmlns="http://www.w3.org/2000/svg" xmlns:xlink="http://www.w3.org/1999/xlink" x="0px"
	 y="0px" viewBox="0 0 20 20" style="enable-background:new 0 0 20 20;" xml:space="preserve">
<style type="text/css">
	.st0{fill:#FFFFFF;}
</style>
<g>
	<path class="st0" d="M18,11.3C18,11.3,18,11.4,18,11.3c0,0.1,0,0.1,0,0.1V11.3z"/>
	<path class="st0" d="M17.5,7.4h-4.7c-0.6,0-1-0.5-1-1v-2c0-1.2-1-2.1-2.1-2.1c-0.5,0-1,0.5-1,1v2.1c0,1.5-2.1,2.5-2.1,3.5v6.6
		c0,0.4,0.2,0.7,0.5,0.9c0.2,0.1,0.4,0.2,0.6,0.3c1.1,0.6,2.4,0.9,3.6,0.9h4c0.8,0,1.5-0.7,1.5-1.5v-0.1c0-0.2-0.1-0.5-0.2-0.7
		c0.4-0.3,0.7-0.7,0.7-1.2v-0.4c0-0.4-0.2-0.8-0.4-1.1c0.5-0.2,0.9-0.7,1-1.3c0-0.4-0.1-0.7-0.4-0.9c0.8,0,1.4-0.7,1.4-1.5V8.9
		C19,8,18.3,7.4,17.5,7.4z"/>
	<path class="st0" d="M4.9,7.9H1.3C1.1,7.9,1,8.1,1,8.2v8.2c0,0.1,0.1,0.3,0.3,0.3h3.6c0.1,0,0.3-0.1,0.3-0.3V8.2
		C5.1,8.1,5,7.9,4.9,7.9z M3.1,11c-0.4,0-0.8-0.3-0.8-0.8c0-0.4,0.3-0.8,0.8-0.8s0.8,0.3,0.8,0.8C3.8,10.7,3.5,11,3.1,11z"/>
</g>
</svg>
