<?xml version="1.0" encoding="utf-8"?>
<!-- Generator: Adobe Illustrator 27.0.1, SVG Export Plug-In . SVG Version: 6.00 Build 0)  -->
<svg version="1.1" id="Line_22" xmlns="http://www.w3.org/2000/svg" xmlns:xlink="http://www.w3.org/1999/xlink" x="0px" y="0px"
	 viewBox="0 0 20 20" style="enable-background:new 0 0 20 20;" xml:space="preserve">
<style type="text/css">
	.st0{fill:#FFFFFF;}
</style>
<g id="_x32_">
	<g>
		<path class="st0" d="M15.9,8.8l-4.4-4.9c-0.2-0.2-0.5-0.2-0.6,0c-0.1,0.1-0.1,0.2-0.1,0.4v2.6C7,6.9,4,9.9,4,13.6
			c0,0.9,0.2,1.8,0.6,2.7c0.5-2.8,3.2-4.9,6.1-4.9c0,0.3,0,2.7,0,2.7c0,0.1,0,0.2,0.1,0.3c0.2,0.2,0.5,0.1,0.7,0l4.4-4.8
			C16,9.4,16,9.2,16,9.1C16,9,16,8.9,15.9,8.8z"/>
	</g>
</g>
</svg>
