<?xml version="1.0" encoding="utf-8"?>
<!-- Generator: Adobe Illustrator 27.0.1, SVG Export Plug-In . SVG Version: 6.00 Build 0)  -->
<svg version="1.1" xmlns="http://www.w3.org/2000/svg" xmlns:xlink="http://www.w3.org/1999/xlink" x="0px" y="0px"
	 viewBox="0 0 24 24" style="enable-background:new 0 0 24 24;" xml:space="preserve">
<style type="text/css">
	.st0{display:none;}
	.st1{display:inline;fill:#EF306A;}
	.st2{display:inline;fill:#FFFFFF;}
	.st3{display:inline;fill:none;stroke:#FFFFFF;stroke-miterlimit:10;}
	.st4{fill:#FFFFFF;}
</style>
<g id="Isolation_Mode" class="st0">
	<path class="st1" d="M1803.3,387.5c-9.8,0-17.8,8-17.8,17.8c0,9.8,8,17.8,17.8,17.8s17.8-8,17.8-17.8
		C1821.1,395.4,1813.1,387.5,1803.3,387.5z M1796.2,404c-1.7,0-3.1-1.4-3.1-3.1s1.4-3.1,3.1-3.1s3.1,1.4,3.1,3.1
		S1797.9,404,1796.2,404z M1803.3,418.2c-2,0-3.7-2.5-3.7-5.6s1.7-5.6,3.7-5.6s3.7,2.5,3.7,5.6S1805.3,418.2,1803.3,418.2z
		 M1810.4,404c-1.7,0-3.1-1.4-3.1-3.1s1.4-3.1,3.1-3.1c1.7,0,3.1,1.4,3.1,3.1S1812.1,404,1810.4,404z"/>
	<path class="st2" d="M1792.6,442.6c-1.1-0.8-2.7-0.5-3.5,0.6l-0.4,0.7l-0.7-0.5c-0.6-0.4-1.3-0.5-1.9-0.4c-0.6,0.1-1.2,0.5-1.6,1
		c-0.8,1.2-0.5,2.7,0.6,3.5l0.7,0.5l4.2,2.9l2.9-4.2l0.5-0.7c0.4-0.6,0.5-1.3,0.4-1.9C1793.5,443.6,1793.2,443,1792.6,442.6z"/>
	<path class="st2" d="M1801.7,442.6c1.1-0.8,2.7-0.5,3.5,0.6l0.4,0.7l0.7-0.5c0.6-0.4,1.3-0.5,1.9-0.4c0.6,0.1,1.2,0.5,1.6,1
		c0.8,1.2,0.5,2.7-0.6,3.5l-0.7,0.5l-4.2,2.9l-2.9-4.2l-0.5-0.7c-0.4-0.6-0.5-1.3-0.4-1.9C1800.7,443.6,1801.1,443,1801.7,442.6z"/>
</g>
<g id="Layer_2_copy_2" class="st0">
	<circle class="st1" cx="1797.1" cy="451.3" r="17"/>
	<ellipse class="st2" cx="1797.1" cy="456.7" rx="3" ry="6.7"/>
	<path class="st3" d="M1822.2,432.8v-24.1c0-1.6,1.3-2.9,2.9-2.9l0,0c1.6,0,2.9,1.3,2.9,2.9v24.1c0,1.6-1.3,2.9-2.9,2.9l0,0
		C1823.5,435.7,1822.2,434.4,1822.2,432.8z"/>
</g>
<g id="Layer_3">
	<g>
		<path class="st4" d="M16.6,4.8L14,5.1l1.2,2.4c0,0.1,0.1,0.2,0,0.3l-0.5,2.7l2.6-0.4c0,0,0,0,0.1,0c0.1,0,0.2,0,0.2,0.1l2.4,1.3
			l0.4-2.7c0-0.1,0.1-0.2,0.1-0.3l2-1.8l-2.4-1.2c-0.1,0-0.2-0.1-0.2-0.2l-1.1-2.4l-1.9,1.9C16.8,4.8,16.7,4.8,16.6,4.8z"/>
		<path class="st4" d="M1.9,7l1.5,1.4c0.1,0.1,0.1,0.2,0.1,0.3L4,11.3L6.3,10C6.4,10,6.5,10,6.6,10l2.7,0.4L8.8,7.8
			c0-0.1,0-0.2,0-0.3L10,5.1L7.4,4.7c-0.1,0-0.2-0.1-0.3-0.1L5.4,2.9c-0.1,0-0.1-0.1-0.1-0.1c0,0,0,0,0,0l0,0L4.1,5.1
			C4,5.2,4,5.3,3.9,5.4L1.4,6.6L1.9,7C1.8,6.9,1.9,7,1.9,7z"/>
		<path class="st4" d="M21.3,9.1l-0.5,3.1c0,0.1-0.1,0.3-0.3,0.3c-0.1,0-0.1,0-0.2,0c-0.1,0-0.2,0-0.2-0.1L17.3,11l-3.1,0.5
			c-0.2,0-0.3,0-0.4-0.1c-0.1-0.1-0.2-0.3-0.1-0.4l0.6-3.1L12.8,5c-0.1-0.1-0.1-0.3,0-0.4c0.1-0.1,0.2-0.2,0.4-0.2l3.1-0.4l1.4-1.3
			c-3.4-2.1-7.8-2.1-11.4,0l1.3,1.3l3.2,0.4c0.1,0,0.3,0.1,0.4,0.2c0.1,0.1,0.1,0.3,0,0.4L9.7,7.7l0.6,3.1c0,0.1,0,0.3-0.1,0.4
			c-0.1,0.1-0.3,0.2-0.4,0.1l-3.2-0.5l-2.8,1.5c-0.1,0-0.1,0.1-0.2,0.1c-0.1,0-0.1,0-0.2,0c-0.1-0.1-0.2-0.2-0.3-0.3L2.7,9l-1-0.9
			C1.3,9.3,1,10.6,1,12C1,18,5.9,23,12,23c6.1,0,11-4.9,11-11c0-1.3-0.3-2.6-0.7-3.8L21.3,9.1z M19.3,15.2c-0.8,3.4-3.8,5.7-7.3,5.7
			c-3.5,0-6.5-2.3-7.3-5.7c0-0.1,0-0.3,0.1-0.4c0.1-0.1,0.2-0.2,0.4-0.2h13.7c0.1,0,0.3,0.1,0.4,0.2C19.3,14.9,19.3,15.1,19.3,15.2z
			"/>
	</g>
</g>
</svg>
