<?xml version="1.0" encoding="utf-8"?>
<!-- Generator: Adobe Illustrator 27.0.1, SVG Export Plug-In . SVG Version: 6.00 Build 0)  -->
<svg version="1.1" id="Line_4" xmlns="http://www.w3.org/2000/svg" xmlns:xlink="http://www.w3.org/1999/xlink" x="0px" y="0px"
	 viewBox="0 0 36 36" style="enable-background:new 0 0 36 36;" xml:space="preserve">
<style type="text/css">
	.st0{fill:#62ACAC;}
</style>
<g id="_x33__18_">
	<g>
		<path class="st0" d="M18,2C9.2,2,2,8.3,2,16c0,4.4,2.3,8.4,6,10.9V34l7-4.3c1,0.2,2,0.3,3,0.3c8.8,0,16-6.3,16-14
			C34,8.3,26.8,2,18,2z M10,18c-1.1,0-2-0.9-2-2s0.9-2,2-2s2,0.9,2,2S11.1,18,10,18z M18,18c-1.1,0-2-0.9-2-2s0.9-2,2-2s2,0.9,2,2
			S19.1,18,18,18z M26,18c-1.1,0-2-0.9-2-2s0.9-2,2-2s2,0.9,2,2S27.1,18,26,18z"/>
	</g>
</g>
</svg>
