<?xml version="1.0" encoding="utf-8"?>
<!-- Generator: Adobe Illustrator 27.0.1, SVG Export Plug-In . SVG Version: 6.00 Build 0)  -->
<svg version="1.1" id="Line_2" xmlns="http://www.w3.org/2000/svg" xmlns:xlink="http://www.w3.org/1999/xlink" x="0px" y="0px"
	 viewBox="0 0 20 20" style="enable-background:new 0 0 20 20;" xml:space="preserve">
<style type="text/css">
	.st0{fill:#FFFFFF;}
</style>
<g id="_x37__20_">
	<g>
		<path class="st0" d="M12.6,16h-0.2L10,13.6L7.6,16H7.4c-1.1,0-1.9-0.9-1.9-1.9V5.9C5.5,4.9,6.3,4,7.4,4h5.2c1.1,0,1.9,0.9,1.9,1.9
			v8.1C14.5,15.1,13.7,16,12.6,16z M10,12.3l2.8,2.8c0.5-0.1,0.8-0.5,0.8-1V5.9c0-0.6-0.5-1-1-1H7.4c-0.6,0-1,0.5-1,1v8.1
			c0,0.5,0.4,0.9,0.8,1L10,12.3z"/>
	</g>
</g>
</svg>
