<svg width="100" height="100" viewBox="0 0 100 100" fill="none" xmlns="http://www.w3.org/2000/svg">
<rect width="100" height="100" rx="50" fill="#888888"/>
<mask id="mask0_16_7257" style="mask-type:alpha" maskUnits="userSpaceOnUse" x="0" y="0" width="100" height="100">
<rect width="100" height="100" fill="#FAFAFA"/>
</mask>
<g mask="url(#mask0_16_7257)">
<path d="M50.0003 22.9163C41.9462 22.9163 35.417 29.4454 35.417 37.4996C35.417 45.5537 41.9462 52.0829 50.0003 52.0829C58.0545 52.0829 64.5837 45.5537 64.5837 37.4996C64.5837 29.4454 58.0545 22.9163 50.0003 22.9163Z" fill="white"/>
<path d="M33.3337 56.2496C27.5807 56.2496 22.917 60.9133 22.917 66.6663C22.917 70.118 25.7152 72.9163 29.167 72.9163H70.8337C74.2854 72.9163 77.0837 70.118 77.0837 66.6663C77.0837 60.9133 72.42 56.2496 66.667 56.2496H33.3337Z" fill="white"/>
</g>
</svg>
