<svg width="36" height="36" viewBox="0 0 36 36" fill="none" xmlns="http://www.w3.org/2000/svg">
<path d="M17.9998 21.275C17.8665 21.275 17.7415 21.2541 17.6248 21.2125C17.5081 21.1708 17.3998 21.1 17.2998 21L12.6998 16.4C12.5165 16.2166 12.4248 15.9833 12.4248 15.7C12.4248 15.4166 12.5165 15.1833 12.6998 15C12.8831 14.8166 13.1165 14.725 13.3998 14.725C13.6831 14.725 13.9165 14.8166 14.0998 15L17.9998 18.9L21.8998 15C22.0831 14.8166 22.3165 14.725 22.5998 14.725C22.8831 14.725 23.1165 14.8166 23.2998 15C23.4831 15.1833 23.5748 15.4166 23.5748 15.7C23.5748 15.9833 23.4831 16.2166 23.2998 16.4L18.6998 21C18.5998 21.1 18.4915 21.1708 18.3748 21.2125C18.2581 21.2541 18.1331 21.275 17.9998 21.275Z" fill="#1C1B1F"/>
</svg>
