<?xml version="1.0" encoding="UTF-8"?>
<svg id="a" xmlns="http://www.w3.org/2000/svg" viewBox="0 0 142 20"><path d="M11.3,0c-3.3,0-5.6,2.8-5.6,5.4,0,2.2,1,4.4,3.4,5.5,1.5.6,4,1.1,4,3.4,0,1.8-2.2,3.2-4.2,3.2h-3.5V7.4s-2.9,0-2.9,0V2.5h2.9V0H0s0,9.9,0,9.9h2.9v10.1s6.7,0,6.7,0c3.2,0,6.1-2.6,6.1-5.9,0-2.9-2.2-4.4-5-5.3-1.8-.6-2.5-1.9-2.5-3.4,0-1.5,1.4-3,3-2.9h7.7s0,4.7,0,4.7h2.4V0s-10.1,0-10.1,0h0Z" fill="#d70c18"/><path d="M16.7,5.9c-1.1-.7-2.6-1.4-4-1.5h0s0,0-.1,0c-.7,0-1.2.5-1.2,1.2,0,.4.2.7.5,1,.1.1.5.3,1,.4,3,.8,5.4,3.6,5.6,6.2.3,4.4-2.8,6.6-2.8,6.6h3.1c1.4-1.3,2.3-3.6,2.2-6.4,0-2.9-1.7-5.8-4.2-7.5Z" fill="#d70c18"/><path d="M38.2,2.5l-1.4,1.4c.4.3,1.2,1,2.4,2.2l-8.8.5c1.2-1.6,2.1-3.1,2.7-4.3l-1.7-1.1c-1.2,2-2.4,3.9-3.8,5.5h-1.6c.2.8.4,1.4.5,2l14.3-1c.5.6,1,1.1,1.5,1.6l1.5-1.3c-1.5-1.7-3.4-3.6-5.7-5.7Z" fill="#464444"/><path d="M41.4,9.7h-12.9c-.4,0-.7.2-.7.7v8h2v-1h10.3v1h2v-8c0-.5-.2-.7-.7-.7ZM40.1,15.5h-10.3v-3.6c0-.2,0-.3.3-.3h9.8c.2,0,.3,0,.3.3v3.6Z" fill="#464444"/><path d="M57.4,4.2c0-.2,0-.3.3-.3,1.8,0,3.5-.2,5-.4l-.6-1.9c-1.8.3-3.8.5-6.1.5-.3,0-.5.2-.5.6v8.3c0,1-.2,1.9-.5,2.8-.4,1-1.2,2.2-2.5,3.5l1.5,1.4c1.2-1.3,2.1-2.6,2.6-4,.4-1,.6-2.3.7-3.7v-2.5h0s2,0,2,0v10.2h1.9v-10.2h1.6v-1.8h-5.5v-2.5Z" fill="#464444"/><polygon points="54.6 2.8 51.7 2.8 51.7 1.6 49.8 1.6 49.8 2.8 46.3 2.8 46.3 4.5 54.6 4.5 54.6 2.8" fill="#464444"/><path d="M54.4,14.7c-.7-.8-1.4-1.5-2.2-2.3h2.5v-1.8h-3.2v-1.3h3.2v-1.8h-1.7c.4-.9.7-1.7.9-2.4l-1.7-.6c-.2.8-.6,1.8-1.2,3h-2.3l1.1-.5c-.4-1-.8-1.8-1.2-2.5l-1.5.8c.3.5.7,1.2,1.1,2.2h-2.1v1.8h3.6v1.3h-3.6v1.8h2.9c-.9,1.4-2,2.6-3.5,3.8l1.6,1c.9-.8,1.8-1.9,2.6-3.1v4.5h1.8v-4.6c.6.7,1.1,1.3,1.6,1.9l1.3-1.3Z" fill="#464444"/><path d="M76.9,4.2c0-.2,0-.3.3-.3,1.8,0,3.5-.2,5-.4l-.6-1.9c-1.8.3-3.8.5-6.1.5-.3,0-.5.2-.5.6v8.3c0,1-.2,1.9-.5,2.8-.4,1-1.2,2.2-2.5,3.5l1.5,1.4c1.2-1.3,2.1-2.6,2.6-4,.4-1,.6-2.3.7-3.7v-2.5h0s2,0,2,0v10.2h1.9v-10.2h1.6v-1.8h-5.5v-2.5Z" fill="#464444"/><path d="M74,14.7c-.7-.8-1.4-1.5-2.2-2.3h2.5v-1.8h-3.2v-1.3h3.2v-1.8h-1.7c.4-.9.7-1.7.9-2.4l-1.7-.6c-.2.8-.6,1.8-1.2,3h-2.3l1.1-.5c-.4-1-.8-1.8-1.2-2.5l-1.5.8c.3.5.7,1.2,1.1,2.2h-2.1v1.8h3.6v1.3h-3.6v1.8h2.9c-.9,1.4-2,2.6-3.5,3.8l1.6,1c.9-.8,1.8-1.9,2.6-3.1v4.5h1.8v-4.6c.6.7,1.1,1.3,1.6,1.9l1.3-1.3Z" fill="#464444"/><polygon points="74.2 2.8 71.3 2.8 71.3 1.6 69.3 1.6 69.3 2.8 65.9 2.8 65.9 4.5 74.2 4.5 74.2 2.8" fill="#464444"/><path d="M100.7,3.4h0l-1.7-.9c-.5,1.2-1.3,2.6-2.5,4.3l1.7,1c1.2-1.6,2-3.1,2.6-4.4Z" fill="#464444"/><path d="M100.4,16.1c0,.2,0,.4-.2.4-.2.2-.4.2-.6.2h-1.9c-.3,0-.5,0-.7-.2-.1-.2-.2-.4-.2-.6v-5.7h4.9v-1.9h-7.1V1.8h-2v6.5h-7.2v1.9h4.6c0,2.3-.4,3.9-1.1,4.8-.9,1.2-2.2,1.8-4.1,2.1l1.2,1.7c1.3-.3,2.3-.7,3-1.2.6-.4,1.2-1,1.7-1.8.7-1.3,1.1-3.1,1.2-5.5h0c0-.1,2.9-.1,2.9-.1v7c0,.3.1.6.4.9.3.3.6.5,1,.5h4.1c.4,0,.9-.3,1.4-.8.3-.3.4-1.8.5-4.5l-1.9-.3c0,1.4,0,2.4,0,2.9Z" fill="#464444"/><path d="M90.8,7c-.9-1.8-1.8-3.2-2.6-4.4h0s-1.6,1-1.6,1c.8,1,1.6,2.4,2.6,4.3l1.7-.9Z" fill="#464444"/><path d="M139.2,12.7v-1.3c.3.3.6.6,1,.9l1.5-1.1c-1.1-.8-1.9-1.5-2.4-2.3-.5-.8-.9-1.7-1.1-2.8,0-.2-.2-.3-.4-.3h-4.6v1.8h3.6c.1,0,.2,0,.2.3.4,1.3.9,2.2,1.5,2.9h-7s0,0,0-.1c.5-.7.9-1.6,1.3-2.7l-1.7-.6c-.5,1.6-1.4,2.9-2.7,4.2l1.6,1c.4-.4.8-.8,1.2-1.4v1.5h3,0v3.9h-5.1v1.8h11.9v-1.8h-4.9v-3.9h2.8Z" fill="#464444"/><path d="M128.5,8.6c-.2.2-.4.3-.6.5v-2.5h1.1v-1.8h-1.1V1.9h-1.8v3h-1.8v1.8h1.8,0v3.6c-.6.3-1.4.7-2.3,1.1l.9,1.6c.4-.2.9-.5,1.4-.7v4.2c0,0,0,.2-.2.3-.1,0-.6,0-1.5-.2v1.9c1.6.4,2.6.3,3.3-.2.2-.2.3-.4.3-.7v-6.3c.7-.4,1.3-.8,1.9-1.3l-1.2-1.4Z" fill="#464444"/><path d="M141.3,2.9h-4.9v-1.3h-1.9,0v1.3h-4.6c-.2,0-.4.1-.4.4v3.8h1.9v-2.1c0-.1,0-.2.2-.2h8c.2,0,.3,0,.2.3-.2.7-.4,1.3-.6,1.9.6.2,1.2.4,1.8.6.5-1.3.8-2.5,1-3.8,0-.6-.2-.9-.7-.9Z" fill="#464444"/><path d="M119.1,8.3v-1.2c.9.4,1.7.7,2.4.9l1-1.9c-2.7-.9-5.5-2.4-8.3-4.7h-1.5c-2.5,2.2-5.3,3.7-8.3,4.8l1.1,1.9c.8-.2,1.7-.6,2.7-1v1.2h4.4v1.8h-7.4v1.9h7.4v4.6h-1.9c-.7-1.5-1.8-3.5-2.5-4.4l-1.6,1c.6.8,1.3,1.9,2,3.4h-3v1.9h16v-1.9h-2.9c.5-.9,1-2.1,1.7-3.4l-1.7-.9c-.3.9-1.1,2.4-2.2,4.3h0s-1.9,0-1.9,0v-4.6h7.2v-1.9h-7.2v-1.8h4.6ZM109.6,6.4s0,0,0,0c1.3-.8,2.6-1.6,3.8-2.6.7.6,2.1,1.5,4.1,2.7h-8.1Z" fill="#464444"/></svg>