<svg width="24" height="24" viewBox="0 0 24 24" fill="none" xmlns="http://www.w3.org/2000/svg">
<path d="M12 1.5C17.799 1.5 22.5 6.20101 22.5 12C22.5 17.799 17.799 22.5 12 22.5C6.20101 22.5 1.5 17.799 1.5 12C1.5 6.20101 6.20101 1.5 12 1.5ZM12 3.5C7.30558 3.5 3.5 7.30558 3.5 12C3.5 16.6944 7.30558 20.5 12 20.5C16.6944 20.5 20.5 16.6944 20.5 12C20.5 7.30558 16.6944 3.5 12 3.5ZM13 6.37207C13.4486 6.42869 13.8432 6.54549 14.1826 6.72559C14.6876 6.9882 15.1318 7.32715 15.5156 7.74121L14.3945 9.0293C14.0815 8.73646 13.7782 8.51937 13.4854 8.37793C13.1925 8.22644 12.8489 8.15043 12.4551 8.15039C12.0107 8.15039 11.6673 8.25669 11.4248 8.46875C11.1824 8.67081 11.0605 8.98399 11.0605 9.4082C11.0607 9.67051 11.1414 9.89808 11.3027 10.0898C11.4744 10.2817 11.6971 10.454 11.9697 10.6055C12.2424 10.757 12.5411 10.9136 12.8643 11.0752C13.1974 11.2266 13.5256 11.3935 13.8486 11.5752C14.1818 11.757 14.4852 11.9742 14.7578 12.2266C15.0305 12.469 15.2486 12.7676 15.4102 13.1211C15.5816 13.4644 15.667 13.8788 15.667 14.3633C15.6669 15.0096 15.5259 15.5858 15.2432 16.0908C14.9705 16.5856 14.5563 16.975 14.001 17.2578C13.7048 17.4114 13.3706 17.5216 13 17.5918V19.3486H11.5V17.6504C11.2713 17.6233 11.0337 17.5799 10.7881 17.5156C10.3639 17.4045 9.94895 17.2524 9.54492 17.0605C9.15119 16.8586 8.80292 16.6157 8.5 16.333L9.48438 14.8184C9.89842 15.1516 10.308 15.409 10.7119 15.5908C11.126 15.7726 11.551 15.8633 11.9854 15.8633C12.5205 15.8632 12.9099 15.7524 13.1523 15.5303C13.4046 15.298 13.5302 14.9643 13.5303 14.5303C13.5303 14.2374 13.4496 13.9846 13.2881 13.7725C13.1265 13.5604 12.9038 13.368 12.6211 13.1963C12.3485 13.0247 12.0506 12.8578 11.7275 12.6963C11.4043 12.5246 11.0755 12.3478 10.7422 12.166C10.4191 11.9843 10.1157 11.7716 9.83301 11.5293C9.56048 11.287 9.34321 11.0037 9.18164 10.6807C9.02014 10.3474 8.9395 9.95334 8.93945 9.49902C8.93945 8.86269 9.07597 8.30679 9.34863 7.83203C9.63148 7.35734 10.0253 6.98821 10.5303 6.72559C10.8239 6.57593 11.1474 6.47063 11.5 6.40625V4.64941H13V6.37207Z" fill="white"/>
</svg>
