<svg width="16" height="16" viewBox="0 0 16 16" fill="none" xmlns="http://www.w3.org/2000/svg">
<g clip-path="url(#clip0_2114_3924)">
<rect width="16" height="16" fill="white" fill-opacity="0.01"/>
<path d="M3 6.49921C3.39782 6.49921 3.77925 6.65736 4.06055 6.93866C4.34185 7.21996 4.5 7.60138 4.5 7.99921C4.5 8.39703 4.34185 8.77845 4.06055 9.05975C3.77925 9.34106 3.39782 9.4992 3 9.49921C2.60218 9.49921 2.22076 9.34105 1.93945 9.05975C1.65815 8.77845 1.5 8.39703 1.5 7.99921C1.5 7.60138 1.65815 7.21996 1.93945 6.93866C2.22076 6.65736 2.60218 6.49921 3 6.49921ZM8 6.49921C8.39782 6.49921 8.77924 6.65736 9.06055 6.93866C9.34185 7.21996 9.5 7.60138 9.5 7.99921C9.5 8.39703 9.34185 8.77845 9.06055 9.05975C8.77924 9.34106 8.39782 9.4992 8 9.49921C7.60218 9.49921 7.22076 9.34105 6.93945 9.05975C6.65815 8.77845 6.5 8.39703 6.5 7.99921C6.5 7.60138 6.65815 7.21996 6.93945 6.93866C7.22076 6.65736 7.60218 6.49921 8 6.49921ZM13 6.49921C13.3978 6.49921 13.7792 6.65736 14.0605 6.93866C14.3418 7.21996 14.5 7.60138 14.5 7.99921C14.5 8.39703 14.3418 8.77845 14.0605 9.05975C13.7792 9.34106 13.3978 9.4992 13 9.49921C12.6022 9.49921 12.2208 9.34105 11.9395 9.05975C11.6581 8.77845 11.5 8.39703 11.5 7.99921C11.5 7.60138 11.6581 7.21996 11.9395 6.93866C12.2208 6.65736 12.6022 6.49921 13 6.49921Z" fill="#888888"/>
</g>
<defs>
<clipPath id="clip0_2114_3924">
<rect width="16" height="16" fill="white"/>
</clipPath>
</defs>
</svg>
