<svg width="100" height="100" viewBox="0 0 100 100" fill="none" xmlns="http://www.w3.org/2000/svg">
<path d="M49 29.5V4C49 4 72.0713 5.27683 84.5 25.5C96.9287 45.7232 84.5 73 84.5 73L62 58.5C62 58.5 70 50.5 63.5 37.5C59.9197 30.3394 49 29.5 49 29.5Z" fill="#DC3545"/>
<path d="M47.917 3.06738C72.7801 3.06738 92.9313 23.2247 92.9316 48.084C92.9316 57.7845 89.8629 66.77 84.6455 74.1182C84.0065 75.0182 82.759 75.2309 81.8584 74.5928L79.2275 72.7285C71.9324 81.9849 60.6171 87.9325 47.9131 87.9326C25.9078 87.9326 8.06758 70.0911 8.06738 48.085C8.06738 26.7479 24.8431 9.32632 45.917 8.28613V5.06738C45.9172 3.96309 46.8127 3.06749 47.917 3.06738ZM12.124 50.085C13.1619 68.9519 28.7883 83.9326 47.9131 83.9326C59.266 83.9325 69.386 78.6552 75.958 70.4121L63.3076 61.4492C59.4367 65.9036 53.6733 68.6505 47.3145 68.4629C36.9408 68.1566 28.607 60.1505 27.6289 50.085H12.124ZM49.917 27.8027C60.4942 28.8355 68.6079 37.9071 68.29 48.6885C68.188 52.1471 67.2277 55.3783 65.623 58.1865L82.499 70.1445C86.5695 63.777 88.9316 56.211 88.9316 48.084C88.9313 26.1038 71.6413 8.15933 49.917 7.11621V27.8027ZM48.3994 31.7109C39.3555 31.4441 31.8069 38.5598 31.54 47.6045C31.2733 56.6492 38.3887 64.1979 47.4326 64.4648C56.4765 64.7317 64.0249 57.6158 64.292 48.5713C64.5588 39.5267 57.4432 31.978 48.3994 31.7109ZM48.0732 34.6201C49.1777 34.6201 50.073 35.5157 50.0732 36.6201V38.4004C50.3361 38.4487 50.5898 38.5056 50.8311 38.5684C51.8134 38.8241 52.8242 39.238 53.5137 39.7764C54.384 40.4562 54.5389 41.7135 53.8594 42.584C53.1795 43.4545 51.9223 43.6086 51.0518 42.9287C51.0504 42.9277 51.0418 42.9219 51.0254 42.9111C51.007 42.899 50.981 42.8824 50.9473 42.8633C50.8789 42.8246 50.7877 42.7786 50.6738 42.7285C50.4443 42.6277 50.1532 42.5254 49.8232 42.4395C49.1458 42.2631 48.4257 42.1889 47.8262 42.2627H47.8252C46.5598 42.4177 46.1863 43.2775 46.1914 43.6768L46.1963 43.7822C46.2176 44.023 46.3063 44.2289 46.5635 44.4893C46.8806 44.8104 47.4528 45.2023 48.4551 45.6475L48.9111 45.8418L48.9131 45.8428C50.7136 46.579 52.2738 47.4636 53.3145 48.665C54.4557 49.9827 54.8654 51.5591 54.5361 53.2725C54.3196 54.4021 53.7147 55.5349 52.6533 56.3975C51.9413 56.976 51.0744 57.3906 50.0732 57.626V59.5537C50.073 60.6581 49.1777 61.5537 48.0732 61.5537C46.969 61.5535 46.0735 60.658 46.0732 59.5537V57.6143C44.3724 57.2273 42.866 56.4254 41.9131 55.6494C41.0567 54.9519 40.9276 53.6924 41.625 52.8359C42.3224 51.9798 43.5821 51.8508 44.4385 52.5479C45.2277 53.1906 46.8542 53.9163 48.3057 53.8477H48.3076C49.3024 53.8017 49.8462 53.5251 50.1309 53.2939C50.4174 53.0611 50.5572 52.7815 50.6074 52.5195L50.6084 52.5176C50.7108 51.9845 50.6142 51.6563 50.291 51.2832C49.8671 50.794 49.004 50.2014 47.4014 49.5459C45.9071 48.9368 44.6339 48.2294 43.7168 47.3008C42.7311 46.3027 42.2142 45.1042 42.1914 43.7432V43.7422C42.1573 41.5831 43.6024 39.3938 46.0732 38.5762V36.6201C46.0735 35.5158 46.9689 34.6203 48.0732 34.6201ZM45.917 12.292C27.715 13.2916 13.1255 27.8787 12.124 46.085H27.6318C28.5811 36.3706 36.3101 28.7342 45.917 27.7998V12.292Z" fill="#DC3545"/>
</svg>
