<svg width="100" height="100" viewBox="0 0 100 100" fill="none" xmlns="http://www.w3.org/2000/svg">
<path d="M75 54C85.4934 54 94 62.5066 94 73C94 83.4934 85.4934 92 75 92C64.5067 91.9999 56 83.4934 56 73C56 62.5066 64.5067 54.0001 75 54ZM75 57.9062C66.664 57.9063 59.9063 64.664 59.9062 73C59.9062 81.336 66.664 88.0937 75 88.0938C83.336 88.0938 90.0938 81.336 90.0938 73C90.0937 64.664 83.336 57.9062 75 57.9062ZM73.75 9C78.3062 9 81.9998 12.7308 82 17.333V52.79C80.7356 52.0477 79.3519 51.4955 77.875 51.1406V17.333C77.8748 15.032 76.0281 13.167 73.75 13.167H24.25C21.9719 13.167 20.1252 15.032 20.125 17.333V75.667C20.1252 77.968 21.9719 79.833 24.25 79.833H53.1494C53.2551 81.3136 53.7029 82.7414 54.4297 84H24.25C19.6938 84 16.0002 80.2692 16 75.667V17.333C16.0002 12.7308 19.6938 9 24.25 9H73.75ZM74.623 62C75.3711 62 76.0058 62.6064 76.0059 63.3545V65.1621C76.7282 65.2582 77.388 65.4075 77.9844 65.6084C78.2825 65.7045 78.7981 65.9502 79.3018 66.2051C80.0738 66.5959 80.6264 67.4328 80.291 68.2305C79.9243 69.1026 78.8022 69.216 77.9043 68.918C77.3444 68.7321 76.7888 68.5653 76.4844 68.4785C75.8713 68.3038 75.3082 68.2158 74.7959 68.2158C74.3174 68.2159 73.9478 68.3167 73.6875 68.5176C73.4356 68.7185 73.3096 68.9854 73.3096 69.3174C73.3096 69.6753 73.4229 69.9504 73.6494 70.1426C73.8846 70.3348 74.2206 70.5147 74.6572 70.6807L76.749 71.5059C77.7318 71.899 78.5261 72.4713 79.1309 73.2227C79.744 73.974 80.0507 74.9308 80.0508 76.0928C80.0508 77.2898 79.6558 78.282 78.8662 79.0684C78.085 79.8546 77.0517 80.3479 75.7666 80.5488V82.3506C75.7666 83.102 75.266 83.7117 74.5146 83.7119C73.7631 83.7118 73.0449 83.1021 73.0449 82.3506V80.4971C72.205 80.366 71.4235 80.1555 70.7012 79.8672C70.588 79.8201 70.4676 79.7668 70.3457 79.71C69.5724 79.3494 69.2808 78.4178 69.6436 77.6455C70.0401 76.8016 71.06 76.4721 71.9092 76.8574C72.0954 76.9419 72.2743 77.0181 72.4277 77.0762C73.1752 77.3469 73.8557 77.4864 74.4688 77.4951C74.9811 77.5038 75.3847 77.3951 75.6787 77.168C75.981 76.9321 76.1318 76.6128 76.1318 76.2109C76.1402 75.9314 76.052 75.6516 75.8672 75.3721C75.6908 75.0926 75.3506 74.8562 74.8467 74.6641L72.6797 73.8252C71.781 73.4757 71.0124 72.9735 70.374 72.3184C69.7357 71.6631 69.416 70.8023 69.416 69.7363C69.4161 68.5134 69.7812 67.5 70.5117 66.6963C71.2509 65.8837 72.1797 65.3718 73.2969 65.1621V63.3545C73.2969 62.6065 73.875 62.0001 74.623 62ZM49 27.75C50.139 27.75 51.0623 28.6826 51.0625 29.833V31.917C53.3406 31.917 55.1873 33.782 55.1875 36.083V52.75C55.1875 55.0512 53.3407 56.917 51.0625 56.917V59C51.0625 60.1506 50.1391 61.083 49 61.083C47.8609 61.083 46.9375 60.1506 46.9375 59V56.917C44.6593 56.917 42.8125 55.0512 42.8125 52.75V36.083C42.8127 33.782 44.6594 31.917 46.9375 31.917V29.833C46.9377 28.6826 47.861 27.75 49 27.75ZM32.5 23.583C33.6391 23.583 34.5625 24.5164 34.5625 25.667V27.75C36.8407 27.75 38.6875 29.6158 38.6875 31.917V44.417C38.6873 46.718 36.8406 48.583 34.5625 48.583V50.667C34.5623 51.8174 33.639 52.75 32.5 52.75C31.361 52.75 30.4377 51.8174 30.4375 50.667V48.583C28.1594 48.583 26.3127 46.718 26.3125 44.417V31.917C26.3125 29.6158 28.1593 27.75 30.4375 27.75V25.667C30.4375 24.5164 31.3609 23.583 32.5 23.583ZM46.9375 52.75H51.0625V36.083H46.9375V52.75ZM65.5 19.417C66.6391 19.417 67.5625 20.3494 67.5625 21.5V23.583C69.8407 23.583 71.6875 25.4488 71.6875 27.75V40.25C71.6875 42.5512 69.8407 44.417 67.5625 44.417V46.5C67.5625 47.6506 66.6391 48.583 65.5 48.583C64.3609 48.583 63.4375 47.6506 63.4375 46.5V44.417C61.1593 44.417 59.3125 42.5512 59.3125 40.25V27.75C59.3125 25.4488 61.1593 23.583 63.4375 23.583V21.5C63.4375 20.3494 64.3609 19.417 65.5 19.417ZM30.4375 44.417H34.5625V31.917H30.4375V44.417ZM63.4375 40.25H67.5625V27.75H63.4375V40.25Z" fill="#DC3545"/>
</svg>
