<svg width="100" height="100" viewBox="0 0 100 100" fill="none" xmlns="http://www.w3.org/2000/svg">
<mask id="mask0_602_3120" style="mask-type:alpha" maskUnits="userSpaceOnUse" x="0" y="0" width="100" height="100">
<rect width="100" height="100" fill="#D9D9D9"/>
</mask>
<g mask="url(#mask0_602_3120)">
<path fill-rule="evenodd" clip-rule="evenodd" d="M31.3225 29.8095C28.9778 29.8095 26.8789 31.2686 26.0557 33.471L17.5806 56.1429H30.9733C33.1685 56.1429 35.2737 57.0176 36.8258 58.5747C37.6747 59.4263 38.8261 59.9048 40.0267 59.9048H57.2233C58.4239 59.9048 59.5753 59.4263 60.4242 58.5747C61.9763 57.0176 64.0815 56.1429 66.2766 56.1429H83.4194L74.9444 33.471C74.1211 31.2686 72.0222 29.8095 69.6775 29.8095H31.3225ZM84.25 59.9048H66.2766C65.0761 59.9048 63.9247 60.3832 63.0758 61.2348C61.5237 62.7919 59.4185 63.6667 57.2233 63.6667H40.0267C37.8315 63.6667 35.7263 62.7919 34.1742 61.2348C33.3253 60.3832 32.1739 59.9048 30.9733 59.9048H16.75V80.5952C16.75 83.7117 19.2684 86.2381 22.375 86.2381H78.625C81.7316 86.2381 84.25 83.7117 84.25 80.5952V59.9048ZM22.5444 32.1501C23.9166 28.4794 27.4146 26.0476 31.3225 26.0476H69.6775C73.5854 26.0476 77.0834 28.4794 78.4556 32.1501L88 57.6827V80.5952C88 85.7893 83.8027 90 78.625 90H22.375C17.1973 90 13 85.7893 13 80.5952V57.6827L22.5444 32.1501Z" fill="#CCCCCC"/>
<path fill-rule="evenodd" clip-rule="evenodd" d="M50.5 11C51.5355 11 52.375 11.8421 52.375 12.881V20.4048C52.375 21.4436 51.5355 22.2857 50.5 22.2857C49.4645 22.2857 48.625 21.4436 48.625 20.4048V12.881C48.625 11.8421 49.4645 11 50.5 11Z" fill="#CCCCCC"/>
<path fill-rule="evenodd" clip-rule="evenodd" d="M70.5758 12.9282C71.3081 13.6628 71.3081 14.8537 70.5758 15.5883L65.2725 20.9084C64.5403 21.643 63.3531 21.643 62.6209 20.9084C61.8886 20.1739 61.8886 18.9829 62.6209 18.2484L67.9242 12.9282C68.6564 12.1937 69.8436 12.1937 70.5758 12.9282Z" fill="#CCCCCC"/>
<path fill-rule="evenodd" clip-rule="evenodd" d="M30.4242 12.9282C29.6919 13.6628 29.6919 14.8537 30.4242 15.5883L35.7275 20.9084C36.4597 21.643 37.6469 21.643 38.3791 20.9084C39.1114 20.1739 39.1114 18.9829 38.3791 18.2484L33.0758 12.9282C32.3436 12.1937 31.1564 12.1937 30.4242 12.9282Z" fill="#CCCCCC"/>
<path d="M43 69.3095C43 70.3483 42.1605 71.1905 41.125 71.1905C40.0895 71.1905 39.25 70.3483 39.25 69.3095C39.25 68.2707 40.0895 67.4286 41.125 67.4286C42.1605 67.4286 43 68.2707 43 69.3095Z" fill="#CCCCCC"/>
<path d="M61.75 69.3095C61.75 70.3483 60.9105 71.1905 59.875 71.1905C58.8395 71.1905 58 70.3483 58 69.3095C58 68.2707 58.8395 67.4286 59.875 67.4286C60.9105 67.4286 61.75 68.2707 61.75 69.3095Z" fill="#CCCCCC"/>
<path fill-rule="evenodd" clip-rule="evenodd" d="M50.5 76.8333C49.4645 76.8333 48.625 77.6755 48.625 78.7143C48.625 79.7531 49.4645 80.5952 50.5 80.5952C51.5355 80.5952 52.375 79.7531 52.375 78.7143C52.375 77.6755 51.5355 76.8333 50.5 76.8333ZM44.875 78.7143C44.875 75.5978 47.3934 73.0714 50.5 73.0714C53.6066 73.0714 56.125 75.5978 56.125 78.7143C56.125 81.8307 53.6066 84.3571 50.5 84.3571C47.3934 84.3571 44.875 81.8307 44.875 78.7143Z" fill="#CCCCCC"/>
</g>
</svg>
