<svg width="30" height="30" viewBox="0 0 30 30" fill="none" xmlns="http://www.w3.org/2000/svg">
<path fill-rule="evenodd" clip-rule="evenodd" d="M18.335 11.5709C18.4939 11.6626 18.4939 11.8918 18.3351 11.9835L10.4736 16.523C10.3148 16.6147 10.1162 16.5001 10.1162 16.3167V13.9217C10.1162 13.7901 10.0096 13.6835 9.87798 13.6835H2.25484C2.12326 13.6835 2.0166 13.5768 2.0166 13.4452V10.1102C2.0166 9.97859 2.12326 9.87193 2.25484 9.87193H9.87798C10.0096 9.87193 10.1162 9.76527 10.1162 9.63369V7.23865C10.1162 7.05526 10.3147 6.94064 10.4736 7.03233L18.335 11.5709Z" fill="#ED5565"/>
<path fill-rule="evenodd" clip-rule="evenodd" d="M11.665 18.0159C11.5061 18.1076 11.5061 18.3369 11.6649 18.4286L19.5264 22.968C19.6852 23.0597 19.8838 22.9451 19.8838 22.7617V20.3667C19.8838 20.2351 19.9904 20.1285 20.122 20.1285H27.7452C27.8767 20.1285 27.9834 20.0218 27.9834 19.8903V16.5552C27.9834 16.4236 27.8767 16.317 27.7452 16.317H20.122C19.9904 16.317 19.8838 16.2103 19.8838 16.0787V13.6837C19.8838 13.5003 19.6853 13.3857 19.5264 13.4774L11.665 18.0159Z" fill="#FFCCD1"/>
</svg>
