<svg width="16" height="16" viewBox="0 0 16 16" fill="none" xmlns="http://www.w3.org/2000/svg">
<path d="M9.40722 5.06942V1.95195L12.7977 5.34242L15.5161 8.06085L12.7494 10.3665L9.40722 13.1519V10.1015C3.53963 9.6592 1.48388 13.0547 1.48388 13.0547C1.48388 10.9392 1.65819 8.74369 3.32137 7.08123C5.25467 5.14722 8.05449 5.01036 9.40722 5.06942Z" fill="white"/>
<path d="M9.40722 5.06942V1.95195L12.7977 5.34242L15.5161 8.06085L12.7494 10.3665L9.40722 13.1519V10.1015C3.53963 9.6592 1.48388 13.0547 1.48388 13.0547C1.48388 10.9392 1.65819 8.74369 3.32137 7.08123C5.25467 5.14722 8.05449 5.01036 9.40722 5.06942Z" fill="#007D7D"/>
</svg>
