<svg width="24" height="24" viewBox="0 0 24 24" fill="none" xmlns="http://www.w3.org/2000/svg">
<path d="M12.0795 17C12.2932 17 12.4709 16.9281 12.6125 16.7843C12.7542 16.6406 12.825 16.4625 12.825 16.25V11.75C12.825 11.5375 12.7526 11.3593 12.608 11.2155C12.4635 11.0718 12.2844 11 12.0705 11C11.8569 11 11.6792 11.0718 11.5375 11.2155C11.3959 11.3593 11.325 11.5375 11.325 11.75V16.25C11.325 16.4625 11.3973 16.6406 11.542 16.7843C11.6865 16.9281 11.8657 17 12.0795 17ZM11.9995 9.15C12.2332 9.15 12.4291 9.07335 12.5875 8.92C12.7458 8.76665 12.825 8.57665 12.825 8.35C12.825 8.10915 12.746 7.90735 12.588 7.7445C12.43 7.5815 12.2341 7.5 12.0005 7.5C11.7668 7.5 11.5709 7.5815 11.4125 7.7445C11.2542 7.90735 11.175 8.10915 11.175 8.35C11.175 8.57665 11.254 8.76665 11.412 8.92C11.57 9.07335 11.7659 9.15 11.9995 9.15ZM12.0068 22C10.6278 22 9.3319 21.7375 8.11925 21.2125C6.9064 20.6875 5.84585 19.9708 4.9375 19.0625C4.02917 18.1542 3.3125 17.093 2.7875 15.879C2.2625 14.665 2 13.3679 2 11.9875C2 10.6072 2.2625 9.31 2.7875 8.096C3.3125 6.882 4.02917 5.825 4.9375 4.925C5.84585 4.025 6.907 3.3125 8.121 2.7875C9.335 2.2625 10.6321 2 12.0125 2C13.3928 2 14.69 2.2625 15.904 2.7875C17.118 3.3125 18.175 4.025 19.075 4.925C19.975 5.825 20.6875 6.88335 21.2125 8.1C21.7375 9.31665 22 10.6144 22 11.9932C22 13.3722 21.7375 14.6681 21.2125 15.8807C20.6875 17.0936 19.975 18.1527 19.075 19.058C18.175 19.9632 17.1166 20.6799 15.9 21.208C14.6833 21.736 13.3856 22 12.0068 22ZM12.0125 20.5C14.3708 20.5 16.375 19.6709 18.025 18.0125C19.675 16.3542 20.5 14.3459 20.5 11.9875C20.5 9.62915 19.6766 7.625 18.0298 5.975C16.3829 4.325 14.373 3.5 12 3.5C9.65 3.5 7.64585 4.32342 5.9875 5.97025C4.32917 7.6171 3.5 9.627 3.5 12C3.5 14.35 4.32917 16.3542 5.9875 18.0125C7.64585 19.6709 9.65415 20.5 12.0125 20.5Z" fill="#007D7D"/>
<path d="M12.0795 17C12.2932 17 12.4709 16.9281 12.6125 16.7843C12.7542 16.6406 12.825 16.4625 12.825 16.25V11.75C12.825 11.5375 12.7526 11.3593 12.608 11.2155C12.4635 11.0718 12.2844 11 12.0705 11C11.8569 11 11.6792 11.0718 11.5375 11.2155C11.3959 11.3593 11.325 11.5375 11.325 11.75V16.25C11.325 16.4625 11.3973 16.6406 11.542 16.7843C11.6865 16.9281 11.8657 17 12.0795 17ZM11.9995 9.15C12.2332 9.15 12.4291 9.07335 12.5875 8.92C12.7458 8.76665 12.825 8.57665 12.825 8.35C12.825 8.10915 12.746 7.90735 12.588 7.7445C12.43 7.5815 12.2341 7.5 12.0005 7.5C11.7668 7.5 11.5709 7.5815 11.4125 7.7445C11.2542 7.90735 11.175 8.10915 11.175 8.35C11.175 8.57665 11.254 8.76665 11.412 8.92C11.57 9.07335 11.7659 9.15 11.9995 9.15ZM12.0068 22C10.6278 22 9.3319 21.7375 8.11925 21.2125C6.9064 20.6875 5.84585 19.9708 4.9375 19.0625C4.02917 18.1542 3.3125 17.093 2.7875 15.879C2.2625 14.665 2 13.3679 2 11.9875C2 10.6072 2.2625 9.31 2.7875 8.096C3.3125 6.882 4.02917 5.825 4.9375 4.925C5.84585 4.025 6.907 3.3125 8.121 2.7875C9.335 2.2625 10.6321 2 12.0125 2C13.3928 2 14.69 2.2625 15.904 2.7875C17.118 3.3125 18.175 4.025 19.075 4.925C19.975 5.825 20.6875 6.88335 21.2125 8.1C21.7375 9.31665 22 10.6144 22 11.9932C22 13.3722 21.7375 14.6681 21.2125 15.8807C20.6875 17.0936 19.975 18.1527 19.075 19.058C18.175 19.9632 17.1166 20.6799 15.9 21.208C14.6833 21.736 13.3856 22 12.0068 22ZM12.0125 20.5C14.3708 20.5 16.375 19.6709 18.025 18.0125C19.675 16.3542 20.5 14.3459 20.5 11.9875C20.5 9.62915 19.6766 7.625 18.0298 5.975C16.3829 4.325 14.373 3.5 12 3.5C9.65 3.5 7.64585 4.32342 5.9875 5.97025C4.32917 7.6171 3.5 9.627 3.5 12C3.5 14.35 4.32917 16.3542 5.9875 18.0125C7.64585 19.6709 9.65415 20.5 12.0125 20.5Z" fill="#5DAAAA"/>
<path d="M12.0795 17C12.2932 17 12.4709 16.9281 12.6125 16.7843C12.7542 16.6406 12.825 16.4625 12.825 16.25V11.75C12.825 11.5375 12.7526 11.3593 12.608 11.2155C12.4635 11.0718 12.2844 11 12.0705 11C11.8569 11 11.6792 11.0718 11.5375 11.2155C11.3959 11.3593 11.325 11.5375 11.325 11.75V16.25C11.325 16.4625 11.3973 16.6406 11.542 16.7843C11.6865 16.9281 11.8657 17 12.0795 17ZM11.9995 9.15C12.2332 9.15 12.4291 9.07335 12.5875 8.92C12.7458 8.76665 12.825 8.57665 12.825 8.35C12.825 8.10915 12.746 7.90735 12.588 7.7445C12.43 7.5815 12.2341 7.5 12.0005 7.5C11.7668 7.5 11.5709 7.5815 11.4125 7.7445C11.2542 7.90735 11.175 8.10915 11.175 8.35C11.175 8.57665 11.254 8.76665 11.412 8.92C11.57 9.07335 11.7659 9.15 11.9995 9.15ZM12.0068 22C10.6278 22 9.3319 21.7375 8.11925 21.2125C6.9064 20.6875 5.84585 19.9708 4.9375 19.0625C4.02917 18.1542 3.3125 17.093 2.7875 15.879C2.2625 14.665 2 13.3679 2 11.9875C2 10.6072 2.2625 9.31 2.7875 8.096C3.3125 6.882 4.02917 5.825 4.9375 4.925C5.84585 4.025 6.907 3.3125 8.121 2.7875C9.335 2.2625 10.6321 2 12.0125 2C13.3928 2 14.69 2.2625 15.904 2.7875C17.118 3.3125 18.175 4.025 19.075 4.925C19.975 5.825 20.6875 6.88335 21.2125 8.1C21.7375 9.31665 22 10.6144 22 11.9932C22 13.3722 21.7375 14.6681 21.2125 15.8807C20.6875 17.0936 19.975 18.1527 19.075 19.058C18.175 19.9632 17.1166 20.6799 15.9 21.208C14.6833 21.736 13.3856 22 12.0068 22ZM12.0125 20.5C14.3708 20.5 16.375 19.6709 18.025 18.0125C19.675 16.3542 20.5 14.3459 20.5 11.9875C20.5 9.62915 19.6766 7.625 18.0298 5.975C16.3829 4.325 14.373 3.5 12 3.5C9.65 3.5 7.64585 4.32342 5.9875 5.97025C4.32917 7.6171 3.5 9.627 3.5 12C3.5 14.35 4.32917 16.3542 5.9875 18.0125C7.64585 19.6709 9.65415 20.5 12.0125 20.5Z" stroke="#5DAAAA" stroke-width="0.5"/>
</svg>
