<svg width="24" height="24" viewBox="0 0 24 24" fill="none" xmlns="http://www.w3.org/2000/svg">
<path d="M19.4967 7.98917L11.9997 15.2972L4.50275 7.98917C4.36881 7.85832 4.18899 7.78507 4.00175 7.78507C3.8145 7.78507 3.63469 7.85832 3.50075 7.98917C3.43589 8.05271 3.38437 8.12856 3.34919 8.21227C3.31402 8.29598 3.2959 8.38587 3.2959 8.47667C3.2959 8.56747 3.31402 8.65735 3.34919 8.74106C3.38437 8.82477 3.43589 8.90062 3.50075 8.96417L11.4762 16.7402C11.6163 16.8767 11.8042 16.9531 11.9997 16.9531C12.1953 16.9531 12.3832 16.8767 12.5232 16.7402L20.4987 8.96567C20.5641 8.90207 20.616 8.82604 20.6514 8.74205C20.6869 8.65806 20.7051 8.56783 20.7051 8.47667C20.7051 8.38551 20.6869 8.29527 20.6514 8.21128C20.616 8.1273 20.5641 8.05126 20.4987 7.98767C20.3648 7.85682 20.185 7.78357 19.9977 7.78357C19.8105 7.78357 19.6307 7.85682 19.4967 7.98767V7.98917Z" fill="#9F9F9F" stroke="#9F9F9F" stroke-width="0.6"/>
</svg>
