<svg width="72" height="72" viewBox="0 0 72 72" fill="none" xmlns="http://www.w3.org/2000/svg">
<g clip-path="url(#clip0_947_5389)">
<path d="M35.9673 43.3118C35.8047 43.3118 35.642 43.2742 35.4915 43.2003C29.1192 40.0565 25.4579 36.5954 23.6192 31.9798C21.9431 27.7702 21.9875 22.9691 22.0385 17.4113C22.0479 16.4005 22.0573 15.3548 22.0573 14.2796C22.0573 13.6855 22.5385 13.2043 23.1326 13.2043C28.5385 13.2043 32.4901 11.8992 35.2119 9.21371C35.6313 8.80108 36.3033 8.80108 36.7227 9.21371C39.4068 11.8616 43.4942 13.2043 48.8705 13.2043C49.4646 13.2043 49.9458 13.6855 49.9458 14.2796C49.9458 15.3091 49.9539 16.3118 49.9619 17.2809C50.009 22.8737 50.0493 27.703 48.3638 31.9328C46.5157 36.5699 42.8396 40.0444 36.4431 43.2003C36.2926 43.2742 36.1299 43.3118 35.9673 43.3118ZM24.2052 15.3387C24.2012 16.0524 24.1958 16.75 24.1891 17.4315C24.0883 28.3347 24.0264 34.9731 35.9673 41.0349C47.9606 34.9476 47.9041 28.2702 47.8114 17.2997C47.806 16.6599 47.8006 16.0054 47.7979 15.3374C42.8087 15.1747 38.8396 13.8656 35.9686 11.4355C33.0829 13.8979 29.216 15.1801 24.2039 15.3387H24.2052Z" fill="#FFAE05"/>
<path d="M34.9252 31.4838C34.6496 31.4838 34.3754 31.379 34.1644 31.1693L29.8633 26.8682C29.444 26.4489 29.444 25.7674 29.8633 25.3481C30.2827 24.9287 30.9642 24.9287 31.3835 25.3481L34.9238 28.8884L41.69 22.1223C42.1093 21.7029 42.7908 21.7029 43.2101 22.1223C43.6295 22.5416 43.6295 23.2231 43.2101 23.6424L35.6832 31.1693C35.4736 31.379 35.198 31.4838 34.9225 31.4838H34.9252Z" fill="#FFAE05"/>
<path d="M63.9563 62.6667H8.04236C5.07731 62.6667 2.66602 60.2554 2.66602 57.2904V56.7527C2.66602 55.2702 3.87166 54.0646 5.35419 54.0646H24.5961C25.2346 54.0646 25.8542 54.2514 26.3851 54.6062L28.5276 56.0337C28.705 56.1519 28.9106 56.2138 29.1243 56.2138H42.8757C43.0881 56.2138 43.295 56.1519 43.4725 56.0337L45.6149 54.6049C46.1459 54.2501 46.7655 54.0632 47.4039 54.0632H66.6459C68.1284 54.0632 69.334 55.2689 69.334 56.7514V57.289C69.334 60.2541 66.9227 62.6654 63.9577 62.6654L63.9563 62.6667ZM5.35419 56.2151C5.05714 56.2151 4.81655 56.4557 4.81655 56.7527V57.2904C4.81655 59.0686 6.26413 60.5162 8.04236 60.5162H63.9563C65.7346 60.5162 67.1821 59.0686 67.1821 57.2904V56.7527C67.1821 56.4557 66.9415 56.2151 66.6445 56.2151H47.4026C47.1902 56.2151 46.9832 56.2769 46.8058 56.3952L44.6633 57.824C44.1324 58.1788 43.5128 58.3657 42.8743 58.3657H29.123C28.4846 58.3657 27.8649 58.1788 27.334 57.824L25.1916 56.3966C25.0141 56.2783 24.8085 56.2165 24.5948 56.2165H5.35419V56.2151Z" fill="#FFAE05"/>
<path d="M63.9578 51.914C63.3637 51.914 62.8825 51.4329 62.8825 50.8388V19.656C62.8825 19.0632 62.4 18.5807 61.8072 18.5807H54.2803C53.6863 18.5807 53.2051 18.0995 53.2051 17.5054C53.2051 16.9114 53.6863 16.4302 54.2803 16.4302H61.8072C63.5855 16.4302 65.033 17.8778 65.033 19.656V50.8388C65.033 51.4329 64.5519 51.914 63.9578 51.914Z" fill="#FFAE05"/>
<path d="M8.04402 51.914C7.44993 51.914 6.96875 51.4329 6.96875 50.8388V19.656C6.96875 17.8778 8.41633 16.4302 10.1946 16.4302H17.7214C18.3155 16.4302 18.7967 16.9114 18.7967 17.5054C18.7967 18.0995 18.3155 18.5807 17.7214 18.5807H10.1946C9.60181 18.5807 9.11929 19.0632 9.11929 19.656V50.8388C9.11929 51.4329 8.6381 51.914 8.04402 51.914Z" fill="#FFAE05"/>
</g>
<defs>
<clipPath id="clip0_947_5389">
<rect width="66.6667" height="53.7634" fill="white" transform="translate(2.66602 8.90326)"/>
</clipPath>
</defs>
</svg>
