<svg width="72" height="72" viewBox="0 0 72 72" fill="none" xmlns="http://www.w3.org/2000/svg">
<g clip-path="url(#clip0_947_5387)">
<path d="M44.665 58.6385H26.6923C26.1977 58.6385 25.793 59.0433 25.793 59.5379V70.6453C25.793 71.14 26.1977 71.5447 26.6923 71.5447H44.665C45.1746 71.5447 45.5644 71.14 45.5644 70.6453V59.5379C45.5644 59.0433 45.1746 58.6385 44.665 58.6385ZM43.7806 69.7459H27.5917V60.4373H43.7806V69.7459Z" fill="#FFAE05"/>
<path d="M54.905 71.5446H17.2959C16.8012 71.5446 16.3965 71.1399 16.3965 70.6452C16.3965 70.1506 16.8012 69.7458 17.2959 69.7458H54.92C55.4147 69.7458 55.8194 70.1506 55.8194 70.6452C55.8194 71.1399 55.4147 71.5446 54.92 71.5446H54.905Z" fill="#FFAE05"/>
<path d="M27.1612 10.1619H26.9813V8.73785H25.1825V10.1619H24.9427C24.3281 10.1619 23.7285 10.2968 23.1889 10.5216H28.93C28.3903 10.2968 27.7908 10.1619 27.1612 10.1619ZM67.0638 8.73785H39.2729C39.6776 9.30746 40.0373 9.89206 40.3671 10.5216H67.0638C68.3829 10.5216 69.4471 11.6009 69.4471 12.905V56.2702C69.4471 57.5743 68.3829 58.6386 67.0638 58.6386H4.31689C2.9978 58.6386 1.93353 57.5743 1.93353 56.2702V12.905C1.93353 11.6009 2.9978 10.5216 4.31689 10.5216H12.0066C12.3214 9.89206 12.6811 9.30746 13.0859 8.73785H4.31689C2.00848 8.73785 0.134766 10.6116 0.134766 12.905V56.2702C0.134766 58.5636 2.00848 60.4373 4.31689 60.4373H67.0638C69.3722 60.4373 71.2459 58.5636 71.2459 56.2702V12.905C71.2459 10.6116 69.3722 8.73785 67.0638 8.73785Z" fill="#FFAE05"/>
<path d="M70.3465 49.0002H1.03415C0.539487 49.0002 0.134766 48.5955 0.134766 48.1008C0.134766 47.6061 0.539487 47.2014 1.03415 47.2014H70.3465C70.8412 47.2014 71.2459 47.6061 71.2459 48.1008C71.2459 48.5955 70.8412 49.0002 70.3465 49.0002Z" fill="#FFAE05"/>
<path d="M43.9025 16.9222C43.8725 16.2927 43.8125 15.6631 43.7076 15.0485C43.4678 13.4596 43.0031 11.9457 42.3436 10.5216C42.0737 9.90706 41.759 9.30747 41.4142 8.73786C38.3113 3.55143 32.6452 0.0888062 26.1847 0.0888062C19.7241 0.0888062 14.043 3.55143 10.9401 8.73786C10.5954 9.30747 10.2806 9.90706 10.0108 10.5216C8.99148 12.7551 8.42188 15.2284 8.42188 17.8366C8.42188 27.6399 16.3814 35.5994 26.1847 35.5994C29.5573 35.5994 32.7202 34.655 35.4033 33.0062C35.943 32.6764 36.4676 32.3316 36.9623 31.9419C41.2043 28.6891 43.9325 23.5777 43.9325 17.8366C43.9325 17.5368 43.9325 17.222 43.9025 16.9222ZM36.5425 29.9633C36.0329 30.413 35.4933 30.8177 34.9237 31.1924C32.4204 32.8413 29.4074 33.8006 26.1847 33.8006C17.3857 33.8006 10.2206 26.6505 10.2206 17.8366C10.2206 15.1984 10.8652 12.7101 12.0044 10.5216C12.3192 9.89207 12.6789 9.30747 13.0837 8.73786C15.9617 4.6007 20.7584 1.88757 26.1847 1.88757C31.6109 1.88757 36.3926 4.6007 39.2707 8.73786C39.6754 9.30747 40.0351 9.89207 40.3649 10.5216C41.2043 12.1555 41.7739 13.9543 42.0138 15.858C42.0887 16.5025 42.1337 17.1621 42.1337 17.8366V17.8966C42.1337 22.7232 39.9452 27.0553 36.5425 29.9633Z" fill="#FFAE05"/>
<path d="M31.6406 14.5689C31.6406 15.0636 31.2358 15.4683 30.7412 15.4683C30.2465 15.4683 29.8418 15.0636 29.8418 14.5689C29.8418 13.1599 28.6127 11.9607 27.1587 11.9607H24.9402C23.5012 11.9607 22.332 13.1299 22.332 14.5689C22.332 16.0079 23.5012 17.1771 24.9402 17.1771H26.3642C26.604 17.1771 26.8289 17.267 26.9788 17.4319C27.1586 17.5968 27.2636 17.8217 27.2636 18.0765C27.2636 18.3313 27.1586 18.5562 26.9788 18.721C26.8289 18.8859 26.604 18.9759 26.3642 18.9759H24.9402C22.5118 18.9759 20.5332 16.9972 20.5332 14.5689C20.5332 12.7551 21.6275 11.1962 23.1864 10.5217C23.726 10.2968 24.3256 10.1619 24.9402 10.1619H27.1587C27.7882 10.1619 28.3878 10.2968 28.9274 10.5217C30.5313 11.1962 31.6406 12.7551 31.6406 14.5689Z" fill="#FFAE05"/>
<path d="M31.8359 21.5841C31.8359 24.0124 29.8572 25.9911 27.4289 25.9911H25.1805C22.7221 25.9761 20.7285 24.0124 20.7285 21.5841C20.7285 21.0894 21.1182 20.6847 21.6279 20.6847C22.1375 20.6847 22.5273 21.0894 22.5273 21.5841C22.5273 23.0081 23.7265 24.1773 25.1805 24.1923H27.4289C28.8679 24.1923 30.0371 23.0231 30.0371 21.5841C30.0371 20.1451 28.8679 18.9759 27.4289 18.9759H25.9899C25.6301 18.9759 25.3154 18.766 25.1805 18.4512C25.1205 18.3463 25.0905 18.2114 25.0905 18.0765C25.0905 17.9416 25.1205 17.8067 25.1805 17.7018C25.3154 17.387 25.6301 17.1771 25.9899 17.1771H27.4289C29.8572 17.1771 31.8359 19.1558 31.8359 21.5841Z" fill="#FFAE05"/>
<path d="M26.9785 8.73788V26.9504C26.9785 27.445 26.5737 27.8497 26.0791 27.8497C25.5844 27.8497 25.1797 27.445 25.1797 26.9504V8.73788C25.1797 8.24322 25.5844 7.8385 26.0791 7.8385C26.5737 7.8385 26.9785 8.24322 26.9785 8.73788Z" fill="#FFAE05"/>
<path d="M49.0591 14.0142C47.1704 14.0142 45.3567 14.3739 43.7078 15.0484C43.1232 15.2883 42.5536 15.5581 42.014 15.8579C42.0889 16.5025 42.1339 17.162 42.1339 17.8365V17.8965C42.6885 17.5217 43.2881 17.207 43.9027 16.9222C45.4766 16.2176 47.2154 15.8129 49.0591 15.8129C56.0143 15.8129 61.6804 21.479 61.6804 28.4342C61.6804 35.3895 56.0143 41.0406 49.0591 41.0406C43.333 41.0406 38.4764 37.1882 36.9624 31.9418C36.7676 31.2973 36.6327 30.6377 36.5427 29.9632C36.0331 30.4129 35.4934 30.8176 34.9238 31.1924C35.0437 31.8219 35.2086 32.4215 35.4035 33.0061C37.3222 38.7172 42.7185 42.8393 49.0591 42.8393C57.0036 42.8393 63.4642 36.3788 63.4642 28.4342C63.4642 20.4897 57.0036 14.0142 49.0591 14.0142Z" fill="#FFAE05"/>
<path d="M49.2089 29.5134H48.0696C46.031 29.5134 44.3672 27.8496 44.3672 25.811C44.3672 23.7724 46.031 22.1085 48.0696 22.1085H49.8534C51.922 22.1085 53.6158 23.7724 53.6158 25.811C53.6158 26.3056 53.2111 26.7104 52.7165 26.7104C52.2218 26.7104 51.8171 26.3056 51.8171 25.811C51.8171 24.7767 50.9177 23.8923 49.8534 23.8923H48.0696C47.0204 23.8923 46.151 24.7467 46.151 25.811C46.151 26.8752 47.0054 27.7297 48.0696 27.7297H49.2089C49.7035 27.7297 50.1082 28.1344 50.1082 28.629C50.1082 29.1237 49.7035 29.5284 49.2089 29.5284V29.5134Z" fill="#FFAE05"/>
<path d="M50.0638 35.1346H48.28C46.2114 35.1346 44.5176 33.4707 44.5176 31.4321C44.5176 30.9374 44.9223 30.5327 45.417 30.5327C45.9116 30.5327 46.3163 30.9374 46.3163 31.4321C46.3163 32.4664 47.2157 33.3508 48.28 33.3508H50.0638C51.113 33.3508 51.9824 32.4964 51.9824 31.4321C51.9824 30.3678 51.128 29.5134 50.0638 29.5134H48.9245C48.4299 29.5134 48.0252 29.1087 48.0252 28.614C48.0252 28.1194 48.4299 27.7147 48.9245 27.7147H50.0638C52.1174 27.7147 53.7812 29.3785 53.7812 31.4321C53.7812 33.4857 52.1174 35.1346 50.0638 35.1346Z" fill="#FFAE05"/>
<path d="M48.9853 36.6186C48.4907 36.6186 48.0859 36.2139 48.0859 35.7192V21.1342C48.0859 20.6396 48.4907 20.2349 48.9853 20.2349C49.48 20.2349 49.8847 20.6396 49.8847 21.1342V35.7192C49.8847 36.2139 49.48 36.6186 48.9853 36.6186Z" fill="#FFAE05"/>
</g>
<defs>
<clipPath id="clip0_947_5387">
<rect width="71.1111" height="71.4559" fill="white" transform="translate(0.134766 0.0886841)"/>
</clipPath>
</defs>
</svg>
