<svg width="72" height="72" viewBox="0 0 72 72" fill="none" xmlns="http://www.w3.org/2000/svg">
<g clip-path="url(#clip0_50_4136)">
<path d="M15.8485 62.6717L9.29883 64.7975" stroke="#007D7D" stroke-width="2" stroke-linecap="round" stroke-linejoin="round"/>
<path d="M13.3447 70.3628L9.29883 64.7975" stroke="#007D7D" stroke-width="2" stroke-linecap="round" stroke-linejoin="round"/>
<path d="M5.25 70.3628L9.29959 64.7975" stroke="#007D7D" stroke-width="2" stroke-linecap="round" stroke-linejoin="round"/>
<path d="M2.75 62.6717L9.29971 64.7975" stroke="#007D7D" stroke-width="2" stroke-linecap="round" stroke-linejoin="round"/>
<path d="M9.29883 57.9184V64.7975" stroke="#007D7D" stroke-width="2" stroke-linecap="round" stroke-linejoin="round"/>
<path d="M33.6669 62.6717L27.1172 64.7975" stroke="#007D7D" stroke-width="2" stroke-linecap="round" stroke-linejoin="round"/>
<path d="M31.1668 70.3628L27.1172 64.7975" stroke="#007D7D" stroke-width="2" stroke-linecap="round" stroke-linejoin="round"/>
<path d="M23.0703 70.3628L27.1162 64.7975" stroke="#007D7D" stroke-width="2" stroke-linecap="round" stroke-linejoin="round"/>
<path d="M20.5664 62.6717L27.1161 64.7975" stroke="#007D7D" stroke-width="2" stroke-linecap="round" stroke-linejoin="round"/>
<path d="M27.1172 57.9184V64.7975" stroke="#007D7D" stroke-width="2" stroke-linecap="round" stroke-linejoin="round"/>
<path d="M51.4892 62.6717L44.9395 64.7975" stroke="#007D7D" stroke-width="2" stroke-linecap="round" stroke-linejoin="round"/>
<path d="M48.9853 70.3628L44.9395 64.7975" stroke="#007D7D" stroke-width="2" stroke-linecap="round" stroke-linejoin="round"/>
<path d="M40.8906 70.3628L44.9402 64.7975" stroke="#007D7D" stroke-width="2" stroke-linecap="round" stroke-linejoin="round"/>
<path d="M38.3906 62.6717L44.9403 64.7975" stroke="#007D7D" stroke-width="2" stroke-linecap="round" stroke-linejoin="round"/>
<path d="M44.9395 57.9184V64.7975" stroke="#007D7D" stroke-width="2" stroke-linecap="round" stroke-linejoin="round"/>
<path d="M69.3075 62.6717L62.7578 64.7975" stroke="#007D7D" stroke-width="2" stroke-linecap="round" stroke-linejoin="round"/>
<path d="M66.8074 70.3628L62.7578 64.7975" stroke="#007D7D" stroke-width="2" stroke-linecap="round" stroke-linejoin="round"/>
<path d="M58.7129 70.3628L62.7587 64.7975" stroke="#007D7D" stroke-width="2" stroke-linecap="round" stroke-linejoin="round"/>
<path d="M56.209 62.6717L62.7587 64.7975" stroke="#007D7D" stroke-width="2" stroke-linecap="round" stroke-linejoin="round"/>
<path d="M62.7578 57.9184V64.7975" stroke="#007D7D" stroke-width="2" stroke-linecap="round" stroke-linejoin="round"/>
<path d="M16.334 21.0528H55.7258V43.0298C55.7258 47.9852 51.7024 52.0048 46.7508 52.0048H25.3127C20.3574 52.0048 16.3377 47.9814 16.3377 43.0298V21.0528H16.334Z" stroke="#007D7D" stroke-width="2" stroke-linecap="round" stroke-linejoin="round"/>
<path d="M49.5092 21.0527V14.2149C49.5092 6.77813 43.4723 0.748657 36.028 0.748657C28.5838 0.748657 22.5469 6.77813 22.5469 14.2149V21.0527" stroke="#007D7D" stroke-width="2" stroke-linecap="round" stroke-linejoin="round"/>
<path d="M36.0293 37.4119V43.4114" stroke="#007D7D" stroke-width="2" stroke-linecap="round" stroke-linejoin="round"/>
<path d="M36.0335 37.4137C38.1812 37.4115 39.9203 35.6703 39.9181 33.5247C39.9158 31.3792 38.173 29.6417 36.0254 29.6439C33.8777 29.6462 32.1385 31.3873 32.1408 33.5329C32.143 35.6785 33.8859 37.416 36.0335 37.4137Z" stroke="#007D7D" stroke-width="2" stroke-linecap="round" stroke-linejoin="round"/>
</g>
<defs>
<clipPath id="clip0_50_4136">
<rect width="68.0571" height="71.1111" fill="white" transform="translate(2 0.00012207)"/>
</clipPath>
</defs>
</svg>
