<svg width="72" height="72" viewBox="0 0 72 72" fill="none" xmlns="http://www.w3.org/2000/svg">
<g clip-path="url(#clip0_50_4130)">
<path d="M42.7326 29.7462C42.7326 20.4615 35.1764 12.9053 25.8917 12.9053C16.607 12.9053 9.05078 20.4615 9.05078 29.7462C9.05078 39.0308 16.607 46.5871 25.8917 46.5871C35.1764 46.5871 42.7326 39.0308 42.7326 29.7462ZM10.871 29.7462C10.871 21.471 17.6012 14.7408 25.8764 14.7408C34.1515 14.7408 40.8818 21.471 40.8818 29.7462C40.8818 38.0213 34.1515 44.7515 25.8764 44.7515C17.6012 44.7515 10.871 38.0213 10.871 29.7462Z" fill="#007D7D"/>
<path d="M25.9869 28.2625H25.2527C24.1361 28.2625 23.2183 27.5589 23.2183 26.6717V25.2951C23.2183 24.2702 24.2891 23.429 25.5892 23.429C26.3081 23.429 26.9811 23.689 27.44 24.1479C27.8071 24.4997 28.3884 24.4997 28.7402 24.1479C29.092 23.7808 29.092 23.1995 28.7402 22.8477C28.2201 22.3276 27.5318 21.9758 26.7976 21.777V22.5265C26.7976 23.0313 26.3846 23.4443 25.8798 23.4443C25.3751 23.4443 24.9621 23.0313 24.9621 22.5265V21.6699C22.943 21.9452 21.3828 23.4596 21.3828 25.3257V26.7023C21.3828 28.5837 23.1113 30.1286 25.2527 30.1286H25.9869C27.3941 30.1286 28.5413 31.0311 28.5413 32.1477V33.7691C28.5413 35.0692 27.2259 36.1246 25.5892 36.1246C24.6409 36.1246 23.7384 35.7422 23.1877 35.1151C22.8512 34.7327 22.27 34.7021 21.8876 35.0386C21.5052 35.3751 21.4746 35.9564 21.8111 36.3388C22.5912 37.226 23.7231 37.7613 24.9621 37.899V37.0271C24.9621 36.5223 25.3751 36.1093 25.8798 36.1093C26.3846 36.1093 26.7976 36.5223 26.7976 37.0271V37.8072C28.8473 37.333 30.3769 35.7117 30.3769 33.7691V32.1477C30.3769 30.0215 28.4037 28.2931 25.9869 28.2931V28.2625Z" fill="#007D7D"/>
<path d="M25.8787 36.0787C25.3739 36.0787 24.9609 36.4917 24.9609 36.9965V40.4992C24.9609 41.004 25.3739 41.417 25.8787 41.417C26.3835 41.417 26.7965 41.004 26.7965 40.4992V36.9965C26.7965 36.4917 26.3835 36.0787 25.8787 36.0787Z" fill="#007D7D"/>
<path d="M25.8787 23.429C26.3835 23.429 26.7965 23.016 26.7965 22.5112V19.0085C26.7965 18.5037 26.3835 18.0907 25.8787 18.0907C25.3739 18.0907 24.9609 18.5037 24.9609 19.0085V22.5112C24.9609 23.016 25.3739 23.429 25.8787 23.429Z" fill="#007D7D"/>
<path d="M25.8787 10.458C26.3835 10.458 26.7965 10.045 26.7965 9.54023V5.18087L25.8787 3.59009L24.9609 5.18087V9.54023C24.9609 10.045 25.3739 10.458 25.8787 10.458Z" fill="#007D7D"/>
<path d="M26.797 5.18083L27.0876 5.6856C27.2558 5.97623 27.5618 6.14448 27.883 6.14448C28.0359 6.14448 28.2042 6.09859 28.3419 6.02211C28.7854 5.76208 28.9384 5.21143 28.6784 4.76784L26.6746 1.29565C26.3381 0.729697 25.405 0.729697 25.0838 1.29565L23.08 4.76784C22.82 5.21143 22.973 5.76208 23.4165 6.02211C23.8601 6.28215 24.4108 6.12919 24.6708 5.6856L24.9614 5.18083L25.8792 3.59005L26.797 5.18083Z" fill="#007D7D"/>
<path d="M25.8787 49.0498C25.3739 49.0498 24.9609 49.4627 24.9609 49.9675V54.3269L25.8787 55.9177L26.7965 54.3269V49.9675C26.7965 49.4627 26.3835 49.0498 25.8787 49.0498Z" fill="#007D7D"/>
<path d="M24.9614 54.3269L24.6708 53.8221C24.4108 53.3785 23.8601 53.2256 23.4165 53.4856C22.973 53.7456 22.82 54.2963 23.08 54.7399L25.0838 58.2121C25.2521 58.5027 25.5427 58.671 25.8792 58.671C26.2157 58.671 26.5063 58.5027 26.6746 58.2121L28.6784 54.7399C28.9384 54.2963 28.7854 53.7456 28.3419 53.4856C27.8983 53.2256 27.3476 53.3785 27.0876 53.8221L26.797 54.3269L25.8792 55.9177L24.9614 54.3269Z" fill="#007D7D"/>
<path d="M4.14432 18.2589L7.92244 20.4463C8.0601 20.5227 8.22836 20.5686 8.38132 20.5686C8.70253 20.5686 9.00845 20.4004 9.17671 20.1098C9.43674 19.6662 9.28378 19.1155 8.8402 18.8555L5.06208 16.6682H3.22656L4.14432 18.2589Z" fill="#007D7D"/>
<path d="M2.84286 19.6815C3.01111 19.9721 3.31703 20.1404 3.63825 20.1404C3.79121 20.1404 3.94417 20.0945 4.09713 20.018C4.54071 19.758 4.69367 19.2073 4.43364 18.7637L4.14302 18.2589L3.22526 16.6682H5.64203C6.14679 16.6682 6.55979 16.2552 6.55979 15.7504C6.55979 15.2456 6.14679 14.8326 5.64203 14.8326H1.63447C1.31326 14.8326 1.00734 15.0009 0.839083 15.2915C0.670827 15.5821 0.670827 15.9187 0.839083 16.2093L2.84286 19.6815Z" fill="#007D7D"/>
<path d="M5.06208 42.8396L8.8402 40.6523C9.28378 40.3923 9.43674 39.8416 9.17671 39.398C8.91668 38.9544 8.36602 38.8015 7.92244 39.0615L4.14432 41.2488L3.22656 42.8396H5.06208Z" fill="#007D7D"/>
<path d="M6.55979 43.7574C6.55979 43.2527 6.14679 42.8397 5.64203 42.8397H3.22526L4.14302 41.2489L4.43364 40.7441C4.69367 40.3005 4.54071 39.7499 4.09713 39.4898C3.65355 39.2298 3.10289 39.3828 2.84286 39.8263L0.839083 43.2985C0.670827 43.5892 0.670827 43.9257 0.839083 44.2163C1.00734 44.5069 1.29796 44.6752 1.63447 44.6752H5.64203C6.14679 44.6752 6.55979 44.2622 6.55979 43.7574Z" fill="#007D7D"/>
<path d="M46.7103 16.6682L42.9322 18.8555C42.4886 19.1155 42.3356 19.6662 42.5957 20.1098C42.7639 20.4004 43.0698 20.5686 43.391 20.5686C43.544 20.5686 43.697 20.5227 43.8499 20.4463L47.628 18.2589L48.5458 16.6682H46.7103Z" fill="#007D7D"/>
<path d="M47.6599 20.018C47.7976 20.0945 47.9658 20.1404 48.1188 20.1404C48.44 20.1404 48.7459 19.9721 48.9142 19.6815L50.918 16.2093C51.0862 15.9187 51.0862 15.5821 50.918 15.2915C50.7497 15.0009 50.4591 14.8326 50.1226 14.8326H46.115C45.6103 14.8326 45.1973 15.2456 45.1973 15.7504C45.1973 16.2552 45.6103 16.6682 46.115 16.6682H48.5318L47.614 18.2589L47.3234 18.7637C47.0634 19.2073 47.2163 19.758 47.6599 20.018Z" fill="#007D7D"/>
<path d="M69.1196 56.1931C66.4275 54.9847 63.5825 54.1128 60.6609 53.5621C59.9879 54.1434 59.2384 54.6482 58.4277 55.0459C61.8693 55.5047 65.2192 56.4531 68.3701 57.8603C69.3491 58.2886 69.9915 59.2829 69.9915 60.3689V69.9595C69.9915 70.4642 70.4045 70.8772 70.9093 70.8772C71.414 70.8772 71.827 70.4642 71.827 69.9595V60.3689C71.827 58.5639 70.7563 56.912 69.1196 56.1931Z" fill="#007D7D"/>
<path d="M38.7284 57.8603C40.4568 57.0955 42.1394 56.499 43.8678 56.0248C43.8984 56.0248 43.9443 56.0248 43.9749 55.9942C45.428 55.5812 47.0035 55.2753 48.6708 55.0458C47.8601 54.6328 47.1106 54.1281 46.4223 53.5468C45.428 53.7304 44.4644 53.9445 43.5466 54.2046C43.516 54.2046 43.4854 54.2046 43.4548 54.2199C41.604 54.7246 39.8144 55.3518 37.9789 56.1777C36.3269 56.912 35.2715 58.5486 35.2715 60.3536V69.9441C35.2715 70.4489 35.6845 70.8619 36.1892 70.8619C36.694 70.8619 37.107 70.4489 37.107 69.9441V60.3536C37.107 59.2675 37.7494 58.2886 38.7284 57.845V57.8603Z" fill="#007D7D"/>
<path d="M48.6692 55.0458C50.1376 55.78 51.7896 56.2083 53.5486 56.2083C55.3077 56.2083 56.9596 55.78 58.4281 55.0458C59.2387 54.6328 59.9882 54.1433 60.6613 53.5621C62.971 51.5583 64.4547 48.6062 64.4547 45.3175C64.4547 39.3062 59.56 34.4115 53.5486 34.4115C47.5373 34.4115 42.6426 39.3062 42.6426 45.3175C42.6426 48.6062 44.111 51.5583 46.4207 53.5468C47.0937 54.1433 47.8585 54.6328 48.6692 55.0458ZM44.4781 45.3175C44.4781 40.3158 48.5468 36.247 53.5486 36.247C58.5504 36.247 62.6192 40.3158 62.6192 45.3175C62.6192 50.3193 58.5504 54.3881 53.5486 54.3881C48.5468 54.3881 44.4781 50.3193 44.4781 45.3175Z" fill="#007D7D"/>
<path d="M63.0486 62.8008C62.5438 62.8008 62.1309 63.2138 62.1309 63.7186V69.9594C62.1309 70.4641 62.5438 70.8771 63.0486 70.8771C63.5534 70.8771 63.9664 70.4641 63.9664 69.9594V63.7186C63.9664 63.2138 63.5534 62.8008 63.0486 62.8008Z" fill="#007D7D"/>
<path d="M43.9881 62.8008C43.4833 62.8008 43.0703 63.2138 43.0703 63.7186V69.9594C43.0703 70.4641 43.4833 70.8771 43.9881 70.8771C44.4928 70.8771 44.9058 70.4641 44.9058 69.9594V63.7186C44.9058 63.2138 44.4928 62.8008 43.9881 62.8008Z" fill="#007D7D"/>
</g>
<defs>
<clipPath id="clip0_50_4130">
<rect width="71.1111" height="70.0098" fill="white" transform="translate(0.714844 0.86734)"/>
</clipPath>
</defs>
</svg>
