<svg width="24" height="24" viewBox="0 0 24 24" fill="none" xmlns="http://www.w3.org/2000/svg">
<g clip-path="url(#clip0_1497_41773)">
<path fill-rule="evenodd" clip-rule="evenodd" d="M8.68457 22.5001H19.6251C20.356 22.4995 21.0617 22.2331 21.6105 21.7504C22.1594 21.2678 22.5139 20.602 22.608 19.8772L23.9657 11.1172V11.1087C24.0297 10.6833 24.0022 10.2493 23.8851 9.83539C23.7681 9.42152 23.5641 9.03736 23.2869 8.70853C23.0096 8.3797 22.6655 8.11376 22.2773 7.92844C21.8892 7.74311 21.466 7.64267 21.036 7.6338H14.856V3.74923C14.8527 3.35582 14.771 2.967 14.6157 2.60554C14.4604 2.24407 14.2345 1.91722 13.9513 1.6441C13.6681 1.37097 13.3333 1.15707 12.9665 1.01489C12.5996 0.87272 12.2081 0.805134 11.8149 0.816089C11.3143 0.814218 10.8217 0.941312 10.3845 1.18512C9.94733 1.42893 9.58033 1.78124 9.31886 2.20809L9.31543 2.21152L5.20286 8.82009H1.70743C1.25489 8.82009 0.820856 8.99974 0.5007 9.31958C0.180544 9.63941 0.000454359 10.0733 0 10.5258L0 19.5567C0 20.0095 0.179889 20.4438 0.500094 20.764C0.820299 21.0842 1.25459 21.2641 1.70743 21.2641H5.14286L5.448 21.4167L6.672 22.0287C7.29771 22.3407 7.98686 22.5001 8.68457 22.4984M7.63029 20.1104L6.99771 19.7949L7.00286 9.98066L11.1394 3.33609L11.1429 3.32923C11.218 3.20702 11.3251 3.10763 11.4526 3.04178C11.5801 2.97593 11.7231 2.9461 11.8663 2.95552C11.9752 2.95139 12.0837 2.9691 12.1857 3.00762C12.2876 3.04613 12.3807 3.10466 12.4597 3.17975C12.5386 3.25484 12.6017 3.34498 12.6452 3.44485C12.6888 3.54472 12.7118 3.65229 12.7131 3.76123V8.70866C12.7131 9.30009 13.1931 9.78009 13.7846 9.78009H21.0154C21.1387 9.78597 21.2594 9.81758 21.3697 9.87289C21.48 9.9282 21.5776 10.006 21.6561 10.1012C21.7345 10.1965 21.7922 10.3071 21.8253 10.426C21.8585 10.5449 21.8664 10.6694 21.8486 10.7915V10.7949L20.4874 19.5652L20.4823 19.5995C20.4561 19.8086 20.3546 20.001 20.1968 20.1408C20.0391 20.2805 19.8359 20.3581 19.6251 20.3589H8.676C8.31252 20.36 7.95383 20.2761 7.62857 20.1138" fill="#047978"/>
</g>
<defs>
<clipPath id="clip0_1497_41773">
<rect width="24" height="24" fill="white"/>
</clipPath>
</defs>
</svg>
