<svg width="160" height="170" viewBox="0 0 160 170" fill="none" xmlns="http://www.w3.org/2000/svg">
<g clip-path="url(#clip0_827_41057)">
<path d="M75.9774 53.5206L16.6216 81.4295L20.1403 86.1348V88.7642V141.168L79.6814 168.847H79.7277L139.222 141.168V88.7642V85.8119L143.713 80.184L83.339 53.5206L79.6351 58.5949L75.9774 53.5206Z" fill="white"/>
<path d="M79.7274 168.847L79.6812 113.49L139.222 85.8119V141.168L79.7274 168.847Z" fill="#F0F3F4"/>
<path d="M79.7278 170C78.8481 170 77.9222 169.815 77.0888 169.4L22.1314 143.89C19.9553 142.875 18.52 140.661 18.52 138.262V92.0856C18.52 91.2092 19.2608 90.4711 20.1405 90.4711C21.0202 90.4711 21.761 91.2092 21.761 92.0856V138.262C21.761 139.416 22.4555 140.477 23.5204 140.984L78.4314 166.494C79.2185 166.863 80.1908 166.863 80.9779 166.494L135.889 140.938C136.954 140.43 137.648 139.369 137.648 138.216V92.0856C137.648 91.2092 138.389 90.4711 139.269 90.4711C140.149 90.4711 140.889 91.2092 140.889 92.0856V138.216C140.889 140.615 139.454 142.829 137.278 143.844L82.3669 169.354C81.4872 169.769 80.6075 170 79.7278 170Z" fill="#323232"/>
<path d="M79.6812 113.49L20.1401 85.8119L79.6812 58.1336L139.176 85.8119L79.6812 113.49Z" fill="white"/>
<path d="M79.6812 113.49V58.1336L20.1401 85.8119L79.6812 113.49Z" fill="#F0F3F4"/>
<path d="M79.681 115.105C78.8013 115.105 78.0605 114.367 78.0605 113.49V73.4951C78.0605 72.6186 78.8013 71.8805 79.681 71.8805C80.5607 71.8805 81.3015 72.6186 81.3015 73.4951V113.49C81.3015 114.367 80.5607 115.105 79.681 115.105Z" fill="#323232"/>
<path d="M1.62061 62.7467L20.1404 85.8119L79.6814 58.1337L61.1616 35.0684L1.62061 62.7467Z" fill="#FFF0BF"/>
<path d="M20.1402 87.4265C19.6772 87.4265 19.2142 87.242 18.8901 86.8268L0.370336 63.7616C0.0462401 63.3925 -0.0463587 62.8851 0.0462401 62.3776C0.138839 61.9163 0.509234 61.5012 0.925929 61.2705L60.467 33.5922C61.1615 33.2693 61.9485 33.4538 62.4115 34.0535L80.9313 57.1188C81.4869 57.8107 81.3943 58.8256 80.6998 59.3792C80.0053 59.9327 78.9867 59.8405 78.4311 59.1485L60.6985 37.052L4.16689 63.3464L21.3903 84.797C21.9459 85.489 21.8533 86.5039 21.1588 87.0574C20.8347 87.2881 20.5106 87.4265 20.1402 87.4265Z" fill="#323232"/>
<path d="M79.6813 115.105C79.4498 115.105 79.2183 115.059 78.9868 114.966L19.4458 87.2881C18.6124 86.9191 18.2883 85.9503 18.6587 85.12C19.0291 84.2896 20.0014 83.9667 20.8348 84.3358L79.6813 111.691L138.528 84.3358C139.361 83.9667 140.287 84.2896 140.704 85.12C141.074 85.9503 140.75 86.8729 139.917 87.2881L80.3758 114.966C80.1443 115.059 79.9128 115.105 79.6813 115.105Z" fill="#323232"/>
<path d="M79.6348 58.1337L139.176 85.8119L157.696 62.7467L98.1545 35.0684L79.6348 58.1337Z" fill="#FFF0BF"/>
<path d="M139.176 87.4265C138.805 87.4265 138.481 87.2881 138.157 87.0574C137.463 86.5039 137.324 85.489 137.926 84.797L155.149 63.3464L98.6639 37.052L80.9312 59.1485C80.3756 59.8405 79.357 59.9789 78.6625 59.3792C77.968 58.8256 77.8291 57.8107 78.431 57.1188L96.9508 34.0535C97.4138 33.4538 98.2472 33.2693 98.8954 33.5922L158.436 61.2705C158.899 61.5012 159.223 61.8702 159.316 62.3776C159.409 62.8389 159.316 63.3464 158.992 63.7616L140.472 86.8268C140.102 87.242 139.639 87.4265 139.176 87.4265Z" fill="#323232"/>
<path d="M98.2009 136.555L79.6812 113.49L139.176 85.812L157.696 108.877L98.2009 136.555Z" fill="#FFF0BF"/>
<path d="M98.2007 138.17C97.7377 138.17 97.2284 137.939 96.9506 137.57L78.4309 114.505C78.1068 114.136 78.0142 113.629 78.1068 113.121C78.1994 112.66 78.5698 112.245 78.9865 112.014L138.528 84.3358C139.222 84.0128 140.009 84.1974 140.472 84.7971L158.992 107.862C159.316 108.231 159.409 108.739 159.316 109.246C159.223 109.708 158.853 110.123 158.436 110.353L98.8952 138.032C98.6637 138.124 98.4322 138.17 98.2007 138.17ZM82.2274 114.09L98.6637 134.572L155.149 108.277L138.713 87.7955L82.2274 114.09Z" fill="#323232"/>
<path d="M61.1616 136.555L79.6814 113.49L20.1404 85.812L1.62061 108.877L61.1616 136.555Z" fill="#FFF0BF"/>
<path d="M61.1615 138.17C60.93 138.17 60.6985 138.124 60.467 138.032L0.925929 110.353C0.462935 110.123 0.138839 109.754 0.0462401 109.246C-0.0463587 108.785 0.0462401 108.277 0.370336 107.862L18.8901 84.7971C19.3531 84.1974 20.1402 84.0128 20.8347 84.3358L80.3757 112.014C80.8387 112.245 81.1628 112.614 81.2554 113.121C81.348 113.582 81.2554 114.09 80.9313 114.505L62.4115 137.57C62.1337 137.939 61.6244 138.17 61.1615 138.17ZM4.21319 108.277L60.6985 134.572L77.1348 114.09L20.6495 87.7955L4.21319 108.277Z" fill="#323232"/>
<path d="M139.176 87.4265C138.944 87.4265 138.713 87.3804 138.481 87.2881L86.9502 63.3003C86.1168 62.9312 85.7927 61.9625 86.1631 61.1321C86.5335 60.3018 87.5058 59.9789 88.3392 60.3479L139.87 84.3358C140.704 84.7048 141.028 85.6735 140.657 86.5039C140.38 87.1036 139.824 87.4265 139.176 87.4265Z" fill="#323232"/>
<path d="M30.3722 82.6751C29.7703 82.6751 29.1684 82.3521 28.8906 81.7524C28.5202 80.9221 28.8443 79.9995 29.6777 79.5843L71.0231 60.3479C71.8102 59.9789 72.7825 60.3018 73.1992 61.1321C73.5696 61.9625 73.2455 62.8851 72.4121 63.3003L31.0204 82.5367C30.8352 82.6289 30.6037 82.6751 30.3722 82.6751Z" fill="#323232"/>
<path d="M79.3163 2.04822V13.3029M44.1133 11.2651L52.6603 19.7992M114.519 11.2651L105.972 19.7992" stroke="#323232" stroke-width="3.2" stroke-linecap="round" stroke-linejoin="round"/>
</g>
<defs>
<clipPath id="clip0_827_41057">
<rect width="160" height="170" fill="white"/>
</clipPath>
</defs>
</svg>
