<svg width="20" height="21" viewBox="0 0 20 21" fill="none" xmlns="http://www.w3.org/2000/svg">
<path fill-rule="evenodd" clip-rule="evenodd" d="M0.847994 10.105C3.38966 6.4617 6.68521 4.55127 9.98676 4.55127C13.8643 4.55127 17.2044 7.07735 19.1751 10.121L19.176 10.1224C19.3064 10.325 19.3757 10.5609 19.3757 10.8019C19.3757 11.0424 19.3067 11.2778 19.1767 11.4802C17.2078 14.563 13.8892 17.0513 9.98676 17.0513C6.04275 17.0513 2.78817 14.5682 0.824077 11.4944C0.690619 11.2871 0.621399 11.0451 0.625144 10.7986C0.628899 10.5515 0.705813 10.311 0.846168 10.1076L0.847994 10.105ZM1.87501 10.8176L1.87673 10.8203C3.69084 13.66 6.59844 15.8013 9.98676 15.8013C13.3371 15.8013 16.3074 13.6509 18.1237 10.8067L18.1249 10.8048L18.1257 10.8019L18.1256 10.8006L18.1249 10.799C16.3018 7.98389 13.3072 5.80127 9.98676 5.80127C7.19996 5.80127 4.25021 7.41423 1.87501 10.8176Z" fill="#666666"/>
<path fill-rule="evenodd" clip-rule="evenodd" d="M10 8.30127C8.61929 8.30127 7.5 9.42056 7.5 10.8013C7.5 12.182 8.61929 13.3013 10 13.3013C11.3807 13.3013 12.5 12.182 12.5 10.8013C12.5 9.42056 11.3807 8.30127 10 8.30127ZM6.25 10.8013C6.25 8.7302 7.92893 7.05127 10 7.05127C12.0711 7.05127 13.75 8.7302 13.75 10.8013C13.75 12.8723 12.0711 14.5513 10 14.5513C7.92893 14.5513 6.25 12.8723 6.25 10.8013Z" fill="#666666"/>
</svg>
