<svg width="28" height="28" viewBox="0 0 28 28" fill="none" xmlns="http://www.w3.org/2000/svg">
<circle cx="14" cy="14" r="14" fill="#62ACAC"/>
<path d="M18.6667 22C18.0185 22 17.4676 21.7667 17.0139 21.3C16.5602 20.8333 16.3333 20.2667 16.3333 19.6C16.3333 19.52 16.3528 19.3333 16.3917 19.04L10.9278 15.76C10.7204 15.96 10.4806 16.1168 10.2083 16.2304C9.93611 16.344 9.64444 16.4005 9.33333 16.4C8.68519 16.4 8.13426 16.1667 7.68056 15.7C7.22685 15.2333 7 14.6667 7 14C7 13.3333 7.22685 12.7667 7.68056 12.3C8.13426 11.8333 8.68519 11.6 9.33333 11.6C9.64444 11.6 9.93611 11.6568 10.2083 11.7704C10.4806 11.884 10.7204 12.0405 10.9278 12.24L16.3917 8.96C16.3657 8.86667 16.3497 8.7768 16.3434 8.6904C16.3372 8.604 16.3339 8.5072 16.3333 8.4C16.3333 7.73333 16.5602 7.16667 17.0139 6.7C17.4676 6.23333 18.0185 6 18.6667 6C19.3148 6 19.8657 6.23333 20.3194 6.7C20.7731 7.16667 21 7.73333 21 8.4C21 9.06667 20.7731 9.63333 20.3194 10.1C19.8657 10.5667 19.3148 10.8 18.6667 10.8C18.3556 10.8 18.0639 10.7432 17.7917 10.6296C17.5194 10.516 17.2796 10.3595 17.0722 10.16L11.6083 13.44C11.6343 13.5333 11.6506 13.6235 11.6573 13.7104C11.6641 13.7973 11.6672 13.8939 11.6667 14C11.6661 14.1061 11.663 14.2029 11.6573 14.2904C11.6516 14.3779 11.6353 14.4677 11.6083 14.56L17.0722 17.84C17.2796 17.64 17.5194 17.4835 17.7917 17.3704C18.0639 17.2573 18.3556 17.2005 18.6667 17.2C19.3148 17.2 19.8657 17.4333 20.3194 17.9C20.7731 18.3667 21 18.9333 21 19.6C21 20.2667 20.7731 20.8333 20.3194 21.3C19.8657 21.7667 19.3148 22 18.6667 22Z" fill="white"/>
</svg>
