<svg width="100" height="100" viewBox="0 0 100 100" fill="none" xmlns="http://www.w3.org/2000/svg">
<g clip-path="url(#clip0_518_6335)">
<path d="M49.9974 0C77.6108 0 99.9947 22.384 99.9947 49.9974C99.9947 77.6108 77.6108 99.9947 49.9974 99.9947C22.384 99.9947 0 77.6108 0 49.9974C0 22.384 22.384 0 49.9974 0Z" fill="#2FAB48"/>
<path d="M43.1218 67.4006C42.1056 67.4006 41.0893 67.0142 40.3165 66.2362L27.2112 53.1308C25.6603 51.58 25.6603 49.0658 27.2112 47.515C28.762 45.9641 31.2762 45.9641 32.827 47.515L43.1271 57.8151L67.1784 33.7638C68.7292 32.213 71.2433 32.213 72.7942 33.7638C74.345 35.3147 74.345 37.8288 72.7942 39.3797L45.9324 66.2415C45.1596 67.0142 44.1434 67.4059 43.1271 67.4059L43.1218 67.4006Z" fill="white"/>
</g>
<defs>
<clipPath id="clip0_518_6335">
<rect width="100" height="100" fill="white"/>
</clipPath>
</defs>
</svg>
