<svg width="100" height="100" viewBox="0 0 100 100" fill="none" xmlns="http://www.w3.org/2000/svg">
<path d="M47.838 7.83826C56.7567 8.10855 64.8648 11.6215 70.8107 17.0267C77.8376 23.5132 82.1622 32.7026 82.1622 42.7025C82.1622 45.6925 81.772 48.6093 81.0421 51.4037C80.511 52.1937 79.6119 52.7025 78.6085 52.7025C77.6566 52.7024 76.8133 52.2471 76.2775 51.5443C76.9508 49.4168 77.3959 47.1816 77.5675 44.8646H67.297C67.067 49.2336 66.0526 53.602 64.424 57.6381L63.6564 59.1742C62.7407 61.0054 60.8688 62.1625 58.8214 62.1625H56.757C56.757 62.1625 56.7406 62.0949 56.7062 61.9681C56.7226 61.9424 56.7406 61.9177 56.757 61.892C56.73 61.883 56.7028 61.8745 56.6759 61.8656C56.4613 61.1051 55.7765 58.9709 54.2394 56.4506C55.9593 56.7905 57.6474 57.2775 59.1896 57.8383C61.0815 53.7842 62.1625 49.4592 62.4327 44.8646H49.1896V50.5482C47.8809 49.4483 46.3591 48.4161 44.5948 47.5287V45.1351H37.3136C35.4185 44.7899 33.3464 44.5951 31.0812 44.5951C29.5128 44.5951 28.0412 44.6895 26.6603 44.8646H16.4865C16.5677 45.9609 16.7045 47.0391 16.8937 48.0961C15.2752 49.065 13.8891 50.1825 12.7042 51.3851C11.9975 48.6261 11.6212 45.7228 11.6212 42.7025C11.6213 32.4323 15.9458 23.5132 22.9728 17.0267C23.243 16.7565 23.5138 16.7572 23.5138 16.7572C29.73 11.3518 37.838 7.83826 46.757 7.83826H47.838ZM24.8654 21.6215C20.2708 26.4862 17.0271 32.9728 16.4865 40.2699H26.757C27.0273 35.135 28.3781 30 30.5402 25.4056C28.3782 24.3246 26.4869 22.9727 24.8654 21.6215ZM34.8654 27.2972C32.9735 31.3512 31.8925 35.6755 31.6222 40.2699H44.5948V29.4594C41.3517 29.1891 38.1085 28.3783 34.8654 27.2972ZM59.1896 27.0267C56.2166 28.1078 52.7023 28.9193 49.4591 28.9193V40.0004H62.4327C62.1625 35.4058 61.0815 31.0808 59.1896 27.0267ZM69.1896 21.351C67.2977 22.9725 65.4056 24.0541 63.5138 25.1351C65.6759 29.7297 67.0267 34.8652 67.297 40.0004H77.5675C77.027 32.7031 74.0544 26.2158 69.1896 21.351ZM44.5948 14.5951C41.6219 17.0275 39.1889 20.0001 37.297 22.973C39.7294 23.7838 42.1624 24.3246 44.5948 24.3246V14.5951ZM49.4591 24.3246C51.8915 24.3246 54.3245 23.7838 56.757 22.973C54.8651 19.7298 52.4321 17.0275 49.4591 14.5951V24.3246ZM38.9191 13.2435C35.1353 14.3246 31.351 15.9459 28.3781 18.3783C29.7294 19.4594 31.3519 20.2706 32.7032 21.0814C34.3249 18.1085 36.4867 15.6759 38.9191 13.2435ZM54.5948 13.2435C57.0272 15.6759 59.1893 18.1085 61.0812 21.0814C62.7028 20.2706 64.054 19.4594 65.4054 18.3783C62.1622 15.946 58.6488 14.3246 54.5948 13.2435Z" fill="#ED5565"/>
<path d="M30.7014 57C31.5426 57.0002 32.2567 57.6823 32.2571 58.5234V60.5576C33.0696 60.6657 33.8118 60.8335 34.4827 61.0595C34.8181 61.1677 35.3976 61.4447 35.9641 61.7314C36.8325 62.171 37.4541 63.1115 37.0774 64.0088C36.6649 64.99 35.403 65.1185 34.3928 64.7832C33.7629 64.5741 33.1378 64.3857 32.7952 64.2881C32.1056 64.0916 31.472 63.9932 30.8958 63.9931C30.3576 63.9932 29.9416 64.1062 29.6487 64.332C29.3654 64.5579 29.2231 64.8582 29.2229 65.2314C29.2229 65.6344 29.3506 65.9449 29.6057 66.1611C29.8703 66.3774 30.2491 66.5788 30.7405 66.7656L33.093 67.6943C34.1986 68.1366 35.0923 68.7807 35.7727 69.6259C36.4623 70.4711 36.8068 71.5476 36.8069 72.8545C36.8069 74.201 36.363 75.3175 35.4749 76.2021C34.5961 77.0866 33.4332 77.642 31.9875 77.8681V79.8945C31.9875 80.7398 31.4245 81.4254 30.5793 81.4258C29.7338 81.4258 28.926 80.74 28.926 79.8945V77.8086C27.9812 77.6611 27.1019 77.4258 26.2893 77.1015C26.1618 77.0485 26.0262 76.9878 25.8889 76.9238C25.0188 76.5182 24.6917 75.4704 25.0999 74.6015C25.5461 73.6524 26.6926 73.2805 27.6477 73.7138C27.8572 73.8089 28.058 73.8956 28.2307 73.9609C29.0717 74.2656 29.8378 74.4228 30.5276 74.4326C31.1038 74.4424 31.5573 74.3189 31.8879 74.0634C32.2279 73.7981 32.3987 73.4393 32.3987 72.9873C32.408 72.6729 32.3086 72.3583 32.1008 72.0439C31.9024 71.7294 31.5193 71.4633 30.9524 71.247L28.5149 70.3037C27.5037 69.9105 26.6384 69.3456 25.9202 68.6084C25.2022 67.8713 24.8431 66.903 24.843 65.7041C24.8431 64.3282 25.2544 63.1874 26.0764 62.2832C26.908 61.3692 27.9525 60.7935 29.2092 60.5576V58.5234C29.2096 57.6822 29.8601 57 30.7014 57Z" fill="#ED5565"/>
<path fill-rule="evenodd" clip-rule="evenodd" d="M31.1252 48C42.9301 48.0001 52.5001 57.5701 52.5002 69.375C52.5002 81.18 42.9302 90.7498 31.1252 90.75C19.3202 90.75 9.75024 81.1801 9.75024 69.375C9.75043 57.57 19.3203 48 31.1252 48ZM31.1252 52.3945C21.7473 52.3945 14.145 59.9971 14.1448 69.375C14.1448 78.753 21.7472 86.3554 31.1252 86.3554C40.5032 86.3553 48.1057 78.7529 48.1057 69.375C48.1055 59.9972 40.5031 52.3946 31.1252 52.3945Z" fill="#ED5565"/>
<path fill-rule="evenodd" clip-rule="evenodd" d="M60.0004 64.8646C60.7465 64.8649 61.351 65.47 61.351 66.2162V70.0004H62.1625C63.784 70.0006 65.1352 71.3516 65.1352 72.973V84.3246C65.1351 85.946 63.7839 87.297 62.1625 87.2972H61.351V90.0004C61.3509 90.7464 60.7465 91.3517 60.0004 91.3519H59.4594C58.7132 91.3519 58.108 90.7466 58.1078 90.0004V87.2972H57.0268C55.4053 87.2971 54.0542 85.9461 54.0541 84.3246V72.973C54.0541 71.3515 55.4053 70.0005 57.0268 70.0004H58.1078V66.2162C58.1079 65.4699 58.7131 64.8646 59.4594 64.8646H60.0004ZM57.2973 84.0541H61.892V72.973H57.2973V84.0541Z" fill="#ED5565"/>
<path fill-rule="evenodd" clip-rule="evenodd" d="M73.2426 56.7572C73.9888 56.7572 74.594 57.3616 74.5942 58.1078V61.892H75.6752C77.2967 61.892 78.6487 63.2432 78.6489 64.8646V84.0541C78.6489 85.6757 77.2969 87.0267 75.6752 87.0267H74.5942V89.7299C74.5941 90.4761 73.9889 91.0814 73.2426 91.0814H72.7026C71.9563 91.0814 71.3511 90.4761 71.351 89.7299V87.0267H70.5405C68.9188 87.0267 67.5678 85.6757 67.5678 84.0541V64.8646C67.568 63.2432 68.919 61.892 70.5405 61.892H71.351V58.1078C71.3512 57.3616 71.9564 56.7572 72.7026 56.7572H73.2426ZM70.811 84.0541H75.4057V65.1351H70.811V84.0541Z" fill="#ED5565"/>
<path fill-rule="evenodd" clip-rule="evenodd" d="M86.7563 51.351C87.5025 51.351 88.1077 51.9563 88.1078 52.7025V56.4867H89.1889C90.8104 56.4867 92.1624 57.8378 92.1625 59.4594V70.8109C92.1625 72.4325 90.8105 73.7836 89.1889 73.7836H88.1078V76.4867C88.1078 77.233 87.5026 77.8383 86.7563 77.8383H86.2162C85.4699 77.8383 84.8647 77.233 84.8647 76.4867V73.7836H84.0541C82.4325 73.7836 81.0815 72.4325 81.0815 70.8109V59.4594C81.0816 57.8378 82.4326 56.4867 84.0541 56.4867H84.8647V52.7025C84.8648 51.9563 85.47 51.351 86.2162 51.351H86.7563ZM84.3246 70.5404H88.9184V59.4594H84.3246V70.5404Z" fill="#ED5565"/>
<path d="M61.2514 66.2162C61.2514 65.5684 60.7591 65.0354 60.1284 64.9711L60.0004 64.9642H59.4594C58.7683 64.9642 58.2075 65.5251 58.2075 66.2162V70.1H57.0268C55.4605 70.1001 54.1538 71.4067 54.1537 72.973V84.3246L54.1577 84.4711C54.2361 85.9715 55.5096 87.1975 57.0268 87.1976H58.2075V90.0004L58.2143 90.1283C58.2785 90.7593 58.8116 91.2523 59.4594 91.2523H60.0004L60.1284 91.2455C60.7169 91.1854 61.1847 90.7171 61.2446 90.1283L61.2514 90.0004V87.1976H62.1625L62.309 87.1937C63.7608 87.1177 64.9558 85.9228 65.0317 84.4711L65.0356 84.3246V72.973C65.0356 71.4559 63.8094 70.1824 62.309 70.1039L62.1625 70.1H61.2514V66.2162ZM74.4946 58.1078C74.4944 57.4169 73.9336 56.8568 73.2426 56.8568H72.7026C72.0115 56.8568 71.4508 57.4169 71.4506 58.1078V61.9916H70.5405C68.9742 61.9916 67.6676 63.2984 67.6674 64.8646V84.0541C67.6674 85.6205 68.9741 86.9271 70.5405 86.9271H71.4506V89.7299L71.4575 89.8578C71.5216 90.4888 72.0547 90.9818 72.7026 90.9818H73.2426C73.8904 90.9818 74.4235 90.4888 74.4877 89.8578L74.4946 89.7299V86.9271H75.6752C77.2417 86.9271 78.5493 85.6204 78.5493 84.0541V64.8646C78.5491 63.2984 77.2415 61.9916 75.6752 61.9916H74.4946V58.1078ZM61.9916 72.8734V84.1537H57.1977V72.8734H61.9916ZM75.5053 65.0355V84.1537H70.7114V65.0355H75.5053ZM70.9106 83.9545H75.3061V65.2347H70.9106V83.9545ZM57.3969 83.9545H61.7924V73.0726H57.3969V83.9545ZM88.0082 52.7025C88.0081 52.0115 87.4473 51.4506 86.7563 51.4506H86.2162C85.5253 51.4506 84.9644 52.0115 84.9643 52.7025V56.5863H84.0541C82.4878 56.5863 81.1812 57.8931 81.1811 59.4594V70.8109C81.1811 72.3773 82.4877 73.684 84.0541 73.684H84.9643V76.4867L84.9711 76.6146C85.0352 77.2457 85.5683 77.7386 86.2162 77.7386H86.7563C87.4042 77.7386 87.9373 77.2457 88.0014 76.6146L88.0082 76.4867V73.684H89.1889C90.7553 73.684 92.0629 72.3773 92.0629 70.8109V59.4594C92.0628 57.8931 90.7553 56.5863 89.1889 56.5863H88.0082V52.7025ZM89.018 59.3597V70.64H84.225V59.3597H89.018ZM84.4243 70.4408H88.8188V59.559H84.4243V70.4408ZM61.4506 69.9008H62.1625C63.8392 69.901 65.2348 71.2963 65.2348 72.973V84.3246C65.2347 86.0012 63.8391 87.3966 62.1625 87.3969H61.4506V90.0004C61.4505 90.8016 60.8017 91.4513 60.0004 91.4515H59.4594C58.6579 91.4515 58.0084 90.8018 58.0082 90.0004V87.3969H57.0268C55.3501 87.3968 53.9546 86.0013 53.9545 84.3246V72.973C53.9545 71.2962 55.35 69.9009 57.0268 69.9008H58.0082V66.2162C58.0083 65.4146 58.6579 64.765 59.4594 64.765H60.0004C60.8018 64.7653 61.4506 65.4149 61.4506 66.2162V69.9008ZM74.6938 61.7924H75.6752C77.3519 61.7924 78.7483 63.1879 78.7485 64.8646V84.0541C78.7485 85.731 77.352 87.1263 75.6752 87.1263H74.6938V89.7299C74.6937 90.5313 74.0441 91.181 73.2426 91.181H72.7026C71.9011 91.181 71.2515 90.5313 71.2514 89.7299V87.1263H70.5405C68.8636 87.1263 67.4682 85.7309 67.4682 84.0541V64.8646C67.4684 63.188 68.8637 61.7924 70.5405 61.7924H71.2514V58.1078C71.2516 57.3064 71.9012 56.6576 72.7026 56.6576H73.2426C74.044 56.6576 74.6936 57.3064 74.6938 58.1078V61.7924ZM88.2075 56.3871H89.1889C90.8656 56.3871 92.262 57.7826 92.2621 59.4594V70.8109C92.2621 72.4878 90.8657 73.8832 89.1889 73.8832H88.2075V76.4867C88.2075 77.2882 87.5578 77.9379 86.7563 77.9379H86.2162C85.4147 77.9379 84.7651 77.2882 84.7651 76.4867V73.8832H84.0541C82.3773 73.8832 80.9819 72.4878 80.9819 70.8109V59.4594C80.982 57.7826 82.3774 56.3871 84.0541 56.3871H84.7651V52.7025C84.7652 51.9011 85.4148 51.2513 86.2162 51.2513H86.7563C87.5578 51.2513 88.2073 51.9011 88.2075 52.7025V56.3871Z" fill="#ED5565"/>
</svg>
