<svg width="100" height="100" viewBox="0 0 100 100" fill="none" xmlns="http://www.w3.org/2000/svg">
<g clip-path="url(#clip0_341_1965)">
<path d="M69.1025 13.6031C73.7322 13.6032 77.4984 17.37 77.499 21.9996V78.0006C77.499 82.6301 73.733 86.3969 69.1035 86.3971H26.3174C24.2695 86.3971 22.6038 84.732 22.6035 82.6842V17.317C22.6035 15.269 24.2694 13.6031 26.3174 13.6031H69.1025ZM26.3174 16.3473C25.7826 16.3473 25.3476 16.7822 25.3476 17.317V82.6832C25.3477 83.218 25.7826 83.653 26.3174 83.653H69.1035C72.2197 83.6527 74.7558 81.1168 74.7559 78.0006V21.9996C74.7559 18.8834 72.2197 16.3475 69.1035 16.3473H26.3174Z" fill="#ED5565" stroke="#ED5565" stroke-width="0.402174"/>
<path d="M50.6794 62.0648C50.6912 62.0648 50.7016 62.0569 50.7134 62.0564C54.3728 62.014 57.701 60.6037 60.2314 58.3196C60.2758 58.2861 60.3266 58.2654 60.3656 58.2229C60.3814 58.2057 60.3863 58.1835 60.4006 58.1657C63.2423 55.5189 65.033 51.7575 65.033 47.5767C65.033 43.3958 63.2478 39.6566 60.3927 37.0143C60.3814 37.0005 60.3779 36.9837 60.3661 36.9704C60.334 36.9358 60.2921 36.92 60.2565 36.8914C57.7775 34.6542 54.5178 33.2543 50.9019 33.1339C50.8767 33.128 50.8506 33.1339 50.8249 33.13C50.6818 33.126 50.5427 33.1088 50.3986 33.1088C46.7619 33.1473 43.448 34.556 40.9191 36.8233C40.8594 36.8643 40.7943 36.8949 40.743 36.9506C40.7213 36.9743 40.7139 37.0044 40.6951 37.0291C37.8633 39.6763 36.0765 43.4269 36.0765 47.5772C36.0765 51.7274 37.8578 55.4785 40.6842 58.1287C40.706 58.1583 40.7148 58.1928 40.74 58.2205C40.7963 58.2817 40.8678 58.3152 40.9344 58.3586C43.4628 60.6215 46.7738 62.0268 50.409 62.0653H50.5451C50.5841 62.0653 50.6216 62.0599 50.6601 62.0594C50.667 62.0594 50.6734 62.0653 50.6803 62.0653L50.6794 62.0648ZM51.5236 59.0776V55.0778C52.553 55.1582 53.5556 55.3502 54.5183 55.6729C53.7012 56.9385 52.7089 58.0956 51.5236 59.0776ZM56.3288 56.4569C56.9416 56.7792 57.5209 57.1532 58.075 57.5775C56.7921 58.5461 55.3207 59.271 53.7229 59.6909C54.7305 58.7169 55.6014 57.6328 56.3292 56.4569H56.3288ZM51.5236 53.0824V48.5591H56.8582C56.7358 50.446 56.2686 52.2524 55.4909 53.9148C54.2252 53.4544 52.8924 53.1737 51.5236 53.0819V53.0824ZM51.5236 46.6095V42.0917C52.8959 42.0009 54.2306 41.7216 55.4968 41.2642C56.2725 42.9241 56.7378 44.7271 56.8587 46.6095H51.5236ZM51.5236 40.0967V36.096C52.7118 37.0799 53.7061 38.239 54.5242 39.5066C53.561 39.8268 52.5564 40.0173 51.5236 40.0972V40.0967ZM53.7229 35.4822C55.3271 35.9031 56.8034 36.6304 58.0898 37.6034C57.5347 38.0288 56.9534 38.4033 56.3371 38.726C55.6078 37.5467 54.734 36.4597 53.7224 35.4822H53.7229ZM49.5741 36.0871V40.0967C48.5413 40.0163 47.5352 39.8229 46.5695 39.4977C47.3891 38.2301 48.3844 37.071 49.5741 36.0871ZM44.761 38.7097C44.1605 38.3924 43.5926 38.0248 43.0483 37.6089C44.31 36.661 45.7548 35.944 47.3274 35.5172C46.3366 36.4809 45.4795 37.5511 44.761 38.7097ZM49.5741 42.0912V46.609H44.2291C44.35 44.7227 44.8173 42.9162 45.5959 41.2533C46.8651 41.7172 48.2018 41.9999 49.5736 42.0912H49.5741ZM49.5741 48.5596V53.0824C48.2067 53.1746 46.872 53.4579 45.6014 53.9237C44.8217 52.2588 44.353 50.4494 44.2301 48.5596H49.5741ZM49.5741 55.0778V59.0864C48.3868 58.104 47.3931 56.9459 46.5739 55.6798C47.5406 55.3526 48.5452 55.1592 49.5741 55.0783V55.0778ZM47.358 59.684C45.7746 59.2621 44.315 58.5387 43.0404 57.5756C43.5901 57.1576 44.1625 56.7875 44.7665 56.4688C45.4908 57.6372 46.3568 58.7149 47.358 59.6845V59.684ZM59.5894 56.2364C58.864 55.6487 58.0898 55.135 57.2727 54.7038C58.1584 52.7972 58.6839 50.7238 58.8083 48.5596H63.0326C62.8007 51.5281 61.534 54.2059 59.5894 56.2364ZM63.0336 46.6095H58.8093C58.6869 44.4508 58.1639 42.3823 57.2806 40.4791C58.1012 40.0479 58.8774 39.5342 59.6032 38.9456C61.5434 40.9746 62.8051 43.647 63.0336 46.6095ZM41.5275 38.9461C42.2445 39.5268 43.0098 40.0336 43.8161 40.4609C42.9279 42.369 42.4014 44.4434 42.279 46.609H38.0744C38.3044 43.6539 39.5706 40.978 41.5275 38.9461ZM38.0754 48.5596H42.28C42.4044 50.7292 42.9324 52.8075 43.822 54.7176C43.0143 55.1459 42.246 55.6536 41.5246 56.2344C39.5775 54.2005 38.3088 51.5202 38.0754 48.5596Z" fill="#ED5565" stroke="#ED5565" stroke-width="0.144783"/>
<rect x="40.9024" y="69.3043" width="18.0978" height="2.41304" rx="1.20652" fill="#ED5565"/>
<rect x="34.8699" y="75.3369" width="30.163" height="2.41304" rx="1.20652" fill="#ED5565"/>
<rect x="36.0765" y="22.25" width="28.9565" height="3.61957" rx="1.80978" fill="#ED5565"/>
</g>
<defs>
<clipPath id="clip0_341_1965">
<rect width="56.3043" height="74" fill="white" transform="translate(22.0001 13)"/>
</clipPath>
</defs>
</svg>
