<svg width="101" height="100" viewBox="0 0 101 100" fill="none" xmlns="http://www.w3.org/2000/svg">
<path d="M68.5202 17.8124C72.8858 17.9077 76.3594 21.5375 76.265 25.903L75.1585 76.5897C75.0632 80.9555 71.4345 84.43 67.0688 84.3348L42.368 83.7958L41.6862 83.0001L51.761 80.8783L67.1368 81.2143C69.7816 81.2719 71.9809 79.1667 72.039 76.522L73.1458 25.8344C73.203 23.1899 71.098 20.9902 68.4535 20.9322L52.1321 20.5756L51.4856 17.4408L68.5202 17.8124ZM66.846 73.1967C67.6035 73.195 68.2194 73.8076 68.2217 74.5651C68.2237 75.3228 67.6115 75.9395 66.8539 75.9421L60.934 75.9584C61.4559 75.1135 61.8452 74.1866 62.0801 73.2096L66.846 73.1967ZM66.6439 68.5751C67.4018 68.573 68.0185 69.1852 68.0209 69.9429C68.0229 70.7008 67.41 71.3173 66.6522 71.3196L62.3341 71.3306C62.358 70.602 62.2988 69.8592 62.1451 69.1139L62.0365 68.5875L66.6439 68.5751ZM55.156 35.2368C58.0597 35.5822 60.6217 36.8884 62.5417 38.8152C62.5462 38.8184 62.5472 38.8189 62.5603 38.828C62.5799 38.8419 62.6205 38.8717 62.6586 38.9173L62.6633 38.9218C62.6758 38.9375 62.684 38.9544 62.6913 38.9672C64.9829 41.3469 66.3198 44.6044 66.1266 48.1529C65.9333 51.6985 64.2465 54.8067 61.7241 56.9277C61.7232 56.9292 61.7225 56.9314 61.7215 56.933L61.675 56.9882C61.63 57.032 61.5841 57.06 61.5576 57.0748L61.5271 57.091L61.5237 57.092C61.012 57.5045 60.4657 57.8739 59.8935 58.2019L58.3013 50.4826C58.4537 49.9544 58.5741 49.4133 58.6547 48.8597L57.9586 48.8215L57.4969 46.5817L58.7757 46.6511C58.7289 45.3183 58.4673 44.0274 58.0086 42.8116C57.6034 42.9235 57.1913 43.0129 56.7748 43.0827L56.3219 40.8874C56.5516 40.8518 56.78 40.811 57.0054 40.7595C56.7053 40.2681 56.3717 39.7966 56.0049 39.3495L55.156 35.2368ZM60.8704 48.9809C60.6553 50.6174 60.17 52.1746 59.4422 53.6072C59.9538 53.9304 60.4412 54.2924 60.9019 54.6909C62.388 53.2255 63.4268 51.3058 63.7846 49.1389L60.8704 48.9809ZM61.6527 41.1076C61.1504 41.4546 60.6253 41.7627 60.0792 42.0284C60.6453 43.5286 60.9578 45.1258 60.9926 46.7716L63.9065 46.9306C63.7885 44.7422 62.9679 42.7243 61.6527 41.1076ZM57.9535 38.2605C58.387 38.8119 58.7765 39.3923 59.1225 39.9977C59.4268 39.8483 59.7237 39.6849 60.0119 39.5038C59.3819 39.0121 58.6919 38.594 57.9535 38.2605ZM63.0682 26.1957C64.0626 26.2025 64.8637 27.0139 64.8575 28.0082C64.8507 29.003 64.0384 29.8049 63.0437 29.7982L54.0216 29.7368L53.2777 26.1291L63.0682 26.1957Z" fill="#ED5565"/>
<path d="M40.3167 15.0174C44.5393 14.1299 48.696 16.8431 49.5842 21.0655L59.8811 70.0506C60.7687 74.2733 58.0556 78.4305 53.8329 79.3182L16.4076 87.1851C14.4431 87.5981 12.5101 86.3365 12.0971 84.372L0.0782829 27.1948C-0.334597 25.2303 0.926898 23.2972 2.89139 22.8843L40.3167 15.0174ZM3.52759 25.9109C3.23293 25.9729 3.04304 26.2639 3.10491 26.5586L15.1238 83.7358C15.1857 84.0305 15.4768 84.2204 15.7714 84.1585L53.1967 76.2916C55.7495 75.7549 57.391 73.2397 56.8544 70.6869L46.5576 21.7017C46.0209 19.1489 43.5057 17.5074 40.9529 18.044L3.52759 25.9109ZM47.058 70.0128C47.7995 69.8572 48.5269 70.3319 48.683 71.0733C48.8389 71.815 48.3643 72.5431 47.6227 72.6992L23.3485 77.8018C22.6069 77.9572 21.8792 77.4819 21.7233 76.7403C21.5677 75.9989 22.0425 75.2716 22.7838 75.1154L47.058 70.0128ZM45.8811 65.3066C46.6226 65.151 47.3499 65.6259 47.5061 66.3671C47.662 67.1088 47.1874 67.8369 46.4458 67.993L22.1716 73.0955C21.4301 73.251 20.7024 72.7757 20.5465 72.0341C20.3911 71.2928 20.8658 70.5653 21.6069 70.4091L45.8811 65.3066ZM26.46 34.9334L26.6457 34.9053L26.664 34.9025L26.6652 34.9032L26.6678 34.9017C26.6746 34.9001 26.6894 34.8972 26.7063 34.8946C26.7107 34.8939 26.7161 34.895 26.7212 34.8944C30.1142 34.299 33.4273 34.963 36.1791 36.5597L36.1801 36.5595C36.1888 36.5628 36.1883 36.5625 36.206 36.569C36.2306 36.578 36.2803 36.5966 36.3311 36.6325L36.3369 36.6363L36.3816 36.6778C39.5488 38.5872 41.9373 41.7216 42.7556 45.6144C43.5737 49.506 42.6492 53.3567 40.5332 56.3809C40.5322 56.3841 40.5316 56.388 40.5304 56.3914L40.4995 56.4578C40.4658 56.5145 40.4258 56.5549 40.402 56.5781C40.396 56.584 40.3901 56.5902 40.3855 56.5945C40.3808 56.5991 40.3772 56.6028 40.374 56.606C40.3713 56.6085 40.3685 56.6099 40.3671 56.6114C38.4579 59.2255 35.6412 61.1871 32.2505 61.9489C32.2341 61.9561 32.2132 61.9647 32.1881 61.97L32.1883 61.971C32.1738 61.974 32.1598 61.9747 32.1473 61.9756C32.1447 61.9764 32.1412 61.9776 32.138 61.9785C32.1214 61.9833 32.0944 61.9907 32.065 61.9969L31.9369 62.0238C28.5416 62.6999 25.1816 62.0422 22.3815 60.4359C22.3737 60.4331 22.3649 60.4293 22.3544 60.4257C22.338 60.42 22.3154 60.4131 22.2931 60.4046C22.2475 60.3871 22.1882 60.3604 22.1281 60.3176L22.127 60.3168C22.0827 60.2848 22.0522 60.2488 22.0382 60.2317C18.8985 58.3095 16.5127 55.1655 15.7006 51.3024C14.8883 47.438 15.8115 43.5971 17.9182 40.5748C17.9248 40.5527 17.9376 40.5146 17.9604 40.4761C17.9962 40.416 18.0382 40.3708 18.0694 40.3395C18.1118 40.297 18.1095 40.2998 18.1287 40.2801C20.0447 37.6779 22.8583 35.7192 26.2403 34.9706L26.2441 34.9698C26.3202 34.9538 26.3943 34.9426 26.46 34.9334ZM36.3922 55.8313C36.0934 56.6142 35.7338 57.3733 35.3131 58.1039C36.1369 57.5824 36.8816 56.96 37.5377 56.2581C37.1624 56.0939 36.7808 55.9524 36.3922 55.8313ZM25.6277 58.105C25.3275 58.3673 25.0406 58.6451 24.7675 58.9405C25.6389 59.3145 26.5578 59.5839 27.5074 59.7317C26.837 59.2374 26.2097 58.6938 25.6277 58.105ZM29.5522 55.882C28.8835 56.0969 28.241 56.3661 27.6317 56.6959C28.3852 57.4174 29.215 58.0604 30.1231 58.5981L29.5522 55.882ZM32.4788 58.0929C33.0915 57.2368 33.5911 56.3165 33.9888 55.3546C33.3017 55.3003 32.6074 55.3125 31.9097 55.3855L32.4788 58.0929ZM37.294 48.0018C37.5419 49.8553 37.4666 51.7013 37.0866 53.481C37.7548 53.6872 38.4076 53.9459 39.0405 54.2548C40.2467 52.2122 40.823 49.7981 40.5701 47.3132L37.294 48.0018ZM18.384 51.9767C19.1531 54.3466 20.6543 56.3267 22.5835 57.7131C23.0355 57.1822 23.5237 56.6882 24.0452 56.2353C22.977 54.7568 22.1624 53.093 21.6419 51.2919L18.384 51.9767ZM24.0044 50.7953C24.449 52.261 25.1255 53.6141 25.9985 54.8228C26.9515 54.2538 27.9736 53.8028 29.0468 53.4775L28.2934 49.8938L24.0044 50.7953ZM31.4042 52.981C32.5173 52.846 33.6317 52.8462 34.728 52.9799C35.0395 51.5242 35.1106 50.0165 34.9276 48.4982L30.6509 49.3972L31.4042 52.981ZM32.4515 42.1262C31.5007 42.6879 30.4788 43.1353 29.4028 43.4596L30.1553 47.0396L34.4329 46.1404C33.9911 44.6802 33.3207 43.3314 32.4515 42.1262ZM35.8938 39.2232C35.438 39.7619 34.9436 40.2626 34.4124 40.7211C35.474 42.1945 36.2824 43.8508 36.7992 45.643L40.0762 44.9541C39.3112 42.5818 37.8166 40.6066 35.8938 39.2232ZM19.4265 42.6847C18.2106 44.7302 17.6352 47.1433 17.8871 49.6174L21.144 48.9328C20.8944 47.078 20.9696 45.2301 21.3514 43.4486C20.6936 43.2445 20.0506 42.989 19.4265 42.6847ZM23.7089 43.9539C23.3967 45.41 23.3234 46.9184 23.5074 48.436L27.7975 47.5342L27.0449 43.9542C25.9282 44.0901 24.8095 44.0899 23.7089 43.9539ZM28.8976 41.0561C29.5682 40.8419 30.2103 40.5742 30.8185 40.2491C30.0658 39.5274 29.2361 38.8846 28.328 38.3467L28.8976 41.0561ZM25.9686 38.8337C25.3522 39.6929 24.8503 40.6166 24.4506 41.5817C25.141 41.6372 25.8387 41.624 26.5397 41.5507L25.9686 38.8337ZM30.9181 37.1955C31.6013 37.6973 32.2392 38.2507 32.8306 38.8502C33.1401 38.5817 33.4338 38.297 33.7125 37.9942C32.8251 37.6132 31.8878 37.3414 30.9181 37.1955ZM23.0948 38.8869C22.2975 39.4004 21.5758 40.0063 20.9382 40.6854C21.3021 40.8444 21.6719 40.9815 22.0481 41.0998C22.3394 40.3385 22.6883 39.5993 23.0948 38.8869ZM35.5919 23.6874C36.6249 23.4703 37.6387 24.1316 37.8562 25.1643C38.0734 26.1976 37.4116 27.2117 36.3784 27.4289L14.2152 32.0876C13.1823 32.3043 12.1688 31.6425 11.9516 30.6096C11.7351 29.5769 12.3963 28.5637 13.4288 28.3462L35.5919 23.6874Z" fill="#ED5565"/>
<path d="M93.4739 28.3332C97.3425 29.5383 99.5096 33.666 98.3052 37.5349L84.3886 82.216C83.1836 86.0848 79.0558 88.2522 75.187 87.0473L67.3723 84.6124L70.366 84.4774C71.5746 84.4224 72.7004 84.0629 73.6739 83.4783L76.0663 84.2243C78.3775 84.9441 80.845 83.6485 81.5651 81.3374L95.4822 36.6555C96.2021 34.3441 94.9059 31.8761 92.5945 31.1561L78.0467 26.6243L78.1033 23.5456L93.4739 28.3332ZM78.2211 75.8161C78.9409 76.0524 79.3327 76.8278 79.097 77.5478C78.8609 78.2679 78.0857 78.6609 77.3656 78.425L77.0462 78.3197C77.0779 78.0691 77.0987 77.8146 77.1035 77.5566L77.1418 75.4621L78.2211 75.8161ZM79.4825 71.3658C80.2024 71.602 80.5955 72.3772 80.3598 73.0972C80.1236 73.8173 79.3476 74.2098 78.6275 73.974L77.1788 73.4984L77.232 70.6272L79.4825 71.3658ZM77.741 43.0858C78.7856 44.038 79.651 45.1506 80.3092 46.3709C80.3124 46.3749 80.3131 46.3756 80.3227 46.3878C80.3301 46.3972 80.3415 46.412 80.3538 46.4313L80.3947 46.5081C80.4022 46.5266 80.4049 46.5446 80.4083 46.5588C81.9271 49.4929 82.2817 52.9963 81.0855 56.3429C80.3218 58.4791 79.0238 60.2696 77.3983 61.6274L77.4586 58.3891C77.8788 57.8469 78.249 57.2564 78.5582 56.6206L77.4981 56.2407L77.5408 53.9067L79.3041 54.5381C79.8144 52.4067 79.603 50.2395 78.8028 48.3151C78.4193 48.4403 78.0307 48.5442 77.6386 48.6305L77.682 46.3098C77.6835 46.3094 77.6853 46.3099 77.6868 46.3095C77.6852 46.3072 77.6835 46.305 77.6819 46.3028L77.741 43.0858ZM84.4075 34.4247C85.359 34.7145 85.8968 35.7208 85.6072 36.6723C85.3171 37.6237 84.3094 38.1607 83.3579 37.8709L77.8692 36.1982L77.9388 32.4532L84.4075 34.4247Z" fill="#ED5565"/>
</svg>
